<svg xmlns="http://www.w3.org/2000/svg" width="192" height="192" fill="none"><g clip-path="url(#a)"><path stroke="#000" stroke-linecap="round" stroke-linejoin="round" d="M159.703 28.185c2.374-.296 4.408 1.738 4.112 4.112.423.466.847.932 1.271 1.356.805.932.339 1.865-.89 1.78-3.136-.297-5.764.212-8.519 1.738-.678.381-1.229-.17-.848-.848 1.484-2.755 2.035-5.383 1.738-8.52-.127-1.228.848-1.694 1.78-.89.466.425.932.849 1.356 1.272M188.99 93.076a3.704 3.704 0 0 1 0 5.849c0 .635-.042 1.229-.085 1.864-.084 1.23-1.102 1.569-1.864.636-1.992-2.416-4.239-3.9-7.248-4.79-.763-.211-.763-1.016 0-1.228 3.009-.89 5.256-2.374 7.248-4.79.762-.932 1.822-.593 1.864.636 0 .636.043 1.23.085 1.865zM163.815 159.703c.296 2.374-1.738 4.408-4.112 4.112-.466.423-.932.847-1.356 1.271-.932.805-1.865.339-1.78-.89.297-3.136-.212-5.764-1.738-8.519-.381-.678.17-1.229.848-.848 2.755 1.484 5.383 2.035 8.519 1.738 1.229-.127 1.695.848.89 1.78-.424.466-.848.932-1.271 1.356M98.924 188.991a3.705 3.705 0 0 1-5.849 0c-.636 0-1.23-.043-1.865-.085-1.229-.085-1.568-1.102-.636-1.865 2.416-1.992 3.9-4.238 4.79-7.248.212-.763 1.017-.763 1.229 0 .89 3.01 2.373 5.256 4.789 7.248.933.763.594 1.823-.635 1.865-.636 0-1.23.042-1.865.085zM32.297 163.815c-2.374.296-4.408-1.738-4.111-4.112a40 40 0 0 0-1.272-1.356c-.805-.932-.339-1.865.89-1.78 3.137.297 5.764-.212 8.52-1.738.678-.381 1.229.17.847.848-1.483 2.755-2.034 5.383-1.738 8.519.127 1.229-.847 1.695-1.78.89-.466-.424-.932-.848-1.356-1.271M3.01 98.925a3.705 3.705 0 0 1 0-5.85c0-.635.042-1.229.084-1.864.043-1.23 1.102-1.569 1.865-.636 1.992 2.416 4.239 3.9 7.248 4.79.763.211.763 1.017 0 1.228-3.01.89-5.256 2.374-7.248 4.79-.763.932-1.822.593-1.865-.636 0-.636-.042-1.23-.084-1.865zM28.186 32.297c-.297-2.374 1.737-4.408 4.11-4.112.467-.423.933-.847 1.357-1.271.933-.805 1.865-.34 1.78.89-.296 3.136.212 5.764 1.738 8.52.382.677-.17 1.228-.848.847-2.755-1.484-5.382-2.035-8.519-1.738-1.229.127-1.695-.848-.89-1.78.424-.466.848-.932 1.272-1.356M93.076 3.01a3.705 3.705 0 0 1 5.849 0c.635 0 1.229.042 1.865.084 1.229.042 1.568 1.102.635 1.865-2.416 1.992-3.899 4.238-4.79 7.248-.211.763-1.016.763-1.228 0-.89-3.01-2.374-5.256-4.79-7.248-.932-.763-.593-1.823.636-1.865.636 0 1.23-.042 1.865-.085z"/><path stroke="#000" stroke-linecap="round" stroke-linejoin="round" d="M157.372 135.12s-.254 0-.17-.127c1.314-1.653 2.84-2.839 4.79-3.687 4.959-2.162 4.789-9.282-.297-11.19-.848-.339-1.356 0-1.441.891-.382 4.365-1.865 7.417-5.129 10.384-2.5 2.246-3.899 4.704-4.619 8.01-3.815 13.097 13.605 21.489 21.446 10.342 2.713-3.815 3.899-7.544 3.899-12.249 0-5.129-1.186-9.409-3.814-13.775-2.501-4.153-3.645-8.222-3.645-13.097 0-4.874 3.941-8.222 8.561-7.798 3.645.339 2.204 5.891-1.144 4.45-.89-.381-1.653-.848-2.374-1.526-.381-.339-.678-.296-.932.085-1.865 2.628-2.119 4.832-.933 7.841.085.212.212.297.382.382 4.238 1.398 6.739.466 9.113-3.349.169-.254.551-.042.381.212-1.695 3.264-3.73 4.535-7.375 4.578-1.356 0-1.907.593-1.865 1.949 0 1.314.085 2.628.255 3.9 0 .296.127.508.381.678a9.3 9.3 0 0 0 2.585 1.526c.297.127.509.127.806 0 4.577-1.908 6.993-4.578 8.392-9.325.042-.212.339-.127.296.085-1.059 4.154-3.009 6.824-6.611 9.155-2.077 1.314-2.713 2.755-2.289 5.171.466 2.797 1.653 4.577 3.984 6.188.509.339.932.169.975-.466.424-4.408 1.78-8.096 4.281-11.783 2.543-3.73 3.687-7.417 3.687-11.953a12.7 12.7 0 0 0-12.715-12.715 12.7 12.7 0 0 0-12.715 12.715c0 4.832 1.101 8.901 3.602 13.012 2.67 4.451 3.857 8.816 3.857 13.987 0 3.137-.678 5.849-2.119 8.646-1.102 2.12-2.501 3.264-4.832 3.857-3.052.806-4.832.043-6.315-2.755-2.331-4.323 5.764-5.637 4.916-.805-.169.975.297 1.441 1.272 1.229 2.967-.72 4.832-3.729 4.069-6.696-.043-.212-.127-.339-.339-.424-3.01-1.484-5.425-1.526-8.477-.127-.254.127-.424-.212-.17-.339 2.713-1.441 5.044-1.653 7.969-.806.254.085.381 0 .508-.212a12.9 12.9 0 0 0 1.568-4.831c0-.255 0-.509-.169-.721-.551-.848-1.144-1.568-1.907-2.204a1.04 1.04 0 0 0-.679-.254c-3.856-.085-6.442 1.059-8.943 3.941zM157.372 56.88s-.254 0-.17.127c1.314 1.653 2.84 2.84 4.79 3.687 4.959 2.162 4.789 9.282-.297 11.19-.848.338-1.356 0-1.441-.89-.382-4.366-1.865-7.418-5.129-10.385-2.5-2.246-3.899-4.704-4.619-8.01-3.815-13.097 13.605-21.49 21.446-10.342 2.713 3.815 3.899 7.544 3.899 12.249 0 5.128-1.186 9.41-3.814 13.775-2.501 4.153-3.645 8.222-3.645 13.096s3.941 8.223 8.561 7.8c3.645-.34 2.204-5.892-1.144-4.451-.89.381-1.653.847-2.374 1.526-.381.339-.678.296-.932-.085-1.865-2.628-2.119-4.832-.933-7.841.085-.212.212-.297.382-.382 4.238-1.398 6.739-.466 9.113 3.349.169.254.551.042.381-.212-1.695-3.264-3.73-4.535-7.375-4.578-1.356 0-1.907-.593-1.865-1.95 0-1.313.085-2.627.255-3.899 0-.296.127-.508.381-.678a9.3 9.3 0 0 1 2.585-1.526c.297-.127.509-.127.806 0 4.577 1.908 6.993 4.578 8.392 9.325.042.212.339.127.296-.085-1.059-4.154-3.009-6.824-6.611-9.155-2.077-1.314-2.713-2.755-2.289-5.17.466-2.798 1.653-4.578 3.984-6.189.509-.339.932-.17.975.466.424 4.408 1.78 8.096 4.281 11.783 2.543 3.73 3.687 7.417 3.687 11.953a12.7 12.7 0 0 1-12.715 12.715 12.7 12.7 0 0 1-12.715-12.716c0-4.831 1.101-8.9 3.602-13.011 2.67-4.45 3.857-8.816 3.857-13.987 0-3.137-.678-5.85-2.119-8.647-1.102-2.119-2.501-3.263-4.832-3.856-3.052-.806-4.832-.043-6.315 2.755-2.331 4.323 5.764 5.636 4.916.805-.169-.975.297-1.441 1.272-1.23 2.967.721 4.832 3.73 4.069 6.697-.043.212-.127.34-.339.424-3.01 1.484-5.425 1.526-8.477.127-.254-.127-.424.212-.17.34 2.713 1.44 5.044 1.652 7.969.805.254-.085.381 0 .508.212a12.9 12.9 0 0 1 1.568 4.831c0 .255 0 .509-.169.72-.551.849-1.144 1.57-1.907 2.205a1.04 1.04 0 0 1-.679.254c-3.856.085-6.442-1.06-8.943-3.941zM56.88 157.372s0-.254.127-.169c1.653 1.314 2.84 2.84 3.688 4.789 2.161 4.959 9.282 4.79 11.189-.297.339-.847 0-1.356-.89-1.441-4.366-.381-7.417-1.864-10.384-5.128-2.247-2.501-4.705-3.899-8.01-4.62-13.098-3.814-21.49 13.605-10.343 21.446 3.815 2.713 7.545 3.9 12.25 3.9 5.128 0 9.409-1.187 13.774-3.815 4.154-2.5 8.223-3.645 13.097-3.645s8.222 3.942 7.799 8.562c-.34 3.645-5.892 2.204-4.45-1.145.38-.89.847-1.653 1.525-2.373.34-.382.297-.678-.085-.933-2.627-1.864-4.831-2.119-7.84-.932-.213.085-.297.212-.382.381-1.399 4.239-.466 6.74 3.348 9.113.254.17.043.551-.212.381-3.263-1.695-4.535-3.729-4.577-7.374 0-1.357-.594-1.908-1.95-1.865-1.314 0-2.628.085-3.9.254-.296 0-.508.127-.677.381a9.3 9.3 0 0 0-1.526 2.586c-.127.297-.127.509 0 .805 1.907 4.578 4.577 6.994 9.324 8.392.212.043.127.339-.084.297-4.154-1.06-6.824-3.009-9.155-6.612-1.314-2.077-2.755-2.713-5.171-2.289-2.798.467-4.578 1.653-6.188 3.984-.34.509-.17.933.466.975 4.408.424 8.095 1.78 11.783 4.281 3.73 2.543 7.417 3.687 11.952 3.687a12.7 12.7 0 0 0 12.715-12.715c0-7.036-5.68-12.715-12.715-12.715-4.832 0-8.9 1.102-13.012 3.603-4.45 2.67-8.816 3.857-13.987 3.857-3.136 0-5.849-.679-8.646-2.12-2.12-1.102-3.264-2.5-3.857-4.831-.805-3.052-.042-4.832 2.755-6.316 4.323-2.331 5.637 5.765.805 4.917-.975-.17-1.44.297-1.229 1.271.72 2.967 3.73 4.832 6.697 4.069.212-.042.339-.127.424-.339 1.483-3.009 1.525-5.425.127-8.477-.127-.254.212-.423.339-.169 1.44 2.712 1.653 5.044.805 7.968-.085.254 0 .382.212.509a13 13 0 0 0 4.832 1.568c.254 0 .508 0 .72-.17.848-.551 1.569-1.144 2.204-1.907a1.04 1.04 0 0 0 .255-.678c.084-3.857-1.06-6.442-3.942-8.943z"/><path stroke="#000" stroke-linecap="round" stroke-linejoin="round" d="M135.12 157.372s0-.254-.127-.169c-1.653 1.314-2.839 2.84-3.687 4.789-2.162 4.959-9.282 4.79-11.19-.297-.339-.847 0-1.356.891-1.441 4.365-.381 7.417-1.864 10.384-5.128 2.246-2.501 4.704-3.899 8.01-4.62 13.097-3.814 21.489 13.605 10.342 21.446-3.815 2.713-7.544 3.9-12.249 3.9-5.129 0-9.409-1.187-13.775-3.815-4.153-2.5-8.222-3.645-13.097-3.645-4.874 0-8.222 3.942-7.798 8.562.339 3.645 5.891 2.204 4.45-1.145-.381-.89-.848-1.653-1.526-2.373-.339-.382-.296-.678.085-.933 2.628-1.864 4.832-2.119 7.841-.932.212.085.297.212.382.381 1.398 4.239.466 6.74-3.349 9.113-.254.17-.042.551.212.381 3.264-1.695 4.535-3.729 4.578-7.374 0-1.357.593-1.908 1.949-1.865 1.314 0 2.628.085 3.9.254.296 0 .508.127.678.381a9.3 9.3 0 0 1 1.526 2.586c.127.297.127.509 0 .805-1.908 4.578-4.578 6.994-9.325 8.392-.212.043-.127.339.085.297 4.154-1.06 6.824-3.009 9.155-6.612 1.314-2.077 2.755-2.713 5.171-2.289 2.797.467 4.577 1.653 6.188 3.984.339.509.169.933-.466.975-4.408.424-8.096 1.78-11.783 4.281-3.73 2.543-7.417 3.687-11.953 3.687a12.7 12.7 0 0 1-12.715-12.715c0-7.036 5.68-12.715 12.715-12.715 4.832 0 8.901 1.102 13.012 3.603 4.451 2.67 8.816 3.857 13.987 3.857 3.137 0 5.849-.679 8.646-2.12 2.12-1.102 3.264-2.5 3.857-4.831.806-3.052.043-4.832-2.755-6.316-4.323-2.331-5.637 5.765-.805 4.917.975-.17 1.441.297 1.229 1.271-.72 2.967-3.729 4.832-6.696 4.069-.212-.042-.339-.127-.424-.339-1.484-3.009-1.526-5.425-.127-8.477.127-.254-.212-.423-.339-.169-1.441 2.712-1.653 5.044-.806 7.968.085.254 0 .382-.212.509a13 13 0 0 1-4.831 1.568c-.255 0-.509 0-.721-.17-.848-.551-1.568-1.144-2.204-1.907a1.04 1.04 0 0 1-.254-.678c-.085-3.857 1.059-6.442 3.941-8.943zM34.628 56.88s.254 0 .17.127c-1.315 1.653-2.84 2.84-4.79 3.687-4.959 2.162-4.79 9.282.297 11.19.847.338 1.356 0 1.44-.89.382-4.366 1.866-7.418 5.13-10.385 2.5-2.246 3.899-4.704 4.62-8.01 3.814-13.097-13.606-21.49-21.447-10.342-2.713 3.815-3.9 7.544-3.9 12.249 0 5.128 1.187 9.41 3.815 13.775 2.5 4.153 3.645 8.222 3.645 13.096s-3.942 8.223-8.561 7.8c-3.646-.34-2.205-5.892 1.144-4.451.89.381 1.653.847 2.373 1.526.382.339.678.296.933-.085 1.865-2.628 2.119-4.832.932-7.841-.084-.212-.212-.297-.381-.382-4.239-1.398-6.74-.466-9.113 3.349-.17.254-.55.042-.381-.212 1.695-3.264 3.73-4.535 7.375-4.578 1.356 0 1.907-.593 1.865-1.95a30 30 0 0 0-.255-3.899c0-.296-.127-.508-.381-.678a9.3 9.3 0 0 0-2.586-1.526c-.296-.127-.508-.127-.805 0-4.577 1.908-6.993 4.578-8.392 9.325-.042.212-.34.127-.297-.085 1.06-4.154 3.01-6.824 6.612-9.155 2.077-1.314 2.713-2.755 2.289-5.17-.466-2.798-1.653-4.578-3.984-6.189-.509-.339-.933-.17-.975.466-.424 4.408-1.78 8.096-4.28 11.783-2.544 3.73-3.688 7.417-3.688 11.953 0 7.035 5.68 12.715 12.715 12.715s12.715-5.68 12.715-12.716c0-4.831-1.102-8.9-3.602-13.011-2.67-4.45-3.857-8.816-3.857-13.987 0-3.137.678-5.85 2.119-8.647 1.102-2.119 2.5-3.263 4.832-3.856 3.051-.806 4.831-.043 6.315 2.755 2.331 4.323-5.764 5.636-4.917.805.17-.975-.296-1.441-1.271-1.23-2.967.721-4.832 3.73-4.07 6.697.043.212.128.34.34.424 3.01 1.484 5.425 1.526 8.477.127.254-.127.424.212.17.34-2.713 1.44-5.044 1.652-7.969.805-.254-.085-.381 0-.508.212a13 13 0 0 0-1.569 4.831c0 .255 0 .509.17.72.55.849 1.144 1.57 1.907 2.205.212.17.424.254.678.254 3.857.085 6.443-1.06 8.943-3.941zM34.628 135.12s.254 0 .17-.127c-1.315-1.653-2.84-2.839-4.79-3.687-4.959-2.162-4.79-9.282.297-11.19.847-.339 1.356 0 1.44.891.382 4.365 1.866 7.417 5.13 10.384 2.5 2.246 3.899 4.704 4.62 8.01 3.814 13.097-13.606 21.489-21.447 10.342-2.713-3.815-3.9-7.544-3.9-12.249 0-5.129 1.187-9.409 3.815-13.775 2.5-4.153 3.645-8.222 3.645-13.097 0-4.874-3.942-8.222-8.561-7.798-3.646.339-2.205 5.891 1.144 4.45.89-.381 1.653-.848 2.373-1.526.382-.339.678-.296.933.085 1.865 2.628 2.119 4.832.932 7.841-.084.212-.212.297-.381.382-4.239 1.398-6.74.466-9.113-3.349-.17-.254-.55-.042-.381.212 1.695 3.264 3.73 4.535 7.375 4.578 1.356 0 1.907.593 1.865 1.949 0 1.314-.085 2.628-.255 3.9 0 .296-.127.508-.381.678a9.3 9.3 0 0 1-2.586 1.526c-.296.127-.508.127-.805 0-4.577-1.908-6.993-4.578-8.392-9.325-.042-.212-.34-.127-.297.085 1.06 4.154 3.01 6.824 6.612 9.155 2.077 1.314 2.713 2.755 2.289 5.171-.466 2.797-1.653 4.577-3.984 6.188-.509.339-.933.169-.975-.466-.424-4.408-1.78-8.096-4.28-11.783-2.544-3.73-3.688-7.417-3.688-11.953 0-7.035 5.68-12.715 12.715-12.715s12.715 5.68 12.715 12.715c0 4.832-1.102 8.901-3.602 13.012-2.67 4.451-3.857 8.816-3.857 13.987 0 3.137.678 5.849 2.119 8.646 1.102 2.12 2.5 3.264 4.832 3.857 3.051.806 4.831.043 6.315-2.755 2.331-4.323-5.764-5.637-4.917-.805.17.975-.296 1.441-1.271 1.229-2.967-.72-4.832-3.729-4.07-6.696.043-.212.128-.339.34-.424 3.01-1.484 5.425-1.526 8.477-.127.254.127.424-.212.17-.339-2.713-1.441-5.044-1.653-7.969-.806-.254.085-.381 0-.508-.212a13 13 0 0 1-1.569-4.831c0-.255 0-.509.17-.721.55-.848 1.144-1.568 1.907-2.204.212-.169.424-.254.678-.254 3.857-.085 6.443 1.059 8.943 3.941z"/><path stroke="#000" stroke-linecap="round" stroke-linejoin="round" d="M56.88 34.628s0 .254.127.17c1.653-1.315 2.84-2.84 3.688-4.79 2.161-4.959 9.282-4.79 11.189.297.339.847 0 1.356-.89 1.44-4.366.382-7.417 1.866-10.384 5.13-2.247 2.5-4.705 3.898-8.01 4.619-13.098 3.815-21.49-13.605-10.343-21.446 3.815-2.713 7.545-3.9 12.25-3.9 5.128 0 9.409 1.187 13.774 3.815 4.154 2.5 8.223 3.645 13.097 3.645s8.222-3.942 7.799-8.562c-.34-3.645-5.892-2.204-4.45 1.145.38.89.847 1.653 1.525 2.373.34.382.297.678-.085.933-2.627 1.865-4.831 2.119-7.84.932-.213-.085-.297-.212-.382-.381-1.399-4.239-.466-6.74 3.348-9.113.254-.17.043-.55-.212-.381-3.263 1.695-4.535 3.73-4.577 7.374 0 1.357-.594 1.908-1.95 1.865a30 30 0 0 1-3.9-.254c-.296 0-.508-.127-.677-.381a9.3 9.3 0 0 1-1.526-2.586c-.127-.296-.127-.508 0-.805 1.907-4.578 4.577-6.994 9.324-8.392.212-.043.127-.34-.084-.297-4.154 1.06-6.824 3.01-9.155 6.612-1.314 2.077-2.755 2.713-5.171 2.289-2.798-.466-4.578-1.653-6.188-3.984-.34-.509-.17-.933.466-.975 4.408-.424 8.095-1.78 11.783-4.28 3.73-2.544 7.417-3.688 11.952-3.688 7.036 0 12.715 5.68 12.715 12.715s-5.68 12.715-12.715 12.715c-4.832 0-8.9-1.102-13.012-3.603-4.45-2.67-8.816-3.857-13.987-3.857-3.136 0-5.849.679-8.646 2.12-2.12 1.102-3.264 2.5-3.857 4.832-.805 3.051-.042 4.831 2.755 6.315 4.323 2.33 5.637-5.765.805-4.917-.975.17-1.44-.296-1.229-1.271.72-2.967 3.73-4.832 6.697-4.07.212.043.339.128.424.34 1.483 3.01 1.525 5.425.127 8.477-.127.254.212.424.339.17 1.44-2.713 1.653-5.044.805-7.969-.085-.254 0-.381.212-.509a13 13 0 0 1 4.832-1.568c.254 0 .508 0 .72.17.848.55 1.569 1.144 2.204 1.907.17.212.255.424.255.678.084 3.857-1.06 6.442-3.942 8.943zM135.12 34.628s0 .254-.127.17c-1.653-1.315-2.839-2.84-3.687-4.79-2.162-4.959-9.282-4.79-11.19.297-.339.847 0 1.356.891 1.44 4.365.382 7.417 1.866 10.384 5.13 2.246 2.5 4.704 3.898 8.01 4.619 13.097 3.815 21.489-13.605 10.342-21.446-3.815-2.713-7.544-3.9-12.249-3.9-5.129 0-9.409 1.187-13.775 3.815-4.153 2.5-8.222 3.645-13.097 3.645-4.874 0-8.222-3.942-7.798-8.562.339-3.645 5.891-2.204 4.45 1.145-.381.89-.848 1.653-1.526 2.373-.339.382-.296.678.085.933 2.628 1.865 4.832 2.119 7.841.932.212-.085.297-.212.382-.381 1.398-4.239.466-6.74-3.349-9.113-.254-.17-.042-.55.212-.381 3.264 1.695 4.535 3.73 4.578 7.374 0 1.357.593 1.908 1.949 1.865 1.314 0 2.628-.084 3.9-.254.296 0 .508-.127.678-.381a9.3 9.3 0 0 0 1.526-2.586c.127-.296.127-.508 0-.805-1.908-4.578-4.578-6.994-9.325-8.392-.212-.043-.127-.34.085-.297 4.154 1.06 6.824 3.01 9.155 6.612 1.314 2.077 2.755 2.713 5.171 2.289 2.797-.466 4.577-1.653 6.188-3.984.339-.509.169-.933-.466-.975-4.408-.424-8.096-1.78-11.783-4.28-3.73-2.544-7.417-3.688-11.953-3.688a12.7 12.7 0 0 0-12.715 12.715c0 7.036 5.68 12.715 12.715 12.715 4.832 0 8.901-1.102 13.012-3.603 4.451-2.67 8.816-3.857 13.987-3.857 3.137 0 5.849.679 8.646 2.12 2.12 1.102 3.264 2.5 3.857 4.832.806 3.051.043 4.831-2.755 6.315-4.323 2.33-5.637-5.765-.805-4.917.975.17 1.441-.296 1.229-1.271-.72-2.967-3.729-4.832-6.696-4.07-.212.043-.339.128-.424.34-1.484 3.01-1.526 5.425-.127 8.477.127.254-.212.424-.339.17-1.441-2.713-1.653-5.044-.806-7.969.085-.254 0-.381-.212-.509a13 13 0 0 0-4.831-1.568c-.255 0-.509 0-.721.17-.848.55-1.568 1.144-2.204 1.907a1.04 1.04 0 0 0-.254.678c-.085 3.857 1.059 6.442 3.941 8.943z"/><circle cx="135.12" cy="34.797" r=".212" fill="#000"/><path stroke="#000" stroke-linecap="round" stroke-linejoin="round" d="M96 191.788c52.902 0 95.788-42.886 95.788-95.788S148.902.212 96 .212.212 43.098.212 96 43.098 191.788 96 191.788"/><path stroke="#000" stroke-linecap="round" stroke-linejoin="round" d="M147.539 47.428c1.06-1.06 1.06-1.95 0-3.01-1.059-1.06-1.949-1.06-3.009 0s-1.06 1.95 0 3.01 1.95 1.06 3.009 0M166.781 98.12c1.484 0 2.12-.636 2.12-2.12s-.636-2.12-2.12-2.12-2.119.637-2.119 2.12.636 2.12 2.119 2.12M144.572 147.539c1.06 1.06 1.95 1.06 3.009 0 1.06-1.06 1.06-1.95 0-3.009-1.059-1.06-1.949-1.06-3.009 0-1.06 1.059-1.06 1.949 0 3.009M93.88 166.782c0 1.483.637 2.119 2.12 2.119s2.12-.636 2.12-2.119-.636-2.12-2.12-2.12-2.12.636-2.12 2.12M44.46 144.572c-1.059 1.06-1.059 1.95 0 3.01 1.06 1.059 1.95 1.059 3.01 0 1.06-1.06 1.06-1.95 0-3.01s-1.95-1.059-3.01 0M25.219 93.88c-1.484 0-2.12.637-2.12 2.12s.636 2.12 2.12 2.12 2.119-.636 2.119-2.12-.636-2.12-2.12-2.12M47.428 44.461c-1.06-1.06-1.95-1.06-3.01 0s-1.059 1.95 0 3.01c1.06 1.059 1.95 1.059 3.01 0 1.06-1.06 1.06-1.95 0-3.01M98.12 25.219c0-1.484-.636-2.12-2.12-2.12s-2.12.636-2.12 2.12.637 2.119 2.12 2.119 2.12-.636 2.12-2.12"/><path stroke="#000" stroke-linecap="round" stroke-linejoin="round" d="M96 162.119c36.517 0 66.119-29.602 66.119-66.12 0-36.516-29.602-66.118-66.119-66.118S29.88 59.483 29.88 96 59.484 162.119 96 162.119"/><path stroke="#000" stroke-linecap="round" stroke-linejoin="round" d="M86.124 75.444v45.224c2.162.296 4.28.762 6.358 1.356V71.078l-6.358 4.323zM64 90.575c4.747 2.077 8.392 4.959 11.528 9.112V82.734c-3.857 2.628-7.671 5.255-11.528 7.883zM94.814 69.51l5.679-3.9 14.919 19.158-20.598 13.606z"/><path stroke="#000" stroke-linecap="round" stroke-linejoin="round" d="m130.458 127.534-6.061-16.911c-3.094-8.647-7.841-14.114-15.936-18.438a5893 5893 0 0 1 17.081-11.316c-6.019-7.714-11.995-15.386-18.014-23.1-7.12 4.875-14.283 9.749-21.404 14.623.127-8.053-6.357-14.622-14.41-14.622-6.951 0-11.783 2.119-16.53 7.205.55.466 1.144.975 1.695 1.44 6.994-6.738 18.65-1.737 18.65 7.97v5.255c-3.561 2.416-7.121 4.874-10.681 7.29a51.6 51.6 0 0 1-9.664 5.17v2.12c12.885 1.653 21.913 13.52 20.132 26.363-10.257 1.398-17.038 5.383-23.226 13.69.466.508.932.975 1.44 1.483 4.917-4.577 9.919-6.696 16.615-6.993 10.47-.466 19.243 1.695 28.313 6.993 4.535-3.814 9.028-7.629 13.563-11.443a54 54 0 0 1-1.483-1.781l-5.977 5.044a43.5 43.5 0 0 0-9.663-4.747v-21.616c1.187-.805 2.373-1.568 3.56-2.373 8.858 2.246 13.563 6.527 16.657 15.131 2.585 7.248 5.213 14.495 7.799 21.785 5.425-3.687 10.85-7.332 16.275-11.02-.466-.678-.932-1.398-1.399-2.076-2.415 1.61-4.831 3.263-7.205 4.874z"/></g><defs><clipPath id="a"><path fill="#fff" d="M0 0h192v192H0z"/></clipPath></defs></svg>