<svg xmlns="http://www.w3.org/2000/svg" width="182" height="32" fill="none"><g fill="#000" clip-path="url(#a)"><path d="M153.614 23.674h6.906v-.654a5 5 0 0 1-1.577-.272c-.163-.054-.326-.217-.435-.38a2.2 2.2 0 0 1-.163-.817v-6.857c0-2.612-2.121-4.68-4.731-4.68-1.957 0-3.752 1.034-4.676 2.72v-2.557h-.653l-4.078.49.109.653 2.12-.272V21.55c0 .272 0 .544-.163.816a.62.62 0 0 1-.435.381c-.543.218-1.087.272-1.631.272v.708h6.906v-.708c-.544 0-1.033-.108-1.523-.272-.163-.054-.326-.217-.435-.38a2.2 2.2 0 0 1-.163-.817v-6.857a3.413 3.413 0 0 1 3.426-3.429 3.413 3.413 0 0 1 3.426 3.429v6.857c0 .272 0 .544-.163.816a.62.62 0 0 1-.435.381 5 5 0 0 1-1.577.272v.654zM178.737 5.932a3.273 3.273 0 0 0-3.262 3.265 3.273 3.273 0 0 0 3.262 3.266A3.273 3.273 0 0 0 182 9.197a3.274 3.274 0 0 0-3.263-3.265m0 6.259c-1.631 0-2.991-1.36-2.991-2.994 0-1.632 1.36-2.993 2.991-2.993s2.991 1.36 2.991 2.993-1.359 2.994-2.991 2.994"/><path d="M180.641 10.83s-.381 0-.489-.218l-.599-.98s-.272-.326-.489-.435a.92.92 0 0 0 .707-.87c0-.545-.435-.926-1.033-.926h-1.468v.11s.38.162.38.435v2.503s-.163.435-.38.435v.11h1.196v-.11h-.272s-.054 0-.054-.054V9.415h.38c.272 0 .544.163.653.38l.544.926s.271.272.435.327.38 0 .543-.055zm-2.175-1.687h-.381V7.565h.381s.435.108.544.217a.84.84 0 0 1 .217.545.84.84 0 0 1-.217.544.7.7 0 0 1-.544.217zM168.514 10.122c-4.187.545-6.852 3.755-6.363 7.837.49 4.082 3.807 6.585 8.048 6.095 4.187-.544 6.852-3.755 6.362-7.836-.489-4.082-3.806-6.585-8.047-6.096m1.631 13.225c-2.665.326-4.84-2.068-5.275-5.714s1.088-6.531 3.752-6.857c2.665-.327 4.84 2.068 5.275 5.714.435 3.7-1.088 6.53-3.752 6.857M142.577 21.769c0 .598-.272.98-.707.98s-.706-.436-.706-.98v-6.803a4.876 4.876 0 0 0-4.894-4.898 4.884 4.884 0 0 0-4.731 3.7l.598.164c.653-1.524 2.175-2.558 3.806-2.558 1.577 0 2.665 1.306 2.665 3.156v1.089a54 54 0 0 0-5.22 1.905c-1.414.653-2.23 1.85-2.23 3.265 0 1.905 1.632 3.265 3.915 3.265 1.523 0 2.882-.707 3.589-1.904.218 1.251 1.414 2.122 2.665 1.904 1.087-.217 1.903-1.143 1.903-2.285zm-3.969-1.633c0 1.47-.979 2.503-2.393 2.503s-2.392-1.034-2.392-2.503c0-.98.489-1.796 1.359-2.231a24 24 0 0 1 3.426-1.415zM90.537 22.966a2.97 2.97 0 0 1-3.045-1.36l-3.643-6.096c-.707-1.143-1.74-2.068-3.046-2.558 2.72-.816 4.296-2.884 4.296-5.333 0-3.32-2.664-5.66-6.362-5.66h-8.972v.653c1.305 0 2.23 1.034 2.23 2.558v15.347c0 1.47-.925 2.503-2.23 2.503h-.109v.708h7.395v-.653a5 5 0 0 1-1.576-.273c-.163-.054-.327-.217-.435-.38a2.2 2.2 0 0 1-.164-.817V13.66h2.175c1.686 0 3.209.87 4.079 2.34l3.262 5.714c1.251 2.231 4.079 2.939 6.308 1.687l-.217-.38zM77.323 12.57h-2.392V2.775h2.392a4.876 4.876 0 0 1 4.894 4.898 4.875 4.875 0 0 1-4.894 4.898M98.367 10.122c-4.187.545-6.851 3.755-6.362 7.837.49 4.082 3.806 6.585 8.048 6.095 4.187-.544 6.851-3.755 6.362-7.836s-3.806-6.585-8.048-6.096m1.631 13.225c-2.664.326-4.84-2.068-5.274-5.714s1.087-6.531 3.752-6.857 4.839 2.068 5.274 5.714c.435 3.7-1.087 6.53-3.752 6.857M114.246.272c-2.447.708-3.97 3.211-3.97 6.313v3.32c-.543.326-1.196.599-1.848.707v.49h1.848v10.34c0 .272 0 .544-.163.817a.62.62 0 0 1-.435.38c-.544.218-1.087.273-1.631.273v.707h6.906v-.707c-.544 0-1.033-.11-1.523-.272-.163-.055-.326-.218-.435-.381a2.2 2.2 0 0 1-.163-.817v-10.34h3.208v-.87h-3.208V3.32c0-1.578 1.033-2.667 2.556-2.667 1.522 0 2.555 1.089 2.555 2.667v1.034h.707l1.197-3.32a6.73 6.73 0 0 0-5.492-.762zM117.836 10.558l.109.653 2.12-.272v10.503c0 .272 0 .544-.163.817a.62.62 0 0 1-.435.38c-.544.218-1.087.273-1.631.273v.707h6.906v-.707c-.544 0-1.033-.11-1.523-.272-.163-.055-.326-.218-.435-.381a2.2 2.2 0 0 1-.163-.817v-6.04c0-.327 0-.6.109-.926.489-1.687 2.284-2.666 3.969-2.177l2.175.653.599-2.068a4.514 4.514 0 0 0-6.308.98c-.218.326-.435.653-.544 1.034v-2.884h-.652l-4.079.49zM.272 29.823c1.577 1.197 3.86.925 5.057-.707.49-.653.761-1.415.761-2.177V5.116c0-1.47-.924-2.558-2.284-2.558v-.653h7.396v.653c-1.305 0-2.23 1.034-2.23 2.558v21.823c0 1.524-.652 2.939-1.849 3.864-2.12 1.796-5.329 1.47-7.123-.653zM19.031 10.122c-4.187.545-6.851 3.755-6.362 7.837.49 4.082 3.807 6.585 8.048 6.095 4.187-.544 6.851-3.755 6.362-7.836-.49-4.082-3.806-6.585-8.048-6.096m1.632 13.225c-2.665.326-4.84-2.068-5.275-5.714-.435-3.701 1.088-6.531 3.752-6.857s4.84 2.068 5.275 5.714c.434 3.646-1.088 6.53-3.752 6.857M55.192 9.905c2.61 0 4.676 2.122 4.73 4.68v6.857c0 .272 0 .544.164.817a.62.62 0 0 0 .435.38 5 5 0 0 0 1.577.273v.653h-6.906v-.653a5 5 0 0 0 1.577-.272c.163-.055.326-.218.435-.381q.163-.41.163-.817v-6.857a3.413 3.413 0 0 0-3.426-3.429 3.413 3.413 0 0 0-3.425 3.43v6.856c0 .272 0 .544.163.817a.62.62 0 0 0 .435.38c.49.164 1.033.273 1.522.273v.707H45.73v-.707c.544 0 1.142-.11 1.632-.272.163-.055.326-.218.435-.381q.163-.41.163-.817V10.94l-2.12.272-.11-.653 4.024-.49h.653v2.558c.979-1.687 2.773-2.721 4.676-2.721M45.079 23.674v-.654a5 5 0 0 1-1.577-.272c-.163-.054-.327-.217-.435-.38a2.2 2.2 0 0 1-.163-.817v-6.857c0-2.612-2.121-4.68-4.731-4.68-1.958 0-3.752 1.034-4.677 2.72V0h-.652l-4.078.49.108.653L30.995.87v20.571c0 .272 0 .544-.163.817a.62.62 0 0 1-.435.38c-.544.218-1.088.273-1.631.273v.707h6.906v-.707c-.544 0-1.034-.11-1.523-.272-.163-.055-.326-.218-.435-.381a2.2 2.2 0 0 1-.163-.817v-6.857a3.413 3.413 0 0 1 3.426-3.429 3.413 3.413 0 0 1 3.425 3.429v6.857c0 .272 0 .544-.163.817a.62.62 0 0 1-.435.38 5 5 0 0 1-1.577.273v.653h6.906z"/></g><defs><clipPath id="a"><path fill="#fff" d="M0 0h182v32H0z"/></clipPath></defs></svg>