<svg width="16" height="16" viewBox="0 0 16 16" fill="none" xmlns="http://www.w3.org/2000/svg">
<path fill-rule="evenodd" clip-rule="evenodd" d="M2.66667 0C1.19401 0 0 1.19393 0 2.66667V13.3333C0 14.8061 1.19401 16 2.66667 16H13.3333C14.806 16 16 14.8061 16 13.3333V2.66667C16 1.19393 14.806 0 13.3333 0H2.66667ZM13.6602 12.9733C14.0332 12.72 14.4134 12.46 14.7933 12.2067H14.8135C14.8867 12.3133 14.96 12.4267 15.0332 12.5334C14.5996 12.8282 14.166 13.1213 13.7321 13.4145C13.3125 13.698 12.8929 13.9815 12.4733 14.2667C12.2396 13.6075 12.0036 12.9505 11.7679 12.2945C11.5938 11.8093 11.4196 11.3246 11.2467 10.84C10.7601 9.48665 10.0199 8.81331 8.62663 8.45996C8.4401 8.58667 8.25326 8.70671 8.06673 8.83333V12.2333C8.60677 12.42 9.10677 12.6667 9.58659 12.98L10.5267 12.1867C10.5999 12.28 10.68 12.3734 10.7601 12.4666C10.0465 13.0667 9.33984 13.6667 8.62663 14.2667C7.19987 13.4334 5.81999 13.0933 4.17318 13.1667C3.12012 13.2133 2.33333 13.5466 1.5599 14.2667C1.48014 14.1867 1.40658 14.1134 1.33333 14.0334C2.30664 12.7266 3.37337 12.1 4.98665 11.88C5.2666 9.86003 3.84668 7.99333 1.81999 7.73332V7.39998C2.36003 7.18001 2.86003 6.91333 3.33984 6.58667C3.90007 6.20671 4.45996 5.81999 5.01986 5.44002V4.61336C5.01986 3.08667 3.18652 2.29997 2.08659 3.36003L1.81999 3.1333C2.5599 2.33333 3.31999 2 4.41992 2C5.68652 2 6.70671 3.03337 6.68652 4.29997L10.0534 2L12.8867 5.6333C11.9867 6.22664 11.0934 6.81999 10.1999 7.41333C11.4733 8.09334 12.2201 8.95337 12.7067 10.3133L13.6602 12.9733ZM3.20671 7.15999C3.95996 7.49333 4.52669 7.94002 5.01986 8.59334V5.92L4.13542 6.52498C3.8265 6.73665 3.51758 6.94832 3.20671 7.15999ZM6.68652 11.9C7.02669 11.9467 7.36003 12.02 7.68652 12.1134V4.10669L6.68652 4.7867V11.9ZM8.05339 3.85335V8.39331L11.2933 6.24666L8.94661 3.23999L8.05339 3.85335Z" fill="black"/>
</svg>
