<svg xmlns="http://www.w3.org/2000/svg" width="16" height="16" viewBox="0 0 16 16" fill="none">
  <path fill="#000" fill-rule="evenodd" d="M2.667 0A2.667 2.667 0 0 0 0 2.667v10.666A2.667 2.667 0 0 0 2.667 16h10.666A2.667 2.667 0 0 0 16 13.333V2.667A2.667 2.667 0 0 0 13.333 0zM13.66 12.973c.373-.253.753-.513 1.133-.766h.02c.074.106.147.22.22.326q-.65.442-1.3.882l-1.26.852q-.351-.989-.705-1.973l-.521-1.454c-.487-1.353-1.227-2.027-2.62-2.38-.187.127-.374.247-.56.373v3.4c.54.187 1.04.434 1.52.747l.94-.793q.111.14.233.28c-.713.6-1.42 1.2-2.133 1.8-1.427-.834-2.807-1.174-4.454-1.1-1.053.046-1.84.38-2.613 1.1-.08-.08-.153-.154-.227-.234.974-1.306 2.04-1.933 3.654-2.153A3.67 3.67 0 0 0 1.82 7.733V7.4a8 8 0 0 0 1.52-.813c.56-.38 1.12-.767 1.68-1.147v-.827c0-1.526-1.833-2.313-2.933-1.253l-.267-.227C2.56 2.333 3.32 2 4.42 2a2.264 2.264 0 0 1 2.267 2.3L10.053 2l2.834 3.633q-1.349.89-2.687 1.78c1.273.68 2.02 1.54 2.507 2.9zM3.207 7.16c.753.333 1.32.78 1.813 1.433V5.92l-.885.605q-.462.317-.928.635m3.48 4.74q.51.072 1 .213V4.107l-1 .68zm1.366-8.047v4.54l3.24-2.146L8.947 3.24z" clip-rule="evenodd"/>
</svg>