<?xml version="1.0" encoding="UTF-8"?>
<svg id="logo-icon-outline" xmlns="http://www.w3.org/2000/svg" version="1.1" viewBox="0 0 180 180">
  <defs>
    <style>
      .st0 {
        fill: none;
        stroke: #000;
        stroke-linecap: round;
        stroke-linejoin: round;
      }
    </style>
  </defs>
  <path class="st0" d="M149.8,26.3c2.2-.3,4.1,1.6,3.9,3.9.4.4.8.9,1.2,1.3.8.9.3,1.8-.8,1.7-3-.3-5.4.2-8,1.6-.6.4-1.2-.2-.8-.8,1.4-2.6,1.9-5.1,1.6-8-.1-1.2.8-1.6,1.7-.8.4.4.9.8,1.3,1.2M177.4,87.3c1.5,1.2,1.8,3.4.6,4.9-.2.2-.4.4-.6.6,0,.6,0,1.2,0,1.7,0,1.2-1,1.5-1.7.6-1.9-2.3-4-3.7-6.8-4.5-.7-.2-.7-1,0-1.2,2.8-.8,4.9-2.2,6.8-4.5.7-.9,1.7-.6,1.7.6,0,.6,0,1.2,0,1.7,0,0,0,0,0,0ZM153.7,149.8c.3,2.2-1.6,4.1-3.9,3.9-.4.4-.9.8-1.3,1.2-.9.8-1.8.3-1.7-.8.3-3-.2-5.4-1.6-8-.4-.6.2-1.2.8-.8,2.6,1.4,5.1,1.9,8,1.6,1.2-.1,1.6.8.8,1.7-.4.4-.8.9-1.2,1.3M92.7,177.4c-1.2,1.5-3.4,1.8-4.9.6-.2-.2-.4-.4-.6-.6-.6,0-1.2,0-1.7,0-1.2,0-1.5-1-.6-1.8,2.3-1.9,3.7-4,4.5-6.8.2-.7,1-.7,1.2,0,.8,2.8,2.2,4.9,4.5,6.8.9.7.6,1.7-.6,1.8-.6,0-1.2,0-1.7,0,0,0,0,0,0,0ZM30.2,153.7c-2.2.3-4.1-1.6-3.9-3.9-.4-.4-.8-.9-1.2-1.3-.8-.9-.3-1.8.8-1.7,3,.3,5.4-.2,8-1.6.6-.4,1.2.2.8.8-1.4,2.6-1.9,5.1-1.6,8,.1,1.2-.8,1.6-1.7.8-.4-.4-.9-.8-1.3-1.2M2.6,92.8c-1.5-1.2-1.8-3.4-.6-4.9.2-.2.4-.4.6-.6,0-.6,0-1.2,0-1.7,0-1.2,1-1.5,1.8-.6,1.9,2.3,4,3.7,6.8,4.5.7.2.7,1,0,1.2-2.8.8-4.9,2.2-6.8,4.5-.7.9-1.7.6-1.8-.6,0-.6,0-1.2,0-1.7,0,0,0,0,0,0ZM26.3,30.2c-.3-2.2,1.6-4.1,3.9-3.9.4-.4.9-.8,1.3-1.2.9-.8,1.8-.3,1.7.8-.3,3,.2,5.4,1.6,8,.4.6-.2,1.2-.8.8-2.6-1.4-5.1-1.9-8-1.6-1.2.1-1.6-.8-.8-1.7.4-.4.8-.9,1.2-1.3M87.3,2.6c1.2-1.5,3.4-1.8,4.9-.6.2.2.4.4.6.6.6,0,1.2,0,1.7,0,1.2,0,1.5,1,.6,1.8-2.3,1.9-3.7,4-4.5,6.8-.2.7-1,.7-1.2,0-.8-2.8-2.2-4.9-4.5-6.8-.9-.7-.6-1.7.6-1.8.6,0,1.2,0,1.7,0h0,0ZM147.7,126.8s-.2,0-.2-.1c1.2-1.6,2.7-2.7,4.5-3.5,4.7-2,4.5-8.7-.3-10.5-.8-.3-1.3,0-1.4.8-.4,4.1-1.8,7-4.8,9.8-2.3,2.1-3.7,4.4-4.3,7.5-3.6,12.3,12.8,20.2,20.2,9.7,2.5-3.6,3.7-7.1,3.7-11.5s-1.1-8.8-3.6-12.9c-2.3-3.9-3.4-7.7-3.4-12.3s3.7-7.7,8-7.3c3.4.3,2.1,5.5-1.1,4.2-.8-.4-1.6-.8-2.2-1.4-.4-.3-.6-.3-.9,0-1.8,2.5-2,4.5-.9,7.4,0,.2.2.3.4.4,4,1.3,6.3.4,8.6-3.1.2-.2.5,0,.4.2-1.6,3.1-3.5,4.3-6.9,4.3-1.3,0-1.8.6-1.8,1.8,0,1.2,0,2.5.2,3.7,0,.3.1.5.4.6.7.6,1.6,1.1,2.4,1.4.3.1.5.1.8,0,4.3-1.8,6.6-4.3,7.9-8.8,0-.2.3-.1.3,0-1,3.9-2.8,6.4-6.2,8.6-2,1.2-2.5,2.6-2.2,4.9.4,2.6,1.6,4.3,3.7,5.8.5.3.9.2.9-.4.4-4.1,1.7-7.6,4-11.1,2.4-3.5,3.5-7,3.5-11.2,0-6.6-5.3-11.9-11.9-12h0c-6.6,0-11.9,5.3-11.9,11.9h0c0,4.6,1,8.4,3.4,12.3,2.5,4.2,3.6,8.3,3.6,13.1s-.6,5.5-2,8.1c-1,2-2.3,3.1-4.5,3.6-2.9.8-4.5,0-5.9-2.6-2.2-4.1,5.4-5.3,4.6-.8-.2.9.3,1.4,1.2,1.2,2.8-.7,4.5-3.5,3.8-6.3,0-.2-.1-.3-.3-.4-2.8-1.4-5.1-1.4-8-.1-.2.1-.4-.2-.2-.3,2.5-1.4,4.7-1.6,7.5-.8.2,0,.4,0,.5-.2.8-1.4,1.3-2.9,1.5-4.5,0-.2,0-.5-.2-.7-.5-.8-1.1-1.5-1.8-2.1-.2-.2-.4-.2-.6-.2-3.6,0-6.1,1-8.4,3.7h0,0ZM147.7,53.2s-.2,0-.2.1c1.2,1.6,2.7,2.7,4.5,3.5,4.7,2,4.5,8.7-.3,10.5-.8.3-1.3,0-1.4-.8-.4-4.1-1.8-7-4.8-9.8-2.3-2.1-3.7-4.4-4.3-7.5-3.6-12.3,12.8-20.2,20.2-9.7,2.5,3.6,3.7,7.1,3.7,11.5s-1.1,8.8-3.6,12.9c-2.3,3.9-3.4,7.7-3.4,12.3s3.7,7.7,8,7.3c3.4-.3,2.1-5.5-1.1-4.2-.8.4-1.6.8-2.2,1.4-.4.3-.6.3-.9,0-1.8-2.5-2-4.5-.9-7.4,0-.2.2-.3.4-.4,4-1.3,6.3-.4,8.6,3.1.2.2.5,0,.4-.2-1.6-3.1-3.5-4.3-6.9-4.3-1.3,0-1.8-.6-1.8-1.8,0-1.2,0-2.5.2-3.7,0-.3.1-.5.4-.6.7-.6,1.6-1.1,2.4-1.4.3-.1.5-.1.8,0,4.3,1.8,6.6,4.3,7.9,8.8,0,.2.3.1.3,0-1-3.9-2.8-6.4-6.2-8.6-2-1.2-2.5-2.6-2.2-4.9.4-2.6,1.6-4.3,3.7-5.8.5-.3.9-.2.9.4.4,4.1,1.7,7.6,4,11.1,2.4,3.5,3.5,7,3.5,11.2,0,6.6-5.3,11.9-11.9,11.9h0c-6.6,0-11.9-5.3-11.9-11.9h0c0-4.6,1-8.4,3.4-12.3,2.5-4.2,3.6-8.3,3.6-13.1s-.6-5.5-2-8.1c-1-2-2.3-3.1-4.5-3.6-2.9-.8-4.5,0-5.9,2.6-2.2,4.1,5.4,5.3,4.6.8-.2-.9.3-1.4,1.2-1.2,2.8.7,4.5,3.5,3.8,6.3,0,.2-.1.3-.3.4-2.8,1.4-5.1,1.4-8,.1-.2-.1-.4.2-.2.3,2.5,1.4,4.7,1.6,7.5.8.2,0,.4,0,.5.2.8,1.4,1.3,2.9,1.5,4.5,0,.2,0,.5-.2.7-.5.8-1.1,1.5-1.8,2.1-.2.2-.4.2-.6.2-3.6,0-6.1-1-8.4-3.7h0,0ZM53.2,147.7s0-.2.1-.2c1.6,1.2,2.7,2.7,3.5,4.5,2,4.7,8.7,4.5,10.5-.3.3-.8,0-1.3-.8-1.4-4.1-.4-7-1.7-9.8-4.8-2.1-2.3-4.4-3.7-7.5-4.3-12.3-3.6-20.2,12.8-9.7,20.2,3.6,2.5,7.1,3.7,11.5,3.7s8.8-1.1,12.9-3.6c3.9-2.3,7.7-3.4,12.3-3.4s7.7,3.7,7.3,8c-.3,3.4-5.5,2.1-4.2-1.1.4-.8.8-1.6,1.4-2.2.3-.4.3-.6,0-.9-2.5-1.7-4.5-2-7.4-.9-.2,0-.3.2-.4.4-1.3,4-.4,6.3,3.1,8.6.2.2,0,.5-.2.4-3.1-1.6-4.3-3.5-4.3-6.9,0-1.3-.6-1.8-1.8-1.8-1.2,0-2.5,0-3.7.2-.3,0-.5.1-.6.4-.6.7-1.1,1.6-1.4,2.4-.1.3-.1.5,0,.8,1.8,4.3,4.3,6.6,8.8,7.9.2,0,.1.3,0,.3-3.9-1-6.4-2.8-8.6-6.2-1.2-2-2.6-2.5-4.9-2.2-2.6.4-4.3,1.6-5.8,3.7-.3.5-.2.9.4.9,4.1.4,7.6,1.7,11.1,4,3.5,2.4,7,3.5,11.2,3.5,6.6,0,11.9-5.3,11.9-11.9h0c0-6.6-5.3-12-11.9-12s-8.4,1-12.2,3.4c-4.2,2.5-8.3,3.6-13.1,3.6s-5.5-.6-8.1-2c-2-1-3.1-2.3-3.6-4.5-.8-2.9,0-4.5,2.6-5.9,4.1-2.2,5.3,5.4.8,4.6-.9-.2-1.4.3-1.2,1.2.7,2.8,3.5,4.5,6.3,3.8.2,0,.3-.1.4-.3,1.4-2.8,1.4-5.1.1-8-.1-.2.2-.4.3-.2,1.4,2.5,1.6,4.7.8,7.5,0,.2,0,.4.2.5,1.4.8,2.9,1.3,4.5,1.5.2,0,.5,0,.7-.2.8-.5,1.5-1.1,2.1-1.8.2-.2.2-.4.2-.6,0-3.6-1-6.1-3.7-8.4h0s0,0,0,0ZM126.8,147.7s0-.2-.1-.2c-1.6,1.2-2.7,2.7-3.5,4.5-2,4.7-8.7,4.5-10.5-.3-.3-.8,0-1.3.8-1.4,4.1-.4,7-1.7,9.8-4.8,2.1-2.3,4.4-3.7,7.5-4.3,12.3-3.6,20.2,12.8,9.7,20.2-3.6,2.5-7.1,3.7-11.5,3.7s-8.8-1.1-12.9-3.6c-3.9-2.3-7.7-3.4-12.3-3.4s-7.7,3.7-7.3,8c.3,3.4,5.5,2.1,4.2-1.1-.4-.8-.8-1.6-1.4-2.2-.3-.4-.3-.6,0-.9,2.5-1.7,4.5-2,7.4-.9.2,0,.3.2.4.4,1.3,4,.4,6.3-3.1,8.6-.2.2,0,.5.2.4,3.1-1.6,4.3-3.5,4.3-6.9,0-1.3.6-1.8,1.8-1.8,1.2,0,2.5,0,3.7.2.3,0,.5.1.6.4.6.7,1.1,1.6,1.4,2.4.1.3.1.5,0,.8-1.8,4.3-4.3,6.6-8.8,7.9-.2,0-.1.3,0,.3,3.9-1,6.4-2.8,8.6-6.2,1.2-2,2.6-2.5,4.9-2.2,2.6.4,4.3,1.6,5.8,3.7.3.5.2.9-.4.9-4.1.4-7.6,1.7-11.1,4-3.5,2.4-7,3.5-11.2,3.5-6.6,0-11.9-5.3-12-11.9h0c0-6.6,5.3-12,11.9-12s8.4,1,12.2,3.4c4.2,2.5,8.3,3.6,13.1,3.6s5.5-.6,8.1-2c2-1,3.1-2.3,3.6-4.5.8-2.9,0-4.5-2.6-5.9-4.1-2.2-5.3,5.4-.8,4.6.9-.2,1.4.3,1.2,1.2-.7,2.8-3.5,4.5-6.3,3.8-.2,0-.3-.1-.4-.3-1.4-2.8-1.4-5.1-.1-8,.1-.2-.2-.4-.3-.2-1.4,2.5-1.6,4.7-.8,7.5,0,.2,0,.4-.2.5-1.4.8-2.9,1.3-4.5,1.5-.2,0-.5,0-.7-.2-.8-.5-1.5-1.1-2.1-1.8-.2-.2-.2-.4-.2-.6,0-3.6,1-6.1,3.7-8.4h0s0,0,0,0ZM32.3,53.2s.2,0,.2.1c-1.2,1.6-2.7,2.7-4.5,3.5-4.7,2-4.5,8.7.3,10.5.8.3,1.3,0,1.4-.8.4-4.1,1.8-7,4.8-9.8,2.3-2.1,3.7-4.4,4.3-7.5,3.6-12.3-12.8-20.2-20.2-9.7-2.5,3.6-3.7,7.1-3.7,11.5s1.1,8.8,3.6,12.9c2.3,3.9,3.4,7.7,3.4,12.3s-3.7,7.7-8,7.3c-3.4-.3-2.1-5.5,1.1-4.2.8.4,1.6.8,2.2,1.4.4.3.6.3.9,0,1.7-2.5,2-4.5.9-7.4,0-.2-.2-.3-.4-.4-4-1.3-6.3-.4-8.6,3.1-.2.2-.5,0-.4-.2,1.6-3.1,3.5-4.3,6.9-4.3,1.3,0,1.8-.6,1.7-1.8,0-1.2,0-2.5-.2-3.7,0-.3-.1-.5-.4-.6-.7-.6-1.6-1.1-2.4-1.4-.3-.1-.5-.1-.8,0-4.3,1.8-6.6,4.3-7.9,8.8,0,.2-.3.1-.3,0,1-3.9,2.8-6.4,6.2-8.6,2-1.2,2.5-2.6,2.2-4.9-.4-2.6-1.6-4.3-3.7-5.8-.5-.3-.9-.2-.9.4-.4,4.1-1.7,7.6-4,11.1-2.4,3.5-3.5,7-3.5,11.2,0,6.6,5.3,11.9,11.9,11.9s12-5.3,12-12-1-8.4-3.4-12.2c-2.5-4.2-3.6-8.3-3.6-13.1s.6-5.5,2-8.1c1-2,2.3-3.1,4.5-3.6,2.9-.8,4.5,0,5.9,2.6,2.2,4.1-5.4,5.3-4.6.8.2-.9-.3-1.4-1.2-1.2-2.8.7-4.5,3.5-3.8,6.3,0,.2.1.3.3.4,2.8,1.4,5.1,1.4,8,.1.2-.1.4.2.2.3-2.5,1.4-4.7,1.6-7.5.8-.2,0-.4,0-.5.2-.8,1.4-1.3,2.9-1.5,4.5,0,.2,0,.5.2.7.5.8,1.1,1.5,1.8,2.1.2.2.4.2.6.2,3.6,0,6.1-1,8.4-3.7h0,0ZM32.3,126.8s.2,0,.2-.1c-1.2-1.6-2.7-2.7-4.5-3.5-4.7-2-4.5-8.7.3-10.5.8-.3,1.3,0,1.4.8.4,4.1,1.8,7,4.8,9.8,2.3,2.1,3.7,4.4,4.3,7.5,3.6,12.3-12.8,20.2-20.2,9.7-2.5-3.6-3.7-7.1-3.7-11.5s1.1-8.8,3.6-12.9c2.3-3.9,3.4-7.7,3.4-12.3s-3.7-7.7-8-7.3c-3.4.3-2.1,5.5,1.1,4.2.8-.4,1.6-.8,2.2-1.4.4-.3.6-.3.9,0,1.7,2.5,2,4.5.9,7.4,0,.2-.2.3-.4.4-4,1.3-6.3.4-8.6-3.1-.2-.2-.5,0-.4.2,1.6,3.1,3.5,4.3,6.9,4.3,1.3,0,1.8.6,1.7,1.8,0,1.2,0,2.5-.2,3.7,0,.3-.1.5-.4.6-.7.6-1.6,1.1-2.4,1.4-.3.1-.5.1-.8,0-4.3-1.8-6.6-4.3-7.9-8.8,0-.2-.3-.1-.3,0,1,3.9,2.8,6.4,6.2,8.6,2,1.2,2.5,2.6,2.2,4.9-.4,2.6-1.6,4.3-3.7,5.8-.5.3-.9.2-.9-.4-.4-4.1-1.7-7.6-4-11.1-2.4-3.5-3.5-7-3.5-11.2,0-6.6,5.3-12,11.9-12s12,5.3,12,11.9-1,8.4-3.4,12.2c-2.5,4.2-3.6,8.3-3.6,13.1s.6,5.5,2,8.1c1,2,2.3,3.1,4.5,3.6,2.9.8,4.5,0,5.9-2.6,2.2-4.1-5.4-5.3-4.6-.8.2.9-.3,1.4-1.2,1.2-2.8-.7-4.5-3.5-3.8-6.3,0-.2.1-.3.3-.4,2.8-1.4,5.1-1.4,8-.1.2.1.4-.2.2-.3-2.5-1.4-4.7-1.6-7.5-.8-.2,0-.4,0-.5-.2-.8-1.4-1.3-2.9-1.5-4.5,0-.2,0-.5.2-.7.5-.8,1.1-1.5,1.8-2.1.2-.2.4-.2.6-.2,3.6,0,6.1,1,8.4,3.7h0,0ZM53.2,32.3s0,.2.1.2c1.6-1.2,2.7-2.7,3.5-4.5,2-4.7,8.7-4.5,10.5.3.3.8,0,1.3-.8,1.4-4.1.4-7,1.8-9.8,4.8-2.1,2.3-4.4,3.7-7.5,4.3-12.3,3.6-20.2-12.8-9.7-20.2,3.6-2.5,7.1-3.7,11.5-3.7s8.8,1.1,12.9,3.6c3.9,2.3,7.7,3.4,12.3,3.4s7.7-3.7,7.3-8c-.3-3.4-5.5-2.1-4.2,1.1.4.8.8,1.6,1.4,2.2.3.4.3.6,0,.9-2.5,1.7-4.5,2-7.4.9-.2,0-.3-.2-.4-.4-1.3-4-.4-6.3,3.1-8.6.2-.2,0-.5-.2-.4-3.1,1.6-4.3,3.5-4.3,6.9,0,1.3-.6,1.8-1.8,1.7-1.2,0-2.5,0-3.7-.2-.3,0-.5-.1-.6-.4-.6-.7-1.1-1.6-1.4-2.4-.1-.3-.1-.5,0-.8,1.8-4.3,4.3-6.6,8.8-7.9.2,0,.1-.3,0-.3-3.9,1-6.4,2.8-8.6,6.2-1.2,2-2.6,2.5-4.9,2.2-2.6-.4-4.3-1.6-5.8-3.7-.3-.5-.2-.9.4-.9,4.1-.4,7.6-1.7,11.1-4,3.5-2.4,7-3.5,11.2-3.5,6.6,0,11.9,5.3,11.9,11.9s-5.3,11.9-11.9,11.9-8.4-1-12.2-3.4c-4.2-2.5-8.3-3.6-13.1-3.6s-5.5.6-8.1,2c-2,1-3.1,2.3-3.6,4.5-.8,2.9,0,4.5,2.6,5.9,4.1,2.2,5.3-5.4.8-4.6-.9.2-1.4-.3-1.2-1.2.7-2.8,3.5-4.5,6.3-3.8.2,0,.3.1.4.3,1.4,2.8,1.4,5.1.1,8-.1.2.2.4.3.2,1.4-2.5,1.6-4.7.8-7.5,0-.2,0-.4.2-.5,1.4-.8,2.9-1.3,4.5-1.5.2,0,.5,0,.7.2.8.5,1.5,1.1,2.1,1.8.2.2.2.4.2.6,0,3.6-1,6.1-3.7,8.4h0s0,0,0,0ZM126.8,32.3s0,.2-.1.2c-1.6-1.2-2.7-2.7-3.5-4.5-2-4.7-8.7-4.5-10.5.3-.3.8,0,1.3.8,1.4,4.1.4,7,1.8,9.8,4.8,2.1,2.3,4.4,3.7,7.5,4.3,12.3,3.6,20.2-12.8,9.7-20.2-3.6-2.5-7.1-3.7-11.5-3.7s-8.8,1.1-12.9,3.6c-3.9,2.3-7.7,3.4-12.3,3.4s-7.7-3.7-7.3-8c.3-3.4,5.5-2.1,4.2,1.1-.4.8-.8,1.6-1.4,2.2-.3.4-.3.6,0,.9,2.5,1.7,4.5,2,7.4.9.2,0,.3-.2.4-.4,1.3-4,.4-6.3-3.1-8.6-.2-.2,0-.5.2-.4,3.1,1.6,4.3,3.5,4.3,6.9,0,1.3.6,1.8,1.8,1.7,1.2,0,2.5,0,3.7-.2.3,0,.5-.1.6-.4.6-.7,1.1-1.6,1.4-2.4.1-.3.1-.5,0-.8-1.8-4.3-4.3-6.6-8.8-7.9-.2,0-.1-.3,0-.3,3.9,1,6.4,2.8,8.6,6.2,1.2,2,2.6,2.5,4.9,2.2,2.6-.4,4.3-1.6,5.8-3.7.3-.5.2-.9-.4-.9-4.1-.4-7.6-1.7-11.1-4-3.5-2.4-7-3.5-11.2-3.5-6.6,0-11.9,5.3-12,11.9h0c0,6.6,5.3,12,11.9,12s8.4-1,12.2-3.4c4.2-2.5,8.3-3.6,13.1-3.6s5.5.6,8.1,2c2,1,3.1,2.3,3.6,4.5.8,2.9,0,4.5-2.6,5.9-4.1,2.2-5.3-5.4-.8-4.6.9.2,1.4-.3,1.2-1.2-.7-2.8-3.5-4.5-6.3-3.8-.2,0-.3.1-.4.3-1.4,2.8-1.4,5.1-.1,8,.1.2-.2.4-.3.2-1.4-2.5-1.6-4.7-.8-7.5,0-.2,0-.4-.2-.5-1.4-.8-2.9-1.3-4.5-1.5-.2,0-.5,0-.7.2-.8.5-1.5,1.1-2.1,1.8-.2.2-.2.4-.2.6,0,3.6,1,6.1,3.7,8.4h0s0,0,0,0ZM126.8,32.3c.1,0,.2,0,.2.2s0,.2-.2.2-.2,0-.2-.2,0-.2.2-.2ZM90,180c49.7,0,90-40.3,90-90S139.7,0,90,0,0,40.3,0,90s40.3,90,90,90M138.4,44.4c1-1,1-1.8,0-2.8-1-1-1.8-1-2.8,0s-1,1.8,0,2.8,1.8,1,2.8,0M156.5,92c1.4,0,2-.6,2-2s-.6-2-2-2-2,.6-2,2,.6,2,2,2M135.6,138.4c1,1,1.8,1,2.8,0s1-1.8,0-2.8-1.8-1-2.8,0-1,1.8,0,2.8M88,156.5c0,1.4.6,2,2,2s2-.6,2-2-.6-2-2-2-2,.6-2,2M41.6,135.6c-1,1-1,1.8,0,2.8s1.8,1,2.8,0c1-1,1-1.8,0-2.8s-1.8-1-2.8,0M23.5,88c-1.4,0-2,.6-2,2s.6,2,2,2,2-.6,2-2-.6-2-2-2M44.4,41.6c-1-1-1.8-1-2.8,0s-1,1.8,0,2.8c1,1,1.8,1,2.8,0,1-1,1-1.8,0-2.8M92,23.5c0-1.4-.6-2-2-2s-2,.6-2,2,.6,2,2,2,2-.6,2-2M90,152.1c34.3,0,62.1-27.8,62.1-62.1s-27.8-62.1-62.1-62.1-62.1,27.8-62.1,62.1,27.8,62.1,62.1,62.1M80.7,70.7v42.5c2,.3,4,.7,6,1.3v-47.9l-6,4.1h0ZM59.9,84.9c4.5,2,7.9,4.7,10.8,8.6v-15.9c-3.6,2.5-7.2,4.9-10.8,7.4,0,0,0,0,0,0ZM88.9,65.1l5.3-3.7,14,18-19.4,12.8v-27.1h0ZM122.4,119.6l-5.7-15.9c-2.9-8.1-7.4-13.3-15-17.3,5.3-3.6,10.7-7.1,16-10.6-5.7-7.2-11.3-14.5-16.9-21.7-6.7,4.6-13.4,9.2-20.1,13.7.1-7.6-6-13.7-13.5-13.7s-11.1,2-15.5,6.8c.5.4,1.1.9,1.6,1.4,6.6-6.3,17.5-1.6,17.5,7.5v4.9c-3.3,2.3-6.7,4.6-10,6.8-2.8,1.9-5.9,3.6-9.1,4.9v2c12.1,1.6,20.6,12.7,18.9,24.8-9.6,1.3-16,5.1-21.8,12.9.4.5.9.9,1.4,1.4,4.6-4.3,9.3-6.3,15.6-6.6,9.8-.4,18.1,1.6,26.6,6.6,4.3-3.6,8.5-7.2,12.7-10.7-.5-.5-.9-1.1-1.4-1.7l-5.6,4.7c-2.8-1.9-5.9-3.4-9.1-4.5v-20.3c1.1-.8,2.2-1.5,3.3-2.2,8.3,2.1,12.7,6.1,15.7,14.2,2.4,6.8,4.9,13.6,7.3,20.5,5.1-3.5,10.2-6.9,15.3-10.4-.4-.6-.9-1.3-1.3-2-2.3,1.5-4.5,3.1-6.8,4.6h-.1,0Z"/>
</svg>