<?xml version="1.0" encoding="UTF-8"?>
<svg
  id="logo-icon-solid"
  xmlns="http://www.w3.org/2000/svg"
  version="1.1"
  viewBox="0 0 192 192"
>
  <path
    d="M124.46,110.61l6.08,16.95h.13l1.74-1.18c1.82-1.23,3.65-2.48,5.48-3.7.23.34.47.69.7,1.04.23.35.47.7.7,1.04-2.72,1.84-5.43,3.68-8.15,5.52-2.72,1.84-5.44,3.68-8.16,5.52-1.49-4.21-3-8.4-4.5-12.59-1.11-3.08-2.21-6.16-3.31-9.24-3.1-8.62-7.82-12.91-16.69-15.16-.6.4-1.19.8-1.78,1.19s-1.19.79-1.78,1.19v21.66c3.41,1.18,6.67,2.78,9.68,4.76l5.99-5.06c.48.6.98,1.2,1.49,1.78-2.27,1.91-4.53,3.82-6.8,5.73-2.26,1.91-4.53,3.83-6.8,5.74-9.09-5.31-17.88-7.48-28.38-7.01-6.71.3-11.72,2.42-16.65,7.01-.51-.51-.98-.98-1.44-1.49,6.2-8.33,13-12.32,23.28-13.72,1.78-12.87-7.26-24.76-20.18-26.42v-2.12c3.4-1.38,6.65-3.12,9.68-5.18,1.78-1.21,3.57-2.43,5.35-3.65s3.57-2.44,5.35-3.65v-5.27c0-9.73-11.68-14.74-18.69-7.99-.28-.23-.56-.48-.85-.72l-.85-.72c4.76-5.1,9.6-7.22,16.57-7.22,8.07,0,14.57,6.58,14.44,14.65,3.57-2.44,7.15-4.88,10.72-7.33,3.58-2.44,7.16-4.89,10.73-7.33,3.02,3.87,6.02,7.72,9.03,11.58,3,3.86,6.01,7.71,9.03,11.57-5.71,3.77-11.42,7.55-17.12,11.34,8.11,4.33,12.87,9.81,15.97,18.48M63.93,90.52c4.8,2.12,8.41,4.97,11.55,9.13v-17.03c-1.93,1.31-3.85,2.63-5.78,3.95-1.92,1.32-3.84,2.63-5.78,3.95M86.1,120.72c2.15.3,4.28.76,6.37,1.36v-51.02l-6.37,4.33v45.32ZM94.81,69.45v28.93l20.64-13.68-14.95-19.16-5.69,3.91ZM0,96C0,42.99,42.99,0,96,0s96,42.99,96,96-42.99,96-96,96S0,149.01,0,96M176.07,54.41c0-4.72-1.19-8.45-3.91-12.28l-.04-.04c-7.86-11.17-25.32-2.76-21.49,10.36.72,3.31,2.12,5.78,4.63,8.03,3.27,2.97,4.76,6.03,5.14,10.41.09.89.6,1.23,1.45.89,5.1-1.91,5.27-9.05.3-11.21-1.95-.85-3.48-2.04-4.8-3.7-.09-.13.09-.26.17-.13,2.51,2.89,5.1,4.04,8.96,3.95.26,0,.47-.08.68-.25.76-.64,1.36-1.36,1.91-2.21.17-.21.17-.47.17-.72-.2-1.7-.73-3.35-1.57-4.84-.13-.21-.26-.3-.51-.21-2.93.85-5.27.64-7.99-.81-.26-.13-.09-.47.17-.34,3.06,1.4,5.48,1.36,8.49-.13.21-.08.3-.21.34-.42.76-2.97-1.1-5.99-4.08-6.71-.98-.21-1.44.25-1.27,1.23.85,4.84-7.26,3.53-4.93-.81,1.49-2.8,3.27-3.57,6.33-2.76,2.34.59,3.74,1.74,4.84,3.87,1.44,2.8,2.12,5.52,2.12,8.67,0,5.18-1.19,9.56-3.87,14.02-2.51,4.16-3.61,8.24-3.61,13.08,0,7.03,5.68,12.73,12.71,12.74.01,0,.02,0,.03,0,7.03,0,12.73-5.68,12.74-12.71,0-.01,0-.02,0-.03,0-4.54-1.15-8.24-3.7-11.98-2.51-3.69-3.87-7.39-4.29-11.81-.04-.64-.47-.81-.98-.47-2.34,1.61-3.53,3.4-3.99,6.2-.43,2.42.21,3.86,2.29,5.18,3.61,2.34,5.56,5.01,6.63,9.18.04.21-.26.3-.3.08-1.4-4.76-3.82-7.43-8.41-9.35-.3-.13-.51-.13-.81,0-.94.37-1.82.88-2.59,1.53-.26.17-.38.38-.38.68-.17,1.3-.26,2.6-.26,3.91-.04,1.36.51,1.95,1.87,1.95,3.65.04,5.69,1.32,7.39,4.59.17.25-.21.47-.38.21-2.38-3.82-4.88-4.76-9.13-3.36-.17.08-.3.17-.38.38-1.19,3.02-.93,5.22.93,7.86.26.38.55.43.93.08.72-.68,1.49-1.15,2.38-1.53,3.36-1.44,4.8,4.12,1.15,4.46-4.63.43-8.58-2.93-8.58-7.82s1.15-8.96,3.65-13.13c2.63-4.38,3.82-8.67,3.82-13.81M166.94,98.12c1.49,0,2.12-.64,2.12-2.12s-.64-2.12-2.12-2.12-2.12.64-2.12,2.12.64,2.12,2.12,2.12M29.74,96c0,36.62,29.65,66.26,66.26,66.26s66.26-29.65,66.26-66.26S132.62,29.74,96,29.74,29.74,59.38,29.74,96M144.64,147.65c1.06,1.06,1.95,1.06,3.02,0s1.06-1.95,0-3.02-1.95-1.06-3.02,0-1.06,1.95,0,3.02M96,169.06c1.49,0,2.12-.64,2.12-2.12s-.64-2.12-2.12-2.12-2.12.64-2.12,2.12.64,2.12,2.12,2.12M44.3,147.65c1.06,1.06,1.95,1.06,3.02,0s1.06-1.95,0-3.02-1.95-1.06-3.02,0-1.06,1.95,0,3.02M47.36,44.35c-1.06-1.06-1.95-1.06-3.02,0s-1.06,1.95,0,3.02,1.95,1.06,3.02,0,1.06-1.95,0-3.02M96,22.94c-1.49,0-2.12.64-2.12,2.12s.64,2.12,2.12,2.12,2.12-.64,2.12-2.12-.64-2.12-2.12-2.12M147.7,44.35c-1.06-1.06-1.95-1.06-3.02,0s-1.06,1.95,0,3.02,1.95,1.06,3.02,0,1.06-1.95,0-3.02M158.44,26.76c-.93-.81-1.91-.34-1.78.89.3,3.14-.25,5.78-1.74,8.54-.38.68.17,1.23.85.85,2.76-1.53,5.4-2.04,8.54-1.74,1.23.08,1.7-.85.89-1.78-.42-.42-.85-.89-1.27-1.36.3-2.38-1.74-4.42-4.12-4.12-.43-.42-.89-.85-1.36-1.27M134.44,10.79c-4.42-.42-8.15-1.78-11.81-4.29l-.04-.04c-3.74-2.55-7.43-3.7-11.98-3.7-7.03,0-12.73,5.68-12.74,12.71,0,.01,0,.02,0,.03,0,7.03,5.68,12.73,12.71,12.74.01,0,.02,0,.04,0,4.84,0,8.92-1.15,13.08-3.61,4.46-2.68,8.84-3.87,14.02-3.87,3.14,0,5.86.68,8.67,2.12,2.12,1.1,3.27,2.51,3.87,4.84.81,3.06.04,4.8-2.76,6.33-4.33,2.34-5.69-5.78-.81-4.93,1.02.17,1.44-.3,1.23-1.27-.72-2.97-3.74-4.8-6.71-4.08-.19.04-.35.16-.42.34-1.49,3.01-1.53,5.44-.13,8.49.13.21-.21.38-.34.17-1.44-2.72-1.7-5.06-.81-7.99.09-.25,0-.38-.21-.51-1.51-.8-3.15-1.33-4.84-1.57-.25-.05-.52.01-.72.17-.8.56-1.54,1.2-2.21,1.91-.16.19-.25.43-.25.68-.09,3.82,1.06,6.41,3.95,8.96.13.08,0,.25-.13.17-1.66-1.32-2.85-2.85-3.7-4.8-2.17-4.97-9.3-4.76-11.21.3-.34.89-.04,1.36.89,1.44,4.38.38,7.48,1.87,10.41,5.14,2.25,2.51,4.71,3.91,8.03,4.63,13.13,3.82,21.49-13.59,10.37-21.49-3.82-2.72-7.6-3.91-12.28-3.91-5.1,0-9.43,1.19-13.81,3.82-4.16,2.51-8.28,3.65-13.13,3.65s-8.24-3.99-7.82-8.58c.34-3.61,5.9-2.21,4.46,1.15-.38.87-.89,1.67-1.53,2.38-.34.34-.3.64.08.93,2.63,1.87,4.84,2.12,7.86.93.21-.08.3-.17.38-.38,1.36-4.25.47-6.8-3.36-9.13-.25-.13-.04-.51.21-.38,3.27,1.66,4.54,3.74,4.59,7.39.04,1.32.6,1.87,1.95,1.87s2.59-.09,3.91-.26c.27-.03.51-.17.68-.38.63-.79,1.14-1.66,1.53-2.59.13-.3.13-.51,0-.81-1.91-4.59-4.59-7.01-9.35-8.41-.21-.04-.13-.34.08-.3,4.16,1.06,6.88,3.02,9.18,6.63,1.32,2.08,2.76,2.72,5.18,2.29,2.85-.47,4.63-1.61,6.2-3.99.34-.51.17-.93-.47-.98M92.96,2.81c-.6.04-1.16.08-1.76.08h.04c-1.23.04-1.57,1.1-.64,1.87,2.42,2,3.91,4.25,4.8,7.26.21.77,1.02.77,1.23,0,.89-3.02,2.38-5.27,4.8-7.26.93-.76.6-1.83-.64-1.87h-.11c-.6-.05-1.16-.08-1.76-.08-1.26-1.62-3.59-1.91-5.21-.65-.24.19-.46.41-.65.65h-.11ZM54.41,15.93c-4.72,0-8.45,1.19-12.28,3.91l-.04.04c-11.17,7.86-2.76,25.32,10.36,21.49,3.31-.72,5.78-2.12,8.03-4.63,2.97-3.27,6.03-4.76,10.41-5.14.89-.08,1.23-.59.89-1.44-1.91-5.1-9.05-5.27-11.21-.3-.85,1.95-2.04,3.48-3.7,4.8-.13.08-.26-.08-.13-.17,2.89-2.51,4.04-5.1,3.95-8.96,0-.25-.08-.47-.25-.68-.64-.76-1.36-1.36-2.21-1.91-.21-.17-.47-.17-.72-.17-1.7.2-3.35.73-4.84,1.57-.21.13-.3.26-.21.51.85,2.93.64,5.27-.81,7.99-.13.26-.47.08-.34-.17,1.4-3.06,1.36-5.48-.13-8.49-.08-.21-.21-.3-.42-.34-2.97-.76-5.99,1.1-6.71,4.08-.21.98.25,1.44,1.23,1.27,4.84-.85,3.53,7.26-.81,4.93-2.8-1.49-3.57-3.27-2.76-6.33.59-2.34,1.74-3.74,3.87-4.84,2.8-1.44,5.52-2.12,8.67-2.12,5.18,0,9.56,1.19,14.02,3.87,4.16,2.51,8.24,3.61,13.08,3.61,7.03,0,12.73-5.68,12.74-12.71,0-.01,0-.02,0-.03,0-7.03-5.68-12.73-12.71-12.74-.01,0-.02,0-.03,0-4.54,0-8.24,1.15-11.98,3.69-3.69,2.51-7.39,3.87-11.81,4.29-.64.04-.81.47-.47.98,1.61,2.34,3.4,3.53,6.2,3.99,2.42.43,3.86-.21,5.18-2.29,2.34-3.61,5.01-5.57,9.18-6.63.21-.04.3.26.08.3-4.76,1.4-7.43,3.82-9.35,8.41-.13.3-.13.51,0,.81.37.94.88,1.82,1.53,2.59.17.25.38.38.68.38,1.27.17,2.59.25,3.91.25,1.36.04,1.95-.51,1.95-1.87.04-3.65,1.32-5.69,4.59-7.39.25-.17.47.21.21.38-3.82,2.38-4.76,4.89-3.36,9.13.08.17.17.3.38.38,3.02,1.19,5.22.93,7.86-.93.38-.25.43-.55.08-.93-.68-.72-1.15-1.49-1.53-2.38-1.44-3.36,4.12-4.8,4.46-1.15.43,4.63-2.93,8.58-7.82,8.58s-8.96-1.15-13.13-3.65c-4.38-2.63-8.67-3.82-13.81-3.82M28.03,32.2c-.42.42-.85.89-1.27,1.36-.81.94-.34,1.91.89,1.78,3.14-.3,5.78.26,8.54,1.74.68.38,1.23-.17.85-.85-1.53-2.76-2.04-5.39-1.74-8.54.08-1.23-.85-1.7-1.78-.89-.42.42-.89.85-1.36,1.27-2.38-.3-4.42,1.74-4.12,4.12M10.79,57.56c-.42,4.42-1.78,8.15-4.29,11.81l-.04.04c-2.55,3.74-3.7,7.43-3.7,11.98,0,7.03,5.68,12.73,12.71,12.74.01,0,.02,0,.03,0,7.03,0,12.73-5.68,12.74-12.71,0-.01,0-.02,0-.04,0-4.84-1.15-8.92-3.61-13.08-2.68-4.46-3.87-8.83-3.87-14.02,0-3.14.68-5.86,2.12-8.67,1.1-2.12,2.51-3.27,4.84-3.87,3.06-.81,4.8-.04,6.33,2.76,2.34,4.33-5.78,5.69-4.93.81.17-1.02-.3-1.44-1.27-1.23-2.97.72-4.8,3.74-4.08,6.71.04.21.17.34.34.42,3.01,1.49,5.44,1.53,8.49.13.21-.13.38.21.17.34-2.72,1.44-5.06,1.7-7.99.81-.25-.08-.38,0-.51.21-.8,1.51-1.33,3.15-1.57,4.84-.04.26,0,.51.17.72.55.81,1.19,1.53,1.91,2.21.21.17.42.25.68.25,3.82.08,6.41-1.06,8.96-3.95.08-.13.25,0,.17.13-1.32,1.66-2.85,2.85-4.8,3.7-4.97,2.17-4.76,9.3.3,11.21.89.34,1.36.04,1.44-.89.38-4.38,1.87-7.48,5.14-10.41,2.51-2.25,3.91-4.72,4.63-8.03,3.82-13.13-13.59-21.49-21.49-10.36-2.72,3.82-3.91,7.6-3.91,12.28,0,5.1,1.19,9.43,3.82,13.81,2.51,4.16,3.65,8.28,3.65,13.13s-3.99,8.24-8.58,7.82c-3.61-.34-2.21-5.9,1.15-4.46.87.38,1.67.9,2.38,1.53.34.34.64.3.93-.09,1.87-2.63,2.12-4.84.93-7.86-.08-.21-.17-.3-.38-.38-4.25-1.36-6.8-.47-9.13,3.36-.13.25-.51.04-.38-.21,1.66-3.27,3.74-4.54,7.39-4.59,1.32-.04,1.87-.59,1.87-1.95s-.09-2.59-.26-3.91c-.03-.27-.17-.51-.38-.68-.79-.63-1.66-1.14-2.59-1.53-.3-.13-.51-.13-.81,0-4.59,1.91-7.01,4.59-8.41,9.35-.04.21-.34.13-.3-.08,1.06-4.16,3.02-6.88,6.63-9.18,2.08-1.32,2.72-2.76,2.29-5.18-.47-2.85-1.61-4.63-3.99-6.2-.51-.34-.93-.17-.98.47M25.06,98.12c1.49,0,2.12-.64,2.12-2.12s-.64-2.12-2.12-2.12-2.12.64-2.12,2.12.64,2.12,2.12,2.12M2.88,91.31c-.05.58-.07,1.17-.08,1.76v-.04c-1.62,1.26-1.91,3.59-.65,5.21.19.24.41.46.65.65v.11c.05.6.09,1.16.09,1.76.04,1.23,1.1,1.57,1.87.64,2-2.42,4.25-3.91,7.26-4.8.77-.21.77-1.02,0-1.23-3.02-.89-5.27-2.38-7.26-4.8-.76-.93-1.78-.6-1.87.64v.11ZM15.93,137.59c0,4.71,1.19,8.45,3.91,12.28h.04c7.86,11.17,25.32,2.76,21.49-10.37-.72-3.31-2.12-5.78-4.63-8.03-3.27-2.97-4.76-6.03-5.14-10.41-.08-.89-.59-1.23-1.44-.89-5.1,1.91-5.27,9.05-.3,11.21,1.95.85,3.48,2.04,4.8,3.7.08.13-.08.26-.17.13-2.51-2.89-5.1-4.04-8.96-3.95-.25,0-.47.09-.68.25-.76.64-1.36,1.36-1.91,2.21-.17.21-.17.47-.17.72.2,1.7.73,3.35,1.57,4.84.13.21.26.3.51.21,2.93-.85,5.27-.64,7.99.81.26.13.08.47-.17.34-3.06-1.4-5.48-1.36-8.49.13-.21.09-.3.21-.34.42-.76,2.97,1.1,5.99,4.08,6.71.98.21,1.44-.26,1.27-1.23-.85-4.84,7.26-3.53,4.93.81-1.49,2.8-3.27,3.57-6.33,2.76-2.34-.59-3.74-1.74-4.84-3.87-1.44-2.8-2.12-5.52-2.12-8.67,0-5.18,1.19-9.56,3.87-14.02,2.51-4.12,3.61-8.2,3.61-13.04,0-7.03-5.68-12.73-12.71-12.74-.01,0-.02,0-.03,0-7.03,0-12.73,5.68-12.74,12.71,0,.01,0,.02,0,.03,0,4.54,1.15,8.24,3.69,11.98,2.51,3.69,3.87,7.39,4.29,11.81.04.64.47.81.98.47,2.34-1.61,3.53-3.4,3.99-6.2.42-2.42-.21-3.87-2.29-5.18-3.61-2.34-5.57-5.01-6.63-9.18-.04-.21.26-.3.3-.08,1.4,4.76,3.82,7.43,8.41,9.35.3.13.51.13.81,0,.94-.37,1.82-.88,2.59-1.53.25-.17.38-.38.38-.68.17-1.28.25-2.59.25-3.91.04-1.36-.51-1.95-1.87-1.95-3.65-.04-5.69-1.32-7.39-4.59-.17-.25.21-.47.38-.21,2.38,3.82,4.89,4.76,9.13,3.36.17-.08.3-.17.38-.38,1.19-3.02.93-5.22-.93-7.86-.25-.38-.55-.43-.93-.08-.72.68-1.49,1.15-2.38,1.53-3.36,1.44-4.8-4.12-1.15-4.46,4.63-.43,8.58,2.93,8.58,7.82s-1.15,8.96-3.65,13.13c-2.63,4.37-3.82,8.67-3.82,13.81M32.2,163.97c.42.42.89.85,1.36,1.27.94.81,1.91.34,1.78-.89-.3-3.14.26-5.78,1.74-8.54.38-.68-.17-1.23-.85-.85-2.76,1.53-5.39,2.04-8.54,1.74-1.23-.09-1.7.85-.89,1.78.42.43.85.89,1.27,1.36-.3,2.38,1.74,4.42,4.12,4.12M57.56,181.21c4.42.42,8.15,1.78,11.81,4.29l.04.04c3.74,2.55,7.43,3.7,11.98,3.7,7.03,0,12.73-5.68,12.74-12.71,0-.01,0-.02,0-.03,0-7.03-5.68-12.73-12.71-12.74-.01,0-.02,0-.04,0-4.84,0-8.92,1.15-13.08,3.61-4.46,2.68-8.83,3.87-14.02,3.87-3.14,0-5.86-.68-8.67-2.12-2.12-1.1-3.27-2.51-3.87-4.84-.81-3.06-.04-4.8,2.76-6.33,4.33-2.34,5.69,5.78.81,4.93-1.02-.17-1.44.3-1.23,1.27.72,2.97,3.74,4.8,6.71,4.08.19-.04.35-.16.42-.34,1.49-3.02,1.53-5.44.13-8.5-.13-.21.21-.38.34-.17,1.44,2.72,1.7,5.05.81,7.99-.08.26,0,.38.21.51,1.53.81,3.1,1.32,4.84,1.57.26.04.51,0,.72-.17.8-.56,1.54-1.2,2.21-1.91.17-.21.25-.43.25-.68.08-3.82-1.06-6.41-3.95-8.96-.13-.09,0-.25.13-.17,1.66,1.32,2.85,2.85,3.7,4.8,2.17,4.97,9.3,4.76,11.21-.3.34-.89.04-1.36-.89-1.44-4.38-.38-7.48-1.87-10.41-5.14-2.25-2.51-4.72-3.91-8.03-4.63-13.13-3.82-21.49,13.59-10.36,21.49,3.82,2.72,7.6,3.91,12.28,3.91,5.1,0,9.43-1.19,13.81-3.82,4.16-2.51,8.28-3.65,13.13-3.65s8.24,3.99,7.82,8.58c-.34,3.61-5.9,2.21-4.46-1.15.38-.87.9-1.67,1.53-2.38.34-.34.3-.64-.09-.93-2.63-1.87-4.84-2.12-7.86-.93-.21.08-.3.17-.38.38-1.36,4.25-.47,6.8,3.36,9.13.25.13.04.51-.21.38-3.27-1.66-4.54-3.74-4.59-7.39-.04-1.32-.59-1.87-1.95-1.87-1.31,0-2.61.08-3.91.26-.27.03-.51.17-.68.38-.63.79-1.14,1.66-1.53,2.59-.13.3-.13.51,0,.81,1.91,4.59,4.59,7.01,9.35,8.41.21.04.13.34-.08.3-4.16-1.06-6.88-3.02-9.18-6.63-1.32-2.08-2.76-2.72-5.18-2.29-2.85.47-4.63,1.61-6.2,3.99-.34.51-.17.93.47.98M99.04,189.19c.6-.04,1.16-.08,1.76-.08h-.04c1.23-.04,1.57-1.1.64-1.87-2.42-2-3.91-4.25-4.8-7.26-.21-.76-1.02-.76-1.23,0-.89,3.02-2.38,5.27-4.8,7.26-.93.76-.6,1.79.64,1.87h.11c.6.05,1.16.08,1.76.08,1.26,1.62,3.59,1.91,5.21.65.24-.19.46-.41.65-.65h.11ZM137.58,176.07c4.71,0,8.45-1.19,12.28-3.91l.04-.04c11.17-7.86,2.76-25.32-10.36-21.49-3.31.72-5.78,2.12-8.03,4.63-2.97,3.27-6.03,4.76-10.41,5.14-.89.09-1.23.6-.89,1.45,1.91,5.1,9.05,5.27,11.21.3.85-1.95,2.04-3.48,3.7-4.8.13-.09.26.09.13.17-2.89,2.51-4.04,5.1-3.95,8.96,0,.26.09.47.26.68.64.76,1.36,1.36,2.21,1.91.21.17.47.17.72.17,1.7-.2,3.35-.73,4.84-1.57.21-.13.3-.26.21-.51-.85-2.93-.64-5.27.81-7.99.13-.26.47-.09.34.17-1.4,3.06-1.36,5.48.13,8.49.09.21.21.3.43.34,2.97.76,5.99-1.1,6.71-4.08.21-.98-.25-1.44-1.23-1.27-4.84.85-3.53-7.26.81-4.93,2.8,1.49,3.57,3.27,2.76,6.33-.6,2.34-1.74,3.74-3.87,4.84-2.8,1.44-5.52,2.12-8.66,2.12-5.18,0-9.56-1.19-14.02-3.87-4.16-2.51-8.24-3.61-13.08-3.61-7.03,0-12.73,5.68-12.74,12.71,0,.01,0,.02,0,.03,0,7.03,5.68,12.73,12.71,12.74.01,0,.02,0,.03,0,4.54,0,8.24-1.15,11.98-3.7,3.69-2.51,7.39-3.87,11.81-4.29.64-.04.81-.47.47-.98-1.61-2.34-3.4-3.53-6.2-3.99-2.42-.43-3.87.21-5.18,2.29-2.34,3.61-5.01,5.56-9.18,6.63-.21.04-.3-.26-.08-.3,4.76-1.4,7.43-3.82,9.35-8.41.13-.3.13-.51,0-.81-.37-.94-.88-1.82-1.53-2.59-.17-.26-.38-.38-.68-.38-1.3-.17-2.6-.26-3.91-.26-1.36-.04-1.95.51-1.95,1.87-.04,3.65-1.32,5.69-4.59,7.39-.25.17-.47-.21-.21-.38,3.82-2.38,4.76-4.88,3.36-9.13-.08-.17-.17-.3-.38-.38-3.02-1.19-5.22-.93-7.86.93-.38.26-.43.55-.08.93.68.72,1.15,1.49,1.53,2.38,1.44,3.36-4.12,4.8-4.46,1.15-.43-4.63,2.93-8.58,7.82-8.58s8.96,1.15,13.13,3.65c4.37,2.63,8.67,3.82,13.81,3.82M163.96,159.8c.42-.43.85-.89,1.27-1.36.81-.93.34-1.91-.89-1.78-3.14.3-5.78-.25-8.54-1.74-.68-.38-1.23.17-.85.85,1.53,2.76,2.04,5.4,1.74,8.54-.09,1.23.85,1.7,1.78.89.43-.42.89-.85,1.36-1.27,2.38.3,4.42-1.74,4.12-4.12M181.21,134.44c.42-4.42,1.78-8.15,4.29-11.81h.04c2.55-3.74,3.7-7.43,3.7-11.98,0-7.03-5.68-12.73-12.71-12.74-.01,0-.02,0-.03,0-7.03,0-12.73,5.68-12.74,12.71,0,.01,0,.02,0,.03,0,4.8,1.15,8.88,3.61,13.04,2.68,4.46,3.87,8.84,3.87,14.02,0,3.14-.68,5.86-2.12,8.67-1.1,2.12-2.51,3.27-4.84,3.87-3.06.81-4.8.04-6.33-2.76-2.34-4.33,5.78-5.69,4.93-.81-.17,1.02.3,1.44,1.27,1.23,2.97-.72,4.8-3.74,4.08-6.71-.04-.19-.16-.35-.34-.42-3.02-1.49-5.44-1.53-8.5-.13-.21.13-.38-.21-.17-.34,2.72-1.44,5.05-1.7,7.99-.81.26.09.38,0,.51-.21.8-1.51,1.33-3.15,1.57-4.84.05-.25-.01-.52-.17-.72-.56-.8-1.2-1.54-1.91-2.21-.19-.16-.43-.25-.68-.25-3.82-.09-6.41,1.06-8.96,3.95-.09.13-.25,0-.17-.13,1.32-1.66,2.85-2.85,4.8-3.7,4.97-2.17,4.76-9.3-.3-11.21-.89-.34-1.36-.04-1.44.89-.38,4.38-1.87,7.48-5.14,10.41-2.51,2.25-3.91,4.71-4.63,8.03-3.82,13.13,13.59,21.49,21.49,10.37,2.72-3.82,3.91-7.6,3.91-12.28,0-5.1-1.19-9.43-3.82-13.81-2.51-4.16-3.65-8.28-3.65-13.13s3.99-8.24,8.58-7.82c3.61.34,2.21,5.9-1.15,4.46-.89-.38-1.66-.89-2.38-1.53-.34-.34-.64-.3-.93.08-1.87,2.63-2.12,4.84-.93,7.86.08.21.17.3.38.38,4.25,1.36,6.8.47,9.13-3.36.13-.25.51-.04.38.21-1.66,3.27-3.74,4.54-7.39,4.59-1.32.04-1.87.6-1.87,1.95s.09,2.59.26,3.91c.04.3.17.51.38.68.79.63,1.66,1.14,2.59,1.53.3.13.51.13.81,0,4.59-1.91,7.01-4.59,8.41-9.35.04-.21.34-.13.3.08-1.06,4.16-3.02,6.88-6.63,9.18-2.08,1.32-2.72,2.76-2.29,5.18.47,2.85,1.61,4.63,3.99,6.2.51.34.93.17.98-.47M187.24,101.44c.76.93,1.79.6,1.87-.64v.04-.11c.05-.6.08-1.16.08-1.76,1.62-1.26,1.91-3.59.65-5.21-.19-.24-.41-.46-.65-.65v-.11c-.05-.58-.08-1.17-.08-1.76-.04-1.23-1.1-1.57-1.87-.64-2,2.42-4.25,3.91-7.26,4.8-.76.21-.76,1.02,0,1.23,3.02.89,5.27,2.38,7.26,4.8"
  />
</svg>
