<?xml version="1.0" encoding="UTF-8"?>
<svg id="logo-icon-solid" xmlns="http://www.w3.org/2000/svg" version="1.1" viewBox="0 0 180 180">
  <path d="M116.7,103.7l5.7,15.9h.1l1.6-1.1c1.7-1.2,3.4-2.3,5.1-3.5.2.3.4.6.7,1s.4.7.7,1c-2.6,1.7-5.1,3.5-7.6,5.2s-5.1,3.4-7.7,5.2c-1.4-3.9-2.8-7.9-4.2-11.8-1-2.9-2.1-5.8-3.1-8.7-2.9-8.1-7.3-12.1-15.6-14.2-.6.4-1.1.8-1.7,1.1s-1.1.7-1.7,1.1v20.3c3.2,1.1,6.3,2.6,9.1,4.5l5.6-4.7c.5.6.9,1.1,1.4,1.7-2.1,1.8-4.2,3.6-6.4,5.4-2.1,1.8-4.2,3.6-6.4,5.4-8.5-5-16.8-7-26.6-6.6-6.3.3-11,2.3-15.6,6.6-.5-.5-.9-.9-1.3-1.4,5.8-7.8,12.2-11.5,21.8-12.9,1.7-12.1-6.8-23.2-18.9-24.8v-2c3.2-1.3,6.2-2.9,9.1-4.9,1.7-1.1,3.3-2.3,5-3.4s3.3-2.3,5-3.4v-4.9c0-9.1-11-13.8-17.5-7.5-.3-.2-.5-.5-.8-.7l-.8-.7c4.5-4.8,9-6.8,15.5-6.8s13.7,6.2,13.5,13.7c3.3-2.3,6.7-4.6,10.1-6.9,3.4-2.3,6.7-4.6,10.1-6.9,2.8,3.6,5.6,7.2,8.5,10.9,2.8,3.6,5.6,7.2,8.5,10.8-5.4,3.5-10.7,7.1-16.1,10.6,7.6,4.1,12.1,9.2,15,17.3M59.9,84.9c4.5,2,7.9,4.7,10.8,8.6v-16c-1.8,1.2-3.6,2.5-5.4,3.7-1.8,1.2-3.6,2.5-5.4,3.7M80.7,113.2c2,.3,4,.7,6,1.3v-47.8l-6,4.1v42.5h0ZM88.9,65.1v27.1l19.3-12.8-14-18-5.3,3.7ZM0,90C0,40.3,40.3,0,90,0s90,40.3,90,90-40.3,90-90,90S0,139.7,0,90M165.1,51c0-4.4-1.1-7.9-3.7-11.5h0c-7.4-10.5-23.7-2.6-20.1,9.7.7,3.1,2,5.4,4.3,7.5,3.1,2.8,4.5,5.7,4.8,9.8,0,.8.6,1.2,1.4.8,4.8-1.8,4.9-8.5.3-10.5-1.8-.8-3.3-1.9-4.5-3.5,0-.1,0-.2.2-.1,2.4,2.7,4.8,3.8,8.4,3.7.2,0,.4,0,.6-.2.7-.6,1.3-1.3,1.8-2.1.2-.2.2-.4.2-.7-.2-1.6-.7-3.1-1.5-4.5-.1-.2-.2-.3-.5-.2-2.7.8-4.9.6-7.5-.8-.2-.1,0-.4.2-.3,2.9,1.3,5.1,1.3,8-.1.2,0,.3-.2.3-.4.7-2.8-1-5.6-3.8-6.3-.9-.2-1.4.2-1.2,1.2.8,4.5-6.8,3.3-4.6-.8,1.4-2.6,3.1-3.3,5.9-2.6,2.2.6,3.5,1.6,4.5,3.6,1.4,2.6,2,5.2,2,8.1,0,4.9-1.1,9-3.6,13.1-2.4,3.9-3.4,7.7-3.4,12.3,0,6.6,5.3,11.9,11.9,11.9h0c6.6,0,11.9-5.3,11.9-11.9h0c0-4.3-1.1-7.8-3.5-11.3-2.4-3.5-3.6-6.9-4-11.1,0-.6-.4-.8-.9-.4-2.2,1.5-3.3,3.2-3.7,5.8-.4,2.3.2,3.6,2.1,4.9,3.4,2.2,5.2,4.7,6.2,8.6,0,.2-.2.3-.3,0-1.3-4.5-3.6-7-7.9-8.8-.3-.1-.5-.1-.8,0-.9.3-1.7.8-2.4,1.4-.2.2-.4.4-.4.6-.2,1.2-.2,2.4-.2,3.7,0,1.3.5,1.8,1.8,1.8,3.4,0,5.3,1.2,6.9,4.3.2.2-.2.4-.4.2-2.2-3.6-4.6-4.5-8.6-3.2-.2,0-.3.2-.4.4-1.1,2.8-.9,4.9.9,7.4.2.4.5.4.9,0,.7-.6,1.4-1.1,2.2-1.4,3.2-1.4,4.5,3.9,1.1,4.2-4.3.4-8-2.7-8-7.3s1.1-8.4,3.4-12.3c2.5-4.1,3.6-8.1,3.6-12.9M156.5,92c1.4,0,2-.6,2-2s-.6-2-2-2-2,.6-2,2,.6,2,2,2M27.9,90c0,34.3,27.8,62.1,62.1,62.1s62.1-27.8,62.1-62.1-27.8-62.1-62.1-62.1-62.1,27.8-62.1,62.1M135.6,138.4c1,1,1.8,1,2.8,0s1-1.8,0-2.8-1.8-1-2.8,0-1,1.8,0,2.8M90,158.5c1.4,0,2-.6,2-2s-.6-2-2-2-2,.6-2,2,.6,2,2,2M41.5,138.4c1,1,1.8,1,2.8,0s1-1.8,0-2.8-1.8-1-2.8,0-1,1.8,0,2.8M44.4,41.6c-1-1-1.8-1-2.8,0s-1,1.8,0,2.8,1.8,1,2.8,0,1-1.8,0-2.8M90,21.5c-1.4,0-2,.6-2,2s.6,2,2,2,2-.6,2-2-.6-2-2-2M138.5,41.6c-1-1-1.8-1-2.8,0s-1,1.8,0,2.8,1.8,1,2.8,0,1-1.8,0-2.8M148.5,25.1c-.9-.8-1.8-.3-1.7.8.3,2.9-.2,5.4-1.6,8-.4.6.2,1.2.8.8,2.6-1.4,5.1-1.9,8-1.6,1.2,0,1.6-.8.8-1.7-.4-.4-.8-.8-1.2-1.3.3-2.2-1.6-4.1-3.9-3.9-.4-.4-.8-.8-1.3-1.2M126,10.1c-4.1-.4-7.6-1.7-11.1-4h0c-3.5-2.4-7-3.5-11.2-3.5-6.6,0-11.9,5.3-11.9,11.9h0c0,6.6,5.3,12,11.9,12h0c4.5,0,8.4-1.1,12.3-3.4,4.2-2.5,8.3-3.6,13.1-3.6s5.5.6,8.1,2c2,1,3.1,2.4,3.6,4.5.8,2.9,0,4.5-2.6,5.9-4.1,2.2-5.3-5.4-.8-4.6,1,.2,1.4-.3,1.2-1.2-.7-2.8-3.5-4.5-6.3-3.8-.2,0-.3.1-.4.3-1.4,2.8-1.4,5.1-.1,8,.1.2-.2.4-.3.2-1.4-2.5-1.6-4.7-.8-7.5,0-.2,0-.4-.2-.5-1.4-.7-3-1.2-4.5-1.5-.2,0-.5,0-.7.2-.8.5-1.4,1.1-2.1,1.8-.2.2-.2.4-.2.6,0,3.6,1,6,3.7,8.4.1,0,0,.2-.1.2-1.6-1.2-2.7-2.7-3.5-4.5-2-4.7-8.7-4.5-10.5.3-.3.8,0,1.3.8,1.4,4.1.4,7,1.8,9.8,4.8,2.1,2.4,4.4,3.7,7.5,4.3,12.3,3.6,20.1-12.7,9.7-20.1-3.6-2.5-7.1-3.7-11.5-3.7s-8.8,1.1-12.9,3.6c-3.9,2.4-7.8,3.4-12.3,3.4s-7.7-3.7-7.3-8c.3-3.4,5.5-2.1,4.2,1.1-.4.8-.8,1.6-1.4,2.2-.3.3-.3.6,0,.9,2.5,1.8,4.5,2,7.4.9.2,0,.3-.2.4-.4,1.3-4,.4-6.4-3.2-8.6-.2-.1,0-.5.2-.4,3.1,1.6,4.3,3.5,4.3,6.9,0,1.2.6,1.8,1.8,1.8s2.4,0,3.7-.2c.3,0,.5-.2.6-.4.6-.7,1.1-1.6,1.4-2.4.1-.3.1-.5,0-.8-1.8-4.3-4.3-6.6-8.8-7.9-.2,0-.1-.3,0-.3,3.9,1,6.4,2.8,8.6,6.2,1.2,1.9,2.6,2.6,4.9,2.1,2.7-.4,4.3-1.5,5.8-3.7.3-.5.2-.9-.4-.9M87.1,2.6c-.6,0-1.1,0-1.7,0h0c-1.2,0-1.5,1-.6,1.8,2.3,1.9,3.7,4,4.5,6.8.2.7,1,.7,1.2,0,.8-2.8,2.2-4.9,4.5-6.8.9-.7.6-1.7-.6-1.8h-.1c-.6,0-1.1,0-1.7,0-1.2-1.5-3.4-1.8-4.9-.6-.2.2-.4.4-.6.6h-.1,0ZM51,14.9c-4.4,0-7.9,1.1-11.5,3.7h0c-10.5,7.4-2.6,23.8,9.7,20.2,3.1-.7,5.4-2,7.5-4.3,2.8-3.1,5.7-4.5,9.8-4.8.8,0,1.2-.6.8-1.4-1.8-4.8-8.5-4.9-10.5-.3-.8,1.8-1.9,3.3-3.5,4.5-.1,0-.2,0-.1-.2,2.7-2.4,3.8-4.8,3.7-8.4,0-.2,0-.4-.2-.6-.6-.7-1.3-1.3-2.1-1.8-.2-.2-.4-.2-.7-.2-1.6.2-3.1.7-4.5,1.5-.2.1-.3.2-.2.5.8,2.7.6,4.9-.8,7.5-.1.2-.4,0-.3-.2,1.3-2.9,1.3-5.1-.1-8,0-.2-.2-.3-.4-.3-2.8-.7-5.6,1-6.3,3.8-.2.9.2,1.4,1.2,1.2,4.5-.8,3.3,6.8-.8,4.6-2.6-1.4-3.3-3.1-2.6-5.9.6-2.2,1.6-3.5,3.6-4.5,2.6-1.4,5.2-2,8.1-2,4.9,0,9,1.1,13.1,3.6,3.9,2.4,7.7,3.4,12.3,3.4,6.6,0,11.9-5.3,11.9-11.9h0c0-6.6-5.3-12-11.9-12h0c-4.3,0-7.7,1.1-11.2,3.5-3.5,2.4-6.9,3.6-11.1,4-.6,0-.8.4-.4.9,1.5,2.2,3.2,3.3,5.8,3.7,2.3.4,3.6-.2,4.9-2.1,2.2-3.4,4.7-5.2,8.6-6.2.2,0,.3.2,0,.3-4.5,1.3-7,3.6-8.8,7.9-.1.3-.1.5,0,.8.3.9.8,1.7,1.4,2.4.2.2.4.4.6.4,1.2.2,2.4.2,3.7.2,1.3,0,1.8-.5,1.8-1.8,0-3.4,1.2-5.3,4.3-6.9.2-.2.4.2.2.4-3.6,2.2-4.5,4.6-3.2,8.6,0,.2.2.3.4.4,2.8,1.1,4.9.9,7.4-.9.4-.2.4-.5,0-.9-.6-.7-1.1-1.4-1.4-2.2-1.4-3.1,3.9-4.5,4.2-1.1.4,4.3-2.7,8-7.3,8s-8.4-1.1-12.3-3.4c-4.1-2.5-8.1-3.6-12.9-3.6M26.3,30.2c-.4.4-.8.8-1.2,1.3-.8.9-.3,1.8.8,1.7,2.9-.3,5.4.2,8,1.6.6.4,1.2-.2.8-.8-1.4-2.6-1.9-5.1-1.6-8,0-1.2-.8-1.6-1.7-.8-.4.4-.8.8-1.3,1.2-2.2-.3-4.1,1.6-3.9,3.9M10.1,54c-.4,4.1-1.7,7.6-4,11.1h0c-2.4,3.5-3.5,7-3.5,11.3,0,6.6,5.3,11.9,11.9,11.9h0c6.6,0,11.9-5.3,11.9-11.9h0c0-4.6-1.1-8.4-3.4-12.3-2.5-4.2-3.6-8.3-3.6-13.1s.6-5.5,2-8.1c1-2,2.4-3.1,4.5-3.6,2.9-.8,4.5,0,5.9,2.6,2.2,4.1-5.4,5.3-4.6.8.2-1-.3-1.3-1.2-1.2-2.8.7-4.5,3.5-3.8,6.3,0,.2.2.3.3.4,2.8,1.4,5.1,1.4,8,.1.2-.1.4.2.2.3-2.5,1.3-4.7,1.6-7.5.8-.2,0-.4,0-.5.2-.7,1.4-1.2,3-1.5,4.5,0,.2,0,.5.2.7.5.8,1.1,1.4,1.8,2.1.2.2.4.2.6.2,3.6,0,6-1,8.4-3.7,0-.1.2,0,.2.1-1.2,1.6-2.7,2.7-4.5,3.5-4.7,2-4.5,8.7.3,10.5.8.3,1.3,0,1.4-.8.4-4.1,1.8-7,4.8-9.8,2.4-2.1,3.7-4.4,4.3-7.5,3.6-12.3-12.7-20.1-20.1-9.7-2.5,3.6-3.7,7.1-3.7,11.5s1.1,8.8,3.6,12.9c2.4,3.9,3.4,7.8,3.4,12.3s-3.7,7.7-8,7.3c-3.4-.3-2.1-5.5,1.1-4.2.8.4,1.6.8,2.2,1.4.3.3.6.3.9,0,1.8-2.5,2-4.5.9-7.4,0-.2-.2-.3-.4-.4-4-1.3-6.4-.4-8.6,3.2-.1.2-.5,0-.4-.2,1.6-3.1,3.5-4.3,6.9-4.3,1.2,0,1.8-.6,1.8-1.8s0-2.4-.2-3.7c0-.3-.2-.5-.4-.6-.7-.6-1.6-1.1-2.4-1.4-.3-.1-.5-.1-.8,0-4.3,1.8-6.6,4.3-7.9,8.8,0,.2-.3.1-.3,0,1-3.9,2.8-6.4,6.2-8.6,1.9-1.2,2.6-2.6,2.1-4.9-.4-2.7-1.5-4.3-3.7-5.8-.5-.3-.9-.2-.9.4M23.5,92c1.4,0,2-.6,2-2s-.6-2-2-2-2,.6-2,2,.6,2,2,2M2.7,85.6c0,.5,0,1.1,0,1.7h0c-1.5,1.1-1.8,3.3-.6,4.8.2.2.4.4.6.6h0c0,.7,0,1.2,0,1.8,0,1.2,1,1.5,1.8.6,1.9-2.3,4-3.7,6.8-4.5.7-.2.7-1,0-1.2-2.8-.8-4.9-2.2-6.8-4.5-.7-.9-1.7-.6-1.8.6h0c0,.1,0,0,0,0ZM14.9,129c0,4.4,1.1,7.9,3.7,11.5h0c7.4,10.5,23.7,2.6,20.1-9.7-.7-3.1-2-5.4-4.3-7.5-3.1-2.8-4.5-5.7-4.8-9.8,0-.8-.6-1.2-1.4-.8-4.8,1.8-4.9,8.5-.3,10.5,1.8.8,3.3,1.9,4.5,3.5,0,.1,0,.2-.2.1-2.4-2.7-4.8-3.8-8.4-3.7-.2,0-.4,0-.6.2-.7.6-1.3,1.3-1.8,2.1-.2.2-.2.4-.2.7.2,1.6.7,3.1,1.5,4.5.1.2.2.3.5.2,2.7-.8,4.9-.6,7.5.8.2.1,0,.4-.2.3-2.9-1.3-5.1-1.3-8,.1-.2,0-.3.2-.3.4-.7,2.8,1,5.6,3.8,6.3.9.2,1.4-.2,1.2-1.2-.8-4.5,6.8-3.3,4.6.8-1.4,2.6-3.1,3.3-5.9,2.6-2.2-.6-3.5-1.6-4.5-3.6-1.4-2.6-2-5.2-2-8.1,0-4.9,1.1-9,3.6-13.1,2.4-3.9,3.4-7.7,3.4-12.2,0-6.6-5.3-11.9-11.9-11.9h0c-6.6,0-11.9,5.3-11.9,11.9h0c0,4.3,1.1,7.8,3.5,11.3,2.4,3.5,3.6,6.9,4,11.1,0,.6.4.8.9.4,2.2-1.5,3.3-3.2,3.7-5.8.4-2.3-.2-3.6-2.1-4.9-3.4-2.2-5.2-4.7-6.2-8.6,0-.2.2-.3.3,0,1.3,4.5,3.6,7,7.9,8.8.3.1.5.1.8,0,.9-.3,1.7-.8,2.4-1.4.2-.2.4-.4.4-.6.2-1.2.2-2.4.2-3.7,0-1.3-.5-1.8-1.8-1.8-3.4,0-5.3-1.2-6.9-4.3-.2-.2.2-.4.4-.2,2.2,3.6,4.6,4.5,8.6,3.2.2,0,.3-.2.4-.4,1.1-2.8.9-4.9-.9-7.4-.2-.4-.5-.4-.9,0-.7.6-1.4,1.1-2.2,1.4-3.1,1.4-4.5-3.9-1.1-4.2,4.3-.4,8,2.7,8,7.3s-1.1,8.4-3.4,12.3c-2.5,4.1-3.6,8.1-3.6,12.9M30.2,153.7c.4.4.8.8,1.3,1.2.9.8,1.8.3,1.7-.8-.3-2.9.2-5.4,1.6-8,.4-.6-.2-1.2-.8-.8-2.6,1.4-5.1,1.9-8,1.6-1.2,0-1.6.8-.8,1.7.4.4.8.8,1.2,1.3-.3,2.2,1.6,4.1,3.9,3.9M54,169.9c4.1.4,7.6,1.7,11.1,4h0c3.5,2.4,7,3.5,11.2,3.5,6.6,0,11.9-5.3,11.9-11.9h0c0-6.6-5.3-12-11.9-12h0c-4.5,0-8.4,1.1-12.3,3.4-4.2,2.5-8.3,3.6-13.1,3.6s-5.5-.6-8.1-2c-2-1-3.1-2.4-3.6-4.5-.8-2.9,0-4.5,2.6-5.9,4.1-2.2,5.3,5.4.8,4.6-1-.2-1.3.3-1.2,1.2.7,2.8,3.5,4.5,6.3,3.8.2,0,.3-.2.4-.3,1.4-2.8,1.4-5.1.1-8-.1-.2.2-.4.3-.2,1.3,2.6,1.6,4.7.8,7.5,0,.2,0,.4.2.5,1.4.8,2.9,1.2,4.5,1.5.2,0,.5,0,.7-.2.7-.5,1.4-1.1,2.1-1.8.2-.2.2-.4.2-.6,0-3.6-1-6-3.7-8.4-.1,0,0-.2.1-.2,1.6,1.2,2.7,2.7,3.5,4.5,2,4.7,8.7,4.5,10.5-.3.3-.8,0-1.3-.8-1.4-4.1-.4-7-1.8-9.8-4.8-2.1-2.4-4.4-3.7-7.5-4.3-12.3-3.6-20.1,12.7-9.7,20.1,3.6,2.6,7.1,3.7,11.5,3.7s8.8-1.1,12.9-3.6c3.9-2.4,7.8-3.4,12.3-3.4s7.7,3.7,7.3,8c-.3,3.4-5.5,2.1-4.2-1.1.4-.8.8-1.6,1.4-2.2.3-.3.3-.6,0-.9-2.5-1.8-4.5-2-7.4-.9-.2,0-.3.2-.4.4-1.3,4-.4,6.4,3.2,8.6.2.1,0,.5-.2.4-3.1-1.6-4.3-3.5-4.3-6.9,0-1.2-.6-1.8-1.8-1.8s-2.4,0-3.7.2c-.3,0-.5.2-.6.4-.6.7-1.1,1.6-1.4,2.4-.1.3-.1.5,0,.8,1.8,4.3,4.3,6.6,8.8,7.9.2,0,.1.3,0,.3-3.9-1-6.4-2.8-8.6-6.2-1.2-2-2.6-2.6-4.9-2.1-2.7.4-4.3,1.5-5.8,3.7-.3.5-.2.9.4.9M92.9,177.4c.6,0,1.1,0,1.7,0h0c1.2,0,1.5-1,.6-1.8-2.3-1.9-3.7-4-4.5-6.8-.2-.7-1-.7-1.2,0-.8,2.8-2.2,4.9-4.5,6.8-.9.7-.6,1.7.6,1.8h.1c.6,0,1.1,0,1.7,0,1.2,1.5,3.4,1.8,4.9.6.2-.2.4-.4.6-.6h.1,0ZM129,165.1c4.4,0,7.9-1.1,11.5-3.7h0c10.5-7.4,2.6-23.8-9.7-20.2-3.1.7-5.4,2-7.5,4.3-2.8,3.1-5.7,4.5-9.8,4.8-.8,0-1.2.6-.8,1.4,1.8,4.8,8.5,4.9,10.5.3.8-1.8,1.9-3.3,3.5-4.5.1,0,.2,0,.1.2-2.7,2.4-3.8,4.8-3.7,8.4,0,.2,0,.4.2.6.6.7,1.3,1.3,2.1,1.8.2.2.4.2.7.2,1.6-.2,3.1-.7,4.5-1.5.2-.1.3-.2.2-.5-.8-2.7-.6-4.9.8-7.5.1-.2.4,0,.3.2-1.3,2.9-1.3,5.1.1,8,0,.2.2.3.4.3,2.8.7,5.6-1,6.3-3.8.2-.9-.2-1.4-1.2-1.2-4.5.8-3.3-6.8.8-4.6,2.6,1.4,3.3,3.1,2.6,5.9-.6,2.2-1.6,3.5-3.6,4.5-2.6,1.4-5.2,2-8.1,2-4.9,0-9-1.1-13.1-3.6-3.9-2.4-7.7-3.4-12.3-3.4-6.6,0-11.9,5.3-11.9,11.9h0c0,6.6,5.3,12,11.9,12h0c4.3,0,7.7-1.1,11.2-3.5,3.5-2.4,6.9-3.6,11.1-4,.6,0,.8-.4.4-.9-1.5-2.2-3.2-3.3-5.8-3.7-2.3-.4-3.6.2-4.9,2.1-2.2,3.4-4.7,5.2-8.6,6.2-.2,0-.3-.2,0-.3,4.5-1.3,7-3.6,8.8-7.9.1-.3.1-.5,0-.8-.3-.9-.8-1.7-1.4-2.4-.2-.2-.4-.4-.6-.4-1.2-.2-2.4-.2-3.7-.2-1.3,0-1.8.5-1.8,1.8,0,3.4-1.2,5.3-4.3,6.9-.2.2-.4-.2-.2-.4,3.6-2.2,4.5-4.6,3.2-8.6,0-.2-.2-.3-.4-.4-2.8-1.1-4.9-.9-7.4.9-.4.2-.4.5,0,.9.6.7,1.1,1.4,1.4,2.2,1.4,3.2-3.9,4.5-4.2,1.1-.4-4.3,2.7-8,7.3-8s8.4,1.1,12.3,3.4c4.1,2.5,8.1,3.6,12.9,3.6M153.7,149.8c.4-.4.8-.8,1.2-1.3.8-.9.3-1.8-.8-1.7-2.9.3-5.4-.2-8-1.6-.6-.4-1.2.2-.8.8,1.4,2.6,1.9,5.1,1.6,8,0,1.2.8,1.6,1.7.8.4-.4.8-.8,1.3-1.2,2.2.3,4.1-1.6,3.9-3.9M169.9,126c.4-4.1,1.7-7.6,4-11.1h0c2.4-3.5,3.5-7,3.5-11.2,0-6.6-5.3-11.9-11.9-11.9h0c-6.6,0-11.9,5.3-11.9,11.9h0c0,4.5,1.1,8.4,3.4,12.3,2.5,4.2,3.6,8.3,3.6,13.1s-.6,5.5-2,8.1c-1,2-2.4,3.1-4.5,3.6-2.9.8-4.5,0-5.9-2.6-2.2-4.1,5.4-5.3,4.6-.8-.2,1,.3,1.4,1.2,1.2,2.8-.7,4.5-3.5,3.8-6.3,0-.2-.2-.3-.3-.4-2.8-1.4-5.1-1.4-8-.1-.2.1-.4-.2-.2-.3,2.6-1.4,4.7-1.6,7.5-.8.2,0,.4,0,.5-.2.8-1.4,1.2-3,1.5-4.5,0-.2,0-.5-.2-.7-.5-.8-1.1-1.4-1.8-2.1-.2-.2-.4-.2-.6-.2-3.6,0-6,1-8.4,3.7,0,.1-.2,0-.2-.1,1.2-1.6,2.7-2.7,4.5-3.5,4.7-2,4.5-8.7-.3-10.5-.8-.3-1.3,0-1.4.8-.4,4.1-1.8,7-4.8,9.8-2.4,2.1-3.7,4.4-4.3,7.5-3.6,12.3,12.7,20.1,20.1,9.7,2.6-3.6,3.7-7.1,3.7-11.5s-1.1-8.8-3.6-12.9c-2.4-3.9-3.4-7.8-3.4-12.3s3.7-7.7,8-7.3c3.4.3,2.1,5.5-1.1,4.2-.8-.4-1.6-.8-2.2-1.4-.3-.3-.6-.3-.9,0-1.8,2.5-2,4.5-.9,7.4,0,.2.2.3.4.4,4,1.3,6.4.4,8.6-3.2.1-.2.5,0,.4.2-1.6,3.1-3.5,4.3-6.9,4.3-1.2,0-1.8.6-1.8,1.8s0,2.4.2,3.7c0,.3.2.5.4.6.7.6,1.6,1.1,2.4,1.4.3.1.5.1.8,0,4.3-1.8,6.6-4.3,7.9-8.8,0-.2.3-.1.3,0-1,3.9-2.8,6.4-6.2,8.6-2,1.2-2.6,2.6-2.1,4.9.4,2.7,1.5,4.3,3.7,5.8.5.3.9.2.9-.4M175.5,95.1c.7.9,1.7.6,1.8-.6h0s0,0,0,0c0-.6,0-1.1,0-1.7,1.5-1.2,1.8-3.4.6-4.9-.2-.2-.4-.4-.6-.6h0c0-.6,0-1.2,0-1.8,0-1.2-1-1.5-1.8-.6-1.9,2.3-4,3.7-6.8,4.5-.7.2-.7,1,0,1.2,2.8.8,4.9,2.2,6.8,4.5"/>
</svg>