<?xml version="1.0" encoding="UTF-8"?>
<svg id="logo-text" xmlns="http://www.w3.org/2000/svg" version="1.1" viewBox="0 0 1024 180">
  <path d="M1005.6,33.3c-10.2,0-18.4,8.2-18.4,18.4s8.2,18.4,18.4,18.4,18.4-8.2,18.4-18.4-8.2-18.4-18.4-18.4ZM1005.6,67c-8.4,0-15.3-6.8-15.3-15.3s6.9-15.3,15.3-15.3,15.3,6.8,15.3,15.3-6.9,15.3-15.3,15.3ZM1016.3,60.8c-1.2.2-2.2-.2-2.7-1.2l-3.4-5.6c-.6-1.1-1.6-1.9-2.7-2.4,2.5-.7,4-2.7,4-4.9s-2.5-5.2-5.8-5.2h-8.2v.6c1.2,0,2.1.9,2.1,2.3v14c0,1.4-.9,2.3-2.1,2.3h0v.6h6.8v-.6c-.5,0-1,0-1.4-.3-.1,0-.3-.2-.4-.4,0-.2-.1-.5-.1-.7v-7.3h2c1.6,0,3,.8,3.7,2.2l3,5.2c.6,1,1.4,1.7,2.5,1.9s2.2.1,3.2-.4l-.2-.4h0ZM1004.2,51.3h-2.2v-9h2.2c1.2,0,2.3.4,3.2,1.3s1.3,1.9,1.3,3.2-.4,2.3-1.3,3.2-1.9,1.3-3.2,1.3h0ZM893.9,127.7c2.9,1.1,5.9,1.6,9,1.6v3.8h-38.7v-3.8c3.1,0,6.1-.5,9-1.6,1.1-.4,1.9-1.2,2.3-2.2.6-1.4.9-3,.9-4.6v-38.7c0-10.7-8.7-19.4-19.3-19.4s-19.3,8.6-19.3,19.4v38.7c0,1.6.3,3.2.9,4.7.4,1.1,1.3,1.9,2.3,2.2,2.8,1,5.8,1.5,8.7,1.6v3.8h-38.7v-3.8c3.2,0,6.3-.5,9.3-1.6,1.1-.4,1.9-1.2,2.3-2.2.6-1.4.9-3,.9-4.6v-59.1l-11.9,1.4-.4-3.8,22.8-2.8h3.8v14.3c5.5-9.4,15.6-15.3,26.5-15.3s26.5,11.9,26.5,26.5v38.7c0,1.6.3,3.1.9,4.6.4,1.1,1.3,1.9,2.3,2.2h.1ZM948.1,56.9c-23.7,2.9-38.5,21.2-35.7,44,2.8,22.9,21.6,37.1,45.3,34.1,23.7-2.9,38.5-21.2,35.7-44-2.8-22.9-21.6-37.1-45.3-34.1ZM957.2,131.4c-14.9,1.8-27.2-11.5-29.8-32.2-2.6-20.7,6.2-36.6,21.1-38.4,14.9-1.8,27.2,11.5,29.8,32.2,2.5,20.7-6.2,36.6-21.1,38.4ZM798,127.9c-2.4,0-4-2.3-4-5.5v-38.2c0-15.2-12.3-27.5-27.5-27.5s-23.7,8.6-26.7,20.9l3.2.9c3.7-8.6,12.2-14.3,21.6-14.3s15.1,7.3,15.1,17.6v6c-10,3-19.8,6.5-29.3,10.8-8.1,3.5-12.5,10.4-12.5,18.4s9.2,18.4,22,18.4,16.3-3.9,20-10.8c1.2,7.1,8,11.9,15.1,10.7,6.3-1.1,10.8-6.5,10.8-12.9h-3.8c0,3.2-1.7,5.5-4,5.5h0ZM779.7,113.2c0,8.3-5.6,14.1-13.3,14.1s-13.3-5.8-13.3-14.1,2.7-10.2,7.5-12.7c6.1-3.2,12.5-5.8,19.2-7.8,0,0,0,20.5,0,20.5ZM492.5,121.4l-20.6-34.3c-4-6.5-9.9-11.7-17-14.5,15.4-4.6,24.3-16.3,24.3-30.1s-14.9-31.8-35.9-31.8h-50.5v3.8c7.4,0,12.7,5.9,12.7,14.3v86.3c0,8.3-5.3,14.3-12.7,14.3h-.6v3.8h41.7v-3.8c-3.1,0-6.1-.5-9-1.6-1.1-.4-1.9-1.2-2.3-2.2-.6-1.4-.9-3-.9-4.6v-44.6h12.3c9.4,0,18.2,5,22.9,13.2l18.5,32c7.1,12.4,23,16.6,35.4,9.5l-1.2-2.2c-6.7,1.3-13.5-1.7-17-7.6h0ZM434.9,70.5h-13.3V15.5h13.3c15.2,0,27.5,12.3,27.5,27.6s-12.3,27.6-27.5,27.6h0ZM553.3,56.9c-23.7,2.9-38.5,21.2-35.7,44,2.8,22.9,21.6,37.1,45.3,34.1,23.7-2.9,38.5-21.2,35.7-44-2.8-22.9-21.6-37.1-45.3-34.1ZM562.5,131.4c-14.9,1.8-27.2-11.5-29.8-32.2-2.6-20.7,6.2-36.6,21.1-38.4,14.9-1.8,27.2,11.5,29.8,32.2,2.5,20.7-6.2,36.6-21.1,38.4ZM634.5,18.8v39.1h18v4.8h-18v58.2c0,1.6.3,3.2.9,4.7.4,1.1,1.3,1.9,2.3,2.2,2.8,1,5.8,1.5,8.7,1.6v3.8h-38.7v-3.8c3.2,0,6.3-.5,9.3-1.6,1.1-.4,1.9-1.2,2.3-2.2.6-1.4.9-3,.9-4.6v-58.2h-10.5v-2.9c3.7-.6,7.2-2.1,10.5-4v-18.7c0-17.6,8.5-31.7,22.4-35.6,10.5-3,21.8-1.4,31,4.4l-6.8,18.6h-3.9v-5.7c0-8.8-5.9-15-14.2-15s-14.2,6.2-14.2,15h0ZM728.3,61.6l-3.5,11.6-12.1-3.6c-9.5-2.8-19.6,2.6-22.4,12.2-.5,1.7-.7,3.4-.7,5.1v34c0,1.6.3,3.2.9,4.7.4,1.1,1.3,1.9,2.3,2.2,2.8,1,5.8,1.5,8.7,1.6v3.8h-38.7v-3.8c3.2,0,6.3-.5,9.3-1.6,1.1-.4,1.9-1.2,2.3-2.2.6-1.4.9-3,.9-4.6v-59.1l-11.9,1.4-.4-3.8,22.8-2.8h3.8v16.1c.8-2,1.9-4,3.2-5.7,8.3-11.4,24.2-13.8,35.6-5.5h0ZM21.5,10.7h41.5v3.8c-7.4,0-12.7,5.9-12.7,14.3v122.7c0,8.4-3.7,16.5-10.2,21.9-12.1,10.1-30,8.4-40.1-3.7l1.5-1.9c8.9,6.8,21.8,5,28.6-3.9,2.7-3.5,4.2-7.8,4.2-12.3V28.8c0-8.3-5.3-14.3-12.7-14.3v-3.8h0ZM107.2,56.9c-23.7,2.9-38.5,21.2-35.7,44s21.6,37.1,45.3,34.1c23.7-2.9,38.5-21.2,35.7-44-2.8-22.9-21.6-37.1-45.3-34.1ZM116.3,131.4c-14.9,1.8-27.2-11.5-29.8-32.2-2.5-20.7,6.2-36.6,21.1-38.4,14.9-1.8,27.2,11.5,29.8,32.2s-6.2,36.6-21.1,38.4ZM340.4,127.7c2.9,1.1,5.9,1.6,9,1.6v3.8h-38.7v-3.8c3.1,0,6.1-.5,9-1.6,1.1-.4,1.9-1.2,2.3-2.2.6-1.4.9-3,.9-4.6v-38.7c0-10.7-8.7-19.4-19.3-19.4s-19.3,8.6-19.3,19.4v38.7c0,1.6.3,3.2.9,4.7.4,1.1,1.3,1.9,2.3,2.2,2.8,1,5.8,1.5,8.7,1.6v3.8h-38.7v-3.8c3.2,0,6.3-.5,9.3-1.6,1.1-.4,1.9-1.2,2.3-2.2.6-1.4.9-3,.9-4.6v-59.1l-11.9,1.4-.4-3.8,22.8-2.8h3.8v14.3c5.5-9.4,15.6-15.3,26.5-15.3s26.5,11.9,26.5,26.5v38.7c0,1.6.3,3.1.9,4.6.4,1.1,1.3,1.9,2.3,2.2h.1ZM244.5,127.7c2.9,1.1,5.9,1.6,9,1.6v3.8h-38.7v-3.8c3.1,0,6.1-.5,9-1.6,1.1-.4,1.9-1.2,2.3-2.2.6-1.4.9-3,.9-4.6v-38.7c0-10.7-8.7-19.4-19.3-19.4s-19.3,8.6-19.3,19.4v38.7c0,1.6.3,3.2.9,4.7.4,1.1,1.3,1.9,2.3,2.2,2.8,1,5.8,1.5,8.7,1.6v3.8h-38.7v-3.8c3.2,0,6.3-.5,9.3-1.6,1.1-.4,1.9-1.2,2.3-2.2.6-1.4.9-3,.9-4.6V5.1l-11.9,1.4-.4-3.8L184.5,0h3.8v71c5.5-9.4,15.6-15.3,26.5-15.3s26.5,11.9,26.5,26.5v38.7c0,1.6.3,3.1.9,4.6.4,1.1,1.3,1.9,2.3,2.2h0Z"/>
</svg>