<?xml version="1.0" encoding="UTF-8"?>
<svg id="logo-icon-solid" xmlns="http://www.w3.org/2000/svg" version="1.1" viewBox="0 0 365 64">
  <!-- Generator: Adobe Illustrator 29.3.1, SVG Export Plug-In . SVG Version: 2.1.0 Build 151)  -->
  <path d="M32,0C14.3,0,0,14.3,0,32s14.3,32,32,32,32-14.3,32-32S49.6,0,32,0ZM40.8,2.2h0c1.2.8,2.5,1.3,3.9,1.4h0c.2,0,.3.1.2.3-.5.8-1.1,1.2-2.1,1.3-.8.1-1.3,0-1.7-.8-.8-1.2-1.7-1.9-3.1-2.2,0,0,0,0,0,.1,1.6.5,2.5,1.3,3.1,2.8,0,0,0,.2,0,.3-.1.3-.3.6-.5.9,0,0-.1.1-.2.1-.4,0-.9,0-1.3,0s-.6-.2-.6-.6c0-1.2-.4-1.9-1.5-2.5,0,0-.2,0,0,.1,1.3.8,1.6,1.6,1.1,3,0,0,0,.1-.1.1-1,.4-1.7.3-2.6-.3-.1,0-.1-.2,0-.3.2-.2.4-.5.5-.8.5-1.1-1.4-1.6-1.5-.4-.1,1.5,1,2.9,2.6,2.9s3-.4,4.4-1.2c1.5-.9,2.9-1.3,4.6-1.3s2.8.4,4.1,1.3c3.7,2.6.9,8.4-3.5,7.2-1.1-.2-1.9-.7-2.7-1.5-1-1.1-2-1.6-3.5-1.7-.3,0-.4-.2-.3-.5.6-1.7,3-1.8,3.7-.1.3.6.7,1.2,1.2,1.6,0,0,0,0,0,0-1-.8-1.3-1.7-1.3-3,0,0,0-.2,0-.2.2-.2.5-.5.7-.6,0,0,.2,0,.2,0,.6,0,1.1.3,1.6.5,0,0,0,0,0,.2-.3,1-.2,1.8.3,2.7,0,0,.2,0,.1,0-.5-1-.5-1.8,0-2.8,0,0,0-.1.1-.1,1-.2,2,.4,2.2,1.4,0,.3,0,.5-.4.4-1.6-.3-1.2,2.4.3,1.6.9-.5,1.2-1.1.9-2.1-.2-.8-.6-1.2-1.3-1.6-.9-.5-1.8-.7-2.9-.7-1.7,0-3.2.4-4.7,1.3-1.4.8-2.7,1.2-4.4,1.2h0c-2.3,0-4.2-1.9-4.2-4.2h0c0-2.4,1.9-4.2,4.2-4.2s2.7.4,4,1.2ZM32,54.1c-12.2,0-22.1-9.9-22.1-22.1S19.8,9.9,32,9.9s22.1,9.9,22.1,22.1-9.9,22.1-22.1,22.1ZM49.2,49.2c-.4.4-.7.4-1,0-.4-.4-.4-.7,0-1,.4-.4.7-.4,1,0s.4.7,0,1ZM32.7,55.6c0,.5-.2.7-.7.7s-.7-.2-.7-.7.2-.7.7-.7.7.2.7.7ZM15.8,49.2c-.4.4-.7.4-1,0-.4-.4-.4-.7,0-1s.7-.4,1,0c.4.4.4.7,0,1ZM14.8,14.8c.4-.4.7-.4,1,0,.4.4.4.7,0,1-.4.4-.7.4-1,0s-.4-.7,0-1ZM31.3,8.4c0-.5.2-.7.7-.7s.7.2.7.7-.2.7-.7.7-.7-.2-.7-.7ZM49.2,15.8c-.4.4-.7.4-1,0-.4-.4-.4-.7,0-1,.4-.4.7-.4,1,0,.4.4.4.7,0,1ZM30.4,1h0c.2,0,.4,0,.6,0h0c0,0,.1-.2.2-.2.5-.4,1.3-.3,1.7.2.2,0,.4,0,.6,0h0c.4,0,.5.4.2.6-.8.7-1.3,1.4-1.6,2.4,0,.3-.3.3-.4,0-.3-1-.8-1.8-1.6-2.4-.3-.3-.2-.6.2-.6ZM14,6.6h0c1.3-.9,2.5-1.3,4.1-1.3h0c1.7,0,3.1.4,4.6,1.3,1.4.8,2.7,1.2,4.4,1.2s2.7-1.3,2.6-2.9c-.1-1.2-2-.7-1.5.4.1.3.3.6.5.8.1.1,0,.2,0,.3-.9.6-1.6.7-2.6.3,0,0,0,0-.1-.1-.5-1.4-.2-2.2,1.1-3,0,0,0-.2,0-.1-1.1.6-1.5,1.2-1.5,2.5,0,.5-.2.6-.6.6-.4,0-.9,0-1.3,0,0,0-.2,0-.2-.1-.2-.3-.4-.5-.5-.9,0-.1,0-.2,0-.3.6-1.5,1.5-2.3,3.1-2.8,0,0,0-.1,0,0-1.4.4-2.3,1-3.1,2.2-.4.7-.9.9-1.7.8-.9-.2-1.5-.6-2.1-1.3-.1-.2,0-.3.2-.3,1.5-.1,2.7-.6,3.9-1.4,1.2-.8,2.5-1.2,4-1.2h0c2.3,0,4.2,1.9,4.2,4.2h0c0,2.4-1.9,4.2-4.2,4.2s-3-.4-4.4-1.2c-1.5-.9-2.9-1.3-4.7-1.3s-2,.2-2.9.7c-.7.4-1.1.8-1.3,1.6-.3,1,0,1.6.9,2.1,1.4.8,1.9-1.9.3-1.6-.3,0-.5,0-.4-.4.2-1,1.2-1.6,2.2-1.4,0,0,.1,0,.1.1.5,1,.5,1.8,0,2.8,0,0,0,.1.1,0,.5-.9.6-1.7.3-2.7,0,0,0-.1,0-.2.5-.3,1-.5,1.6-.5,0,0,.2,0,.2,0,.3.2.5.4.7.6,0,0,0,.1,0,.2,0,1.3-.4,2.1-1.3,3,0,0,0,0,0,0,.6-.4.9-.9,1.2-1.6.7-1.7,3.1-1.6,3.7.1.1.3,0,.5-.3.5-1.5.1-2.5.6-3.5,1.7-.7.8-1.6,1.3-2.7,1.5-4.4,1.3-7.2-4.5-3.4-7.2ZM8.9,11.2c.1-.2.3-.3.4-.5h0c0-.8.6-1.5,1.4-1.4.2-.1.3-.3.5-.4.3-.3.6-.1.6.3,0,1,0,1.9.6,2.8.1.2,0,.4-.3.3-.9-.5-1.8-.7-2.8-.6-.4,0-.6-.3-.3-.6ZM2.2,23.1h0c.8-1.2,1.3-2.5,1.4-3.9h0c0-.2.2-.3.3-.2.8.5,1.2,1.1,1.3,2.1.1.8,0,1.3-.8,1.7-1.2.8-1.9,1.7-2.2,3.1,0,0,0,0,0,0,.5-1.6,1.3-2.5,2.8-3.1,0,0,.2,0,.3,0,.3.1.6.3.9.5,0,0,.1.1.1.2,0,.4,0,.8,0,1.3s-.2.6-.6.6c-1.2,0-1.9.4-2.5,1.5,0,0,0,.2.1,0,.8-1.3,1.6-1.6,3-1.1,0,0,0,0,.1.1.4,1,.3,1.7-.3,2.6,0,.1-.2.1-.3,0-.2-.2-.5-.4-.8-.5-1.1-.5-1.6,1.4-.4,1.5,1.5.1,2.9-1,2.9-2.6s-.4-3-1.2-4.4c-.9-1.5-1.3-2.9-1.3-4.6s.4-2.8,1.3-4.1c2.6-3.7,8.4-.9,7.2,3.5-.2,1.1-.7,1.9-1.5,2.7-1.1,1-1.6,2-1.7,3.5,0,.3-.2.4-.5.3-1.7-.6-1.8-3,0-3.7.6-.3,1.2-.7,1.6-1.2,0,0,0,0,0,0-.8,1-1.7,1.3-3,1.3,0,0-.2,0-.2,0-.2-.2-.5-.5-.6-.7,0,0,0-.2,0-.2,0-.6.3-1.1.5-1.6,0,0,0,0,.2,0,1,.3,1.8.2,2.7-.3,0,0,0-.2,0-.1-1,.5-1.8.5-2.8,0,0,0,0,0-.1-.1-.2-1,.4-2,1.4-2.2.3,0,.5,0,.4.4-.3,1.6,2.4,1.2,1.6-.3-.5-.9-1.1-1.2-2.1-.9-.8.2-1.2.6-1.6,1.3-.5.9-.7,1.8-.7,2.9,0,1.7.4,3.2,1.3,4.7.8,1.4,1.2,2.7,1.2,4.4h0c0,2.4-1.9,4.2-4.2,4.2h0c-2.3,0-4.2-1.9-4.2-4.2s.4-2.7,1.2-4ZM9,32c0,.5-.2.7-.7.7s-.7-.2-.7-.7.2-.7.7-.7.7.2.7.7ZM.7,32.7c-.4-.5-.3-1.3.2-1.7h0c0-.2,0-.4,0-.6h0s0,0,0,0c0-.4.4-.5.6-.2.7.8,1.4,1.3,2.4,1.6.3,0,.3.3,0,.4-1,.3-1.8.8-2.4,1.6-.3.3-.6.2-.6-.2,0-.2,0-.4,0-.6h0c0,0-.2-.2-.2-.3ZM6.6,50h0c-.9-1.3-1.3-2.5-1.3-4.1h0c0-1.7.4-3.1,1.3-4.6.8-1.4,1.2-2.7,1.2-4.4s-1.3-2.7-2.9-2.6c-1.2.1-.7,2,.4,1.5.3-.1.6-.3.8-.5.1-.1.2-.1.3,0,.6.9.7,1.6.3,2.6,0,0,0,0-.1.1-1.4.5-2.2.2-3-1.1,0,0-.2,0-.1,0,.6,1.1,1.2,1.5,2.5,1.5.5,0,.6.2.6.6,0,.4,0,.9,0,1.3,0,.1,0,.2-.1.2-.3.2-.5.4-.9.5,0,0-.2,0-.3,0-1.5-.6-2.3-1.5-2.8-3.1,0,0-.1,0,0,0,.4,1.4,1,2.3,2.2,3.1.7.4.9.9.8,1.7-.2.9-.5,1.5-1.3,2.1-.2.1-.3,0-.3-.2-.1-1.5-.6-2.7-1.4-3.9-.8-1.2-1.2-2.5-1.2-4h0c0-2.4,1.9-4.2,4.2-4.2h0c2.3,0,4.2,1.9,4.2,4.2s-.4,3-1.2,4.3c-.9,1.5-1.3,2.9-1.3,4.7s.2,2,.7,2.9c.4.7.8,1.1,1.6,1.3,1,.3,1.6,0,2.1-.9.8-1.4-1.9-1.9-1.6-.3,0,.3,0,.5-.4.4-1-.2-1.6-1.2-1.4-2.2,0,0,0-.1.1-.1,1-.5,1.8-.5,2.8,0,0,0,.1,0,0-.1-.9-.5-1.7-.6-2.7-.3,0,0-.1,0-.2,0-.3-.5-.5-1-.5-1.6,0,0,0-.2,0-.2.2-.3.4-.5.6-.7,0,0,.1,0,.2,0,1.3,0,2.1.4,3,1.3,0,0,0,0,0,0-.4-.6-.9-.9-1.6-1.2-1.7-.7-1.6-3.1,0-3.7.3-.1.5,0,.5.3.1,1.5.6,2.5,1.7,3.5.8.8,1.3,1.6,1.5,2.7,1.3,4.4-4.5,7.2-7.2,3.5ZM11.2,55.1c-.2-.1-.3-.3-.5-.4h0c-.8,0-1.5-.6-1.4-1.4-.1-.2-.3-.3-.4-.5-.3-.3-.1-.6.3-.6,1,0,1.9,0,2.8-.6.2-.1.4,0,.3.3-.5.9-.7,1.8-.6,2.8,0,.4-.3.6-.6.3ZM23.1,61.8h0c-1.2-.8-2.5-1.3-3.9-1.4h0c-.2,0-.3-.1-.2-.3.5-.8,1.1-1.2,2.1-1.3.8-.1,1.3,0,1.7.8.8,1.2,1.7,1.9,3.1,2.2,0,0,0,0,0-.1-1.6-.5-2.5-1.3-3.1-2.8,0-.1,0-.2,0-.3.1-.3.3-.6.5-.9,0,0,.1-.1.2-.1.4,0,.9,0,1.3,0s.6.2.6.6c0,1.2.4,1.9,1.5,2.5,0,0,.2,0,0-.1-1.3-.8-1.6-1.6-1.1-3,0,0,0,0,.1-.1,1-.4,1.7-.3,2.6.3.1,0,.1.2,0,.3-.2.2-.4.5-.5.8-.5,1.1,1.4,1.6,1.5.4.1-1.5-1-2.9-2.6-2.9s-3,.4-4.4,1.2c-1.5.9-2.9,1.3-4.6,1.3s-2.8-.4-4.1-1.3c-3.7-2.6-.9-8.4,3.4-7.2,1.1.2,1.9.7,2.7,1.5,1,1.1,2,1.6,3.5,1.7.3,0,.4.2.3.5-.6,1.7-3,1.8-3.7.1-.3-.6-.7-1.2-1.2-1.6,0,0,0,0,0,0,1,.8,1.3,1.7,1.3,3,0,0,0,.2,0,.2-.2.2-.5.5-.7.6,0,0-.2,0-.2,0-.6,0-1.1-.3-1.6-.5,0,0,0,0,0-.2.3-1,.2-1.8-.3-2.7,0,0-.2,0-.1,0,.5,1,.5,1.8,0,2.8,0,0,0,.1-.1.1-1,.2-2-.4-2.2-1.4,0-.3,0-.5.4-.4,1.6.3,1.2-2.4-.3-1.6-.9.5-1.2,1.1-.9,2.1.2.8.6,1.2,1.3,1.6.9.5,1.8.7,2.9.7,1.7,0,3.2-.4,4.7-1.3,1.4-.8,2.7-1.2,4.4-1.2h0c2.3,0,4.2,1.9,4.2,4.2h0c0,2.4-1.9,4.2-4.2,4.2s-2.7-.4-4-1.2ZM33.5,63h0c-.2,0-.4,0-.6,0h0c0,0-.1.2-.2.2-.5.4-1.3.3-1.7-.2-.2,0-.4,0-.6,0h0c-.4,0-.5-.4-.2-.6.8-.7,1.3-1.4,1.6-2.4,0-.3.3-.3.4,0,.3,1,.8,1.8,1.6,2.4.3.3.2.6-.2.6ZM49.9,57.4h0c-1.3.9-2.5,1.3-4.1,1.3h0c-1.7,0-3.1-.4-4.6-1.3-1.4-.8-2.7-1.2-4.4-1.2s-2.7,1.3-2.6,2.9c.1,1.2,2,.7,1.5-.4-.1-.3-.3-.6-.5-.8-.1-.1,0-.2,0-.3.9-.6,1.6-.7,2.6-.3,0,0,0,0,.1.1.5,1.4.2,2.2-1.1,3,0,0,0,.2,0,.1,1.1-.6,1.5-1.2,1.5-2.5,0-.5.2-.6.6-.6.4,0,.9,0,1.3,0,0,0,.2,0,.2.1.2.3.4.6.5.9,0,0,0,.2,0,.3-.6,1.5-1.5,2.3-3.1,2.8,0,0,0,.1,0,.1,1.4-.4,2.3-1,3.1-2.2.4-.7.9-.9,1.7-.8.9.2,1.5.6,2.1,1.3.1.2,0,.3-.2.3-1.5.1-2.7.6-3.9,1.4-1.2.9-2.5,1.2-4,1.2h0c-2.3,0-4.2-1.9-4.2-4.2h0c0-2.4,1.9-4.2,4.2-4.2s3,.4,4.4,1.2c1.5.9,2.9,1.3,4.7,1.3s2-.2,2.9-.7c.7-.4,1.1-.8,1.3-1.6.3-1,0-1.6-.9-2.1-1.4-.8-1.9,1.9-.3,1.6.3,0,.5,0,.4.4-.2,1-1.2,1.6-2.2,1.4,0,0-.1,0-.1-.1-.5-1-.5-1.8,0-2.8,0,0,0-.1-.1,0-.5.9-.6,1.7-.3,2.7,0,0,0,.1,0,.2-.5.3-1,.5-1.6.5,0,0-.2,0-.2,0-.3-.2-.5-.4-.7-.6,0,0,0-.1,0-.2,0-1.3.4-2.2,1.3-3,0,0,0,0,0,0-.6.4-.9.9-1.2,1.6-.7,1.7-3.1,1.6-3.7,0-.1-.3,0-.5.3-.5,1.5-.1,2.5-.6,3.5-1.7.7-.8,1.6-1.3,2.7-1.5,4.4-1.3,7.2,4.5,3.4,7.2ZM55,52.8c-.1.2-.3.3-.4.5h0c0,.8-.6,1.5-1.4,1.4-.2.1-.3.3-.5.4-.3.3-.6.1-.6-.3,0-1,0-1.9-.6-2.8-.1-.2,0-.4.3-.3.9.5,1.8.7,2.8.6.4,0,.6.3.3.6ZM61.8,40.9h0c-.8,1.2-1.3,2.5-1.4,3.9h0c0,.2-.2.3-.3.2-.8-.5-1.2-1.1-1.3-2.1-.1-.8,0-1.3.8-1.7,1.2-.8,1.9-1.7,2.2-3.1,0,0,0,0,0,0-.5,1.6-1.3,2.5-2.8,3.1,0,0-.2,0-.3,0-.3-.1-.6-.3-.9-.5,0,0-.1-.1-.1-.2,0-.4,0-.9,0-1.3s.2-.6.6-.6c1.2,0,1.9-.4,2.5-1.5,0,0,0-.2-.1,0-.8,1.3-1.6,1.6-3,1.1,0,0,0,0-.1-.1-.4-1-.3-1.7.3-2.6,0-.1.2-.1.3,0,.2.2.5.4.8.5,1.1.5,1.6-1.4.4-1.5-1.5-.1-2.9,1-2.9,2.6s.4,3,1.2,4.4c.9,1.5,1.3,2.9,1.3,4.6s-.4,2.8-1.3,4.1c-2.6,3.7-8.4.9-7.2-3.5.2-1.1.7-1.9,1.5-2.7,1.1-1,1.6-2,1.7-3.5,0-.3.2-.4.5-.3,1.7.6,1.8,3,0,3.7-.6.3-1.2.7-1.6,1.2,0,0,0,0,0,0,.8-1,1.7-1.3,3-1.3,0,0,.2,0,.2,0,.2.2.4.5.6.7,0,0,0,.2,0,.2,0,.6-.3,1.1-.5,1.6,0,0,0,.1-.2,0-1-.3-1.8-.2-2.7.3,0,0,0,.2,0,.1,1-.5,1.8-.5,2.8,0,0,0,0,0,.1.1.2,1-.4,2-1.4,2.2-.3,0-.5,0-.4-.4.3-1.6-2.4-1.2-1.6.3.5.9,1.1,1.2,2.1.9.8-.2,1.2-.6,1.6-1.3.5-.9.7-1.8.7-2.9,0-1.7-.4-3.2-1.3-4.7-.8-1.4-1.2-2.7-1.2-4.3h0c0-2.4,1.9-4.2,4.2-4.2h0c2.3,0,4.2,1.9,4.2,4.2s-.4,2.7-1.2,4ZM54.9,32c0-.5.2-.7.7-.7s.7.2.7.7-.2.7-.7.7-.7-.2-.7-.7ZM63.2,31.3c.4.5.3,1.3-.2,1.7,0,.2,0,.4,0,.6h0c0,.4-.4.5-.6.2h0c-.7-.8-1.4-1.3-2.4-1.6-.3,0-.3-.3,0-.4,1-.3,1.8-.8,2.4-1.6.3-.3.6-.2.6.2,0,.2,0,.4,0,.6h0c0,0,.2.2.2.3ZM57.3,14h0c.9,1.3,1.3,2.5,1.3,4.1h0c0,1.7-.4,3.1-1.3,4.6-.8,1.4-1.2,2.7-1.2,4.4s1.3,2.7,2.9,2.6c1.2-.1.7-2-.4-1.5-.3.1-.6.3-.8.5-.1.1-.2.1-.3,0-.6-.9-.7-1.6-.3-2.6,0,0,0,0,.1-.1,1.4-.5,2.2-.2,3,1.1,0,0,.2,0,.1,0-.6-1.1-1.2-1.5-2.5-1.5-.5,0-.6-.2-.6-.6,0-.4,0-.9,0-1.3,0-.1,0-.2.1-.2.3-.2.5-.4.9-.5,0,0,.2,0,.3,0,1.5.6,2.3,1.5,2.8,3.1,0,0,.1,0,0,0-.4-1.4-1-2.3-2.2-3.1-.7-.4-.9-.9-.8-1.7.2-.9.5-1.5,1.3-2.1.2-.1.3,0,.3.2.1,1.5.6,2.7,1.4,3.9.8,1.2,1.2,2.5,1.2,4h0c0,2.4-1.9,4.2-4.2,4.2h0c-2.3,0-4.2-1.9-4.2-4.2s.4-3,1.2-4.4c.9-1.5,1.3-2.9,1.3-4.7s-.2-2-.7-2.9c-.4-.7-.8-1.1-1.6-1.3-1-.3-1.6,0-2.1.9-.8,1.4,1.9,1.9,1.6.3,0-.3,0-.5.4-.4,1,.2,1.6,1.2,1.4,2.2,0,0,0,.1-.1.1-1,.5-1.8.5-2.8,0,0,0-.1,0,0,.1.9.5,1.7.6,2.7.3,0,0,.1,0,.2,0,.3.5.5,1,.5,1.6,0,0,0,.2,0,.2-.2.3-.4.5-.6.7,0,0-.1,0-.2,0-1.3,0-2.1-.4-3-1.3,0,0,0,0,0,0,.4.6.9.9,1.6,1.2,1.7.7,1.6,3.1,0,3.7-.3.1-.5,0-.5-.3-.1-1.5-.6-2.5-1.7-3.5-.8-.7-1.3-1.6-1.5-2.7-1.3-4.4,4.5-7.2,7.2-3.5ZM55,11.2c.3.3.1.6-.3.6-1-.1-1.9,0-2.8.6-.2.1-.4,0-.3-.3.5-.9.7-1.8.6-2.8,0-.4.3-.6.6-.3h0c.2.1.3.3.5.4.8-.1,1.5.6,1.4,1.4.1.2.3.3.4.5Z"/>
  <path d="M45.9,40.9c-.6.4-1.2.8-1.8,1.2l-.6.4h0l-2-5.6h0c-1-2.9-2.6-4.7-5.3-6.2,1.9-1.3,3.8-2.5,5.7-3.8-1-1.3-2-2.6-3-3.9-1-1.3-2-2.6-3-3.9-1.2.8-2.4,1.6-3.6,2.4-1.2.8-2.4,1.6-3.6,2.4,0-2.7-2.1-4.9-4.8-4.9s-3.9.7-5.5,2.4l.3.2c0,0,.2.2.3.2,2.3-2.3,6.2-.6,6.2,2.7v1.8c-.6.4-1.2.8-1.8,1.2-.6.4-1.2.8-1.8,1.2-1,.7-2.1,1.3-3.2,1.7v.7c4.3.6,7.3,4.5,6.7,8.8-3.4.5-5.7,1.8-7.7,4.6.2.2.3.3.5.5,1.6-1.5,3.3-2.2,5.5-2.3,3.5-.2,6.4.6,9.4,2.3.8-.6,1.5-1.3,2.3-1.9.8-.6,1.5-1.3,2.3-1.9-.2-.2-.3-.4-.5-.6l-2,1.7c-1-.7-2.1-1.2-3.2-1.6v-7.2c.2-.1.4-.3.6-.4.2-.1.4-.3.6-.4,3,.7,4.5,2.2,5.6,5.1.4,1,.7,2.1,1.1,3.1.5,1.4,1,2.8,1.5,4.2.9-.6,1.8-1.2,2.7-1.8.9-.6,1.8-1.2,2.7-1.8,0-.1-.2-.2-.2-.3,0-.1-.2-.2-.2-.3ZM25.1,33.2c-1-1.4-2.2-2.3-3.8-3h0c.6-.4,1.3-.9,1.9-1.3.6-.4,1.3-.9,1.9-1.3v5.7ZM30.8,40.7c-.7-.2-1.4-.4-2.1-.5h0v-15.1l2.1-1.4v17ZM31.6,32.8v-9.6l1.9-1.3,5,6.4-6.9,4.6Z"/>
  <path d="M359.8,15.9c-2.9,0-5.2,2.3-5.2,5.2s2.3,5.2,5.2,5.2,5.2-2.3,5.2-5.2-2.3-5.2-5.2-5.2ZM359.8,25.4c-2.4,0-4.3-1.9-4.3-4.4s1.9-4.4,4.3-4.4,4.3,1.9,4.3,4.4-1.9,4.4-4.3,4.4Z"/>
  <path d="M328.1,42.7c-.3-.1-.5-.3-.7-.6-.2-.4-.2-.9-.2-1.3v-11c0-4.2-3.4-7.5-7.5-7.5s-5.9,1.7-7.5,4.3v-4.1h-1.1l-6.5.8v1.1c.1,0,3.5-.4,3.5-.4v16.8c0,.5,0,.9-.2,1.3-.1.3-.3.5-.7.6-.8.3-1.7.5-2.6.5v1.1h11v-1.1c-.8,0-1.7-.2-2.5-.5-.3-.1-.5-.3-.7-.6-.2-.4-.2-.9-.2-1.3v-11c0-3.1,2.5-5.5,5.5-5.5s5.5,2.5,5.5,5.5v11c0,.5,0,.9-.2,1.3-.1.3-.3.5-.7.6-.8.3-1.7.5-2.6.5v1.1h11v-1.1c-.9,0-1.7-.1-2.6-.5h0Z"/>
  <path d="M362.8,23.7h0c-.3.1-.6,0-.8-.3l-1-1.6c-.2-.3-.4-.5-.8-.7.7-.2,1.1-.8,1.1-1.4s-.7-1.5-1.7-1.5h-2.3v.2c.3,0,.6.3.6.7v4c0,.4-.2.7-.6.7h0v.2h1.9v-.2c-.1,0-.3,0-.4,0,0,0,0,0-.1-.1,0,0,0-.1,0-.2v-2.1h.6c.4,0,.8.2,1.1.6l.9,1.5c.2.3.4.5.7.6.3,0,.6,0,.9-.1h0ZM359.4,21h0s-.6,0-.6,0v-2.6h.6c.3,0,.7.1.9.4.2.2.4.6.4.9s-.1.7-.4.9c-.2.2-.6.4-.9.4Z"/>
  <path d="M343.5,22.6c-6.7.8-10.9,6-10.1,12.5.8,6.5,6.1,10.5,12.8,9.7,6.7-.8,10.9-6,10.1-12.5-.8-6.5-6.1-10.5-12.8-9.7ZM346.1,43.8c-4.2.5-7.7-3.3-8.4-9.2-.7-5.9,1.8-10.4,6-10.9,4.2-.5,7.7,3.3,8.4,9.2.7,5.9-1.8,10.4-6,10.9Z"/>
  <path d="M105.1,22.6c-6.7.8-10.9,6-10.1,12.5.8,6.5,6.1,10.5,12.8,9.7,6.7-.8,10.9-6,10.1-12.5-.8-6.5-6.1-10.5-12.8-9.7ZM107.7,43.8c-4.2.5-7.7-3.3-8.4-9.2-.7-5.9,1.8-10.4,6-10.9,4.2-.5,7.7,3.3,8.4,9.2.7,5.9-1.8,10.4-6,10.9Z"/>
  <path d="M300.9,42.8h0c-.7,0-1.1-.7-1.1-1.6v-10.9c0-4.3-3.5-7.8-7.8-7.8s-6.7,2.5-7.6,6l.9.3c1-2.5,3.5-4.1,6.1-4.1s4.3,2.1,4.3,5v1.7c-2.8.8-5.6,1.9-8.3,3.1-2.3,1-3.6,3-3.6,5.2s2.6,5.2,6.2,5.2,4.6-1.1,5.7-3.1c.3,2,2.3,3.4,4.3,3,1.8-.3,3.1-1.9,3.1-3.7h-1.1c0,.9-.5,1.6-1.1,1.6ZM295.7,38.6c0,2.4-1.6,4-3.8,4s-3.8-1.7-3.8-4,.8-2.9,2.1-3.6c1.7-.9,3.6-1.6,5.4-2.2,0,0,0,5.8,0,5.8Z"/>
  <path d="M144,42.7c-.3-.1-.5-.3-.7-.6-.2-.4-.2-.9-.2-1.3v-11c0-4.2-3.4-7.5-7.5-7.5s-5.9,1.7-7.5,4.3V6.4h-1.1l-6.5.8v1.1c.1,0,3.5-.4,3.5-.4v32.9c0,.5,0,.9-.2,1.3-.1.3-.3.5-.7.6-.8.3-1.7.5-2.6.5v1.1h11v-1.1c-.8,0-1.7-.2-2.5-.5-.3-.1-.5-.3-.7-.6-.2-.4-.2-.9-.2-1.3v-11c0-3.1,2.5-5.5,5.5-5.5s5.5,2.5,5.5,5.5v11c0,.5,0,.9-.2,1.3-.1.3-.3.5-.7.6-.8.3-1.7.5-2.6.5v1.1h11v-1.1c-.9,0-1.7-.1-2.6-.5h0Z"/>
  <path d="M214.3,40.9h0l-5.8-9.8c-1.1-1.9-2.8-3.3-4.8-4.1,4.4-1.3,6.9-4.6,6.9-8.6s-4.2-9-10.2-9h-14.3v1.1c2.1,0,3.6,1.7,3.6,4.1v24.5c0,2.4-1.5,4.1-3.6,4.1h-.2v1.1h11.8v-1.1c-.9,0-1.7-.1-2.6-.5-.3-.1-.6-.3-.7-.6-.2-.4-.2-.9-.2-1.3v-12.7h3.5c2.7,0,5.2,1.4,6.5,3.8l5.3,9.1c2,3.5,6.5,4.7,10,2.7l-.3-.6c-1.9.4-3.8-.5-4.8-2.1ZM198,26.5h0s-3.8,0-3.8,0v-15.7h3.8c4.3,0,7.8,3.5,7.8,7.8s-3.5,7.8-7.8,7.8Z"/>
  <path d="M80.8,10.5c2.1,0,3.6,1.7,3.6,4.1v34.9c0,1.3-.4,2.5-1.2,3.5-1.9,2.5-5.6,3.1-8.1,1.1l-.4.6c2.9,3.4,7.9,3.9,11.4,1,1.8-1.5,2.9-3.8,2.9-6.2V14.6c0-2.4,1.5-4.1,3.6-4.1v-1.1h-11.8v1.1Z"/>
  <path d="M171.1,42.7c-.3-.1-.5-.3-.7-.6-.2-.4-.2-.9-.2-1.3v-11c0-4.2-3.4-7.5-7.5-7.5s-5.9,1.7-7.5,4.3v-4.1h-1.1l-6.5.8v1.1c.1,0,3.5-.4,3.5-.4v16.8c0,.5,0,.9-.2,1.3-.1.3-.3.5-.7.6-.8.3-1.7.5-2.6.5v1.1h11v-1.1c-.8,0-1.7-.2-2.5-.5-.3-.1-.5-.3-.7-.6-.2-.4-.2-.9-.2-1.3v-11c0-3.1,2.5-5.5,5.5-5.5s5.5,2.5,5.5,5.5v11c0,.5,0,.9-.2,1.3-.1.3-.3.5-.7.6-.8.3-1.7.5-2.6.5v1.1h11v-1.1c-.9,0-1.7-.1-2.6-.5h0Z"/>
  <path d="M271.1,25.5c-.4.5-.7,1-.9,1.6v-4.6h-1.1l-6.5.8v1.1c.1,0,3.5-.4,3.5-.4v16.8c0,.5,0,.9-.2,1.3-.1.3-.3.5-.7.6-.8.3-1.7.5-2.6.5v1.1h11v-1.1c-.8,0-1.7-.2-2.5-.5-.3-.1-.5-.3-.7-.6-.2-.4-.2-.9-.2-1.3v-9.7c0-.5,0-1,.2-1.5.8-2.7,3.7-4.3,6.4-3.5l3.4,1,1-3.3h0c-3.2-2.4-7.7-1.7-10.1,1.6Z"/>
  <path d="M231.6,22.6c-6.7.8-10.9,6-10.1,12.5.8,6.5,6.1,10.5,12.8,9.7,6.7-.8,10.9-6,10.1-12.5-.8-6.5-6.1-10.5-12.8-9.7ZM234.2,43.8c-4.2.5-7.7-3.3-8.4-9.2-.7-5.9,1.8-10.4,6-10.9,4.2-.5,7.7,3.3,8.4,9.2.7,5.9-1.8,10.4-6,10.9Z"/>
  <path d="M258.6,7.5c2.4,0,4,1.8,4,4.3v1.6h1.1l1.9-5.3c-2.6-1.6-5.8-2.1-8.8-1.2-3.9,1.1-6.3,5.1-6.3,10.1v5.3c-.9.6-1.9,1-3,1.1v.8h3v16.6c0,.5,0,.9-.2,1.3-.1.3-.3.5-.7.6-.8.3-1.7.5-2.6.5v1.1h11v-1.1c-.8,0-1.7-.2-2.5-.5-.3-.1-.5-.3-.7-.6-.2-.4-.2-.9-.2-1.3v-16.5h5.1v-1.4h-5.1v-11.1h0c0-2.5,1.7-4.3,4-4.3Z"/>
</svg>