<?xml version="1.0" encoding="UTF-8"?>
<svg
  id="logo-text"
  xmlns="http://www.w3.org/2000/svg"
  version="1.1"
  viewBox="0 0 142 25"
>
  <path
    d="M139.45,4.63c-1.41,0-2.55,1.14-2.55,2.55s1.14,2.55,2.55,2.55,2.55-1.14,2.55-2.55-1.14-2.55-2.55-2.55ZM139.45,9.3c-1.17,0-2.12-.95-2.12-2.13s.95-2.13,2.12-2.13,2.12.95,2.12,2.13-.95,2.13-2.12,2.13ZM140.93,8.45c-.16.03-.3-.03-.38-.17l-.47-.78c-.09-.15-.22-.26-.38-.33.35-.1.55-.37.55-.68,0-.42-.34-.72-.81-.72h-1.14v.09c.17,0,.29.13.29.32v1.95c0,.19-.12.32-.29.32h-.01v.09h.94v-.09c-.07,0-.14-.01-.2-.04-.02,0-.04-.03-.05-.05-.01-.03-.02-.07-.02-.1v-1.01h.28c.22,0,.41.11.52.3l.42.72c.08.14.2.23.35.27s.31.02.44-.06l-.03-.05ZM139.25,7.13h-.3v-1.25h.3c.17,0,.32.06.44.18s.18.27.18.44-.06.32-.18.44c-.12.12-.27.18-.44.18ZM123.96,17.74c.4.15.82.22,1.25.22v.53h-5.37v-.53c.43,0,.85-.07,1.25-.22.15-.05.26-.17.32-.31.08-.2.12-.42.12-.64v-5.38c0-1.49-1.2-2.69-2.68-2.69s-2.68,1.2-2.68,2.69v5.37c0,.22.04.44.12.65.06.15.18.26.32.31.39.14.8.21,1.21.22v.53h-5.37v-.53c.44,0,.88-.07,1.29-.22.15-.05.26-.17.32-.31.08-.2.12-.42.12-.64v-8.21l-1.65.2-.06-.53,3.16-.39h.53v1.99c.76-1.31,2.16-2.12,3.67-2.12,2.03,0,3.67,1.65,3.67,3.68v5.38c0,.22.04.43.12.64.06.15.18.26.32.31ZM131.47,7.91c-3.29.4-5.34,2.94-4.95,6.12.39,3.18,2.99,5.15,6.28,4.74,3.29-.4,5.34-2.94,4.95-6.12-.39-3.18-2.99-5.15-6.28-4.74ZM132.74,18.25c-2.06.25-3.77-1.6-4.13-4.47s.86-5.09,2.92-5.34c2.07-.25,3.77,1.6,4.13,4.47.35,2.87-.86,5.09-2.92,5.34ZM110.66,17.77c-.33,0-.56-.32-.56-.77v-5.31c0-2.11-1.7-3.82-3.81-3.82-1.76,0-3.28,1.2-3.7,2.91l.45.13c.51-1.2,1.69-1.98,2.99-1.98,1.23,0,2.09,1.02,2.09,2.45v.84c-1.38.41-2.74.91-4.07,1.5-1.12.49-1.74,1.45-1.74,2.55,0,1.49,1.27,2.55,3.05,2.55,1.21,0,2.26-.54,2.78-1.5.17.99,1.11,1.65,2.1,1.48.87-.15,1.5-.91,1.5-1.79h-.53c0,.45-.23.77-.56.77ZM108.12,15.73c0,1.15-.77,1.96-1.85,1.96s-1.85-.81-1.85-1.96c0-.75.37-1.42,1.04-1.76.85-.44,1.74-.8,2.66-1.09v2.85ZM68.29,16.87l-2.86-4.77c-.55-.91-1.37-1.62-2.36-2.01,2.13-.64,3.37-2.26,3.37-4.18,0-2.59-2.06-4.42-4.98-4.42h-7v.53c1.03,0,1.76.82,1.76,1.98v11.99c0,1.16-.73,1.98-1.76,1.98-.03,0-.05,0-.08,0v.53h5.78v-.53c-.43,0-.85-.07-1.25-.22-.15-.05-.27-.17-.32-.31-.08-.2-.12-.42-.12-.64v-6.19h1.7c1.31,0,2.52.7,3.18,1.84l2.57,4.45c.99,1.72,3.19,2.31,4.91,1.32l-.17-.3c-.93.18-1.87-.24-2.36-1.05ZM60.31,9.8h-1.85V2.15h1.85c2.11,0,3.82,1.71,3.82,3.83s-1.71,3.83-3.82,3.83ZM76.73,7.91c-3.29.4-5.34,2.94-4.95,6.12.39,3.18,2.99,5.15,6.28,4.74,3.29-.4,5.34-2.94,4.95-6.12-.39-3.18-2.99-5.15-6.28-4.74ZM78,18.25c-2.06.25-3.77-1.6-4.13-4.47s.86-5.09,2.92-5.34c2.06-.25,3.77,1.6,4.13,4.47.35,2.87-.86,5.09-2.92,5.34ZM87.99,2.61v5.43h2.5v.66h-2.5v8.08c0,.22.04.44.12.65.06.15.18.26.32.31.39.14.8.21,1.21.22v.53h-5.37v-.53c.44,0,.88-.07,1.29-.22.15-.05.27-.17.32-.31.08-.2.12-.42.12-.64v-8.09h-1.45v-.4c.51-.09,1-.29,1.45-.56v-2.6c0-2.44,1.18-4.4,3.1-4.94,1.45-.41,3.02-.19,4.3.61l-.94,2.59h-.54v-.79c0-1.22-.82-2.09-1.97-2.09s-1.97.86-1.97,2.09ZM100.99,8.55l-.48,1.61-1.68-.5c-1.32-.39-2.72.36-3.11,1.69-.07.23-.1.47-.1.71v4.72c0,.22.04.44.12.65.06.15.18.26.32.31.39.14.8.21,1.21.22v.53h-5.37v-.53c.44,0,.88-.07,1.29-.22.15-.05.26-.17.32-.31.08-.2.12-.42.12-.64v-8.21l-1.65.2-.06-.53,3.16-.39h.53v2.24c.11-.28.26-.55.44-.79,1.15-1.58,3.36-1.92,4.93-.77ZM2.98,1.49h5.76v.53c-1.03,0-1.76.82-1.76,1.98v17.05c0,1.17-.52,2.29-1.42,3.04-1.68,1.4-4.16,1.17-5.56-.51l.21-.27c1.24.95,3.02.7,3.96-.54.37-.49.58-1.09.58-1.71V4c0-1.16-.73-1.98-1.76-1.98v-.53ZM14.86,7.91c-3.29.4-5.34,2.94-4.95,6.12.39,3.18,2.99,5.15,6.28,4.74,3.29-.4,5.34-2.94,4.95-6.12s-2.99-5.15-6.28-4.74ZM16.13,18.25c-2.06.25-3.77-1.6-4.13-4.47-.35-2.87.86-5.09,2.92-5.34,2.06-.25,3.77,1.6,4.13,4.47s-.86,5.09-2.92,5.34ZM47.2,17.74c.4.15.82.22,1.25.22v.53h-5.37v-.53c.43,0,.85-.07,1.25-.22.15-.05.26-.17.32-.31.08-.2.12-.42.12-.64v-5.38c0-1.49-1.2-2.69-2.68-2.69s-2.68,1.2-2.68,2.69v5.37c0,.22.04.44.12.65.06.15.18.26.32.31.39.14.8.21,1.21.22v.53h-5.37v-.53c.44,0,.88-.07,1.29-.22.15-.05.27-.17.32-.31.08-.2.12-.42.12-.64v-8.21l-1.65.2-.06-.53,3.16-.39h.53v1.99c.76-1.31,2.16-2.12,3.67-2.12,2.03,0,3.67,1.65,3.67,3.68v5.38c0,.22.04.43.12.64.06.15.18.26.32.31ZM33.91,17.74c.4.15.82.22,1.25.22v.53h-5.37v-.53c.43,0,.85-.07,1.25-.22.15-.05.26-.17.32-.31.08-.2.12-.42.12-.64v-5.38c0-1.49-1.2-2.69-2.68-2.69s-2.68,1.2-2.68,2.69v5.37c0,.22.04.44.12.65.06.15.18.26.32.31.39.14.8.21,1.21.22v.53h-5.37v-.53c.44,0,.88-.07,1.29-.22.15-.05.26-.17.32-.31.08-.2.12-.42.12-.64V.71l-1.65.2-.06-.53L25.59,0h.53v9.86c.76-1.31,2.16-2.12,3.67-2.12,2.03,0,3.67,1.65,3.67,3.68v5.38c0,.22.04.43.12.64.06.15.18.26.32.31Z"
  />
</svg>
