<?xml version="1.0" encoding="UTF-8"?>
<svg
  id="logo-icon-outline"
  xmlns="http://www.w3.org/2000/svg"
  version="1.1"
  viewBox="0 0 192 192"
>
  <defs>
    <style>
      .st0 {
        fill: none;
        stroke: #000;
        stroke-linecap: round;
        stroke-linejoin: round;
      }
    </style>
  </defs>
  <path
    class="st0"
    d="M159.7,28.18c2.37-.3,4.41,1.74,4.11,4.11.42.47.85.93,1.27,1.36.8.93.34,1.87-.89,1.78-3.14-.3-5.76.21-8.52,1.74-.68.38-1.23-.17-.85-.85,1.48-2.76,2.04-5.38,1.74-8.52-.13-1.23.85-1.69,1.78-.89.47.42.93.85,1.36,1.27M188.99,93.08c1.62,1.26,1.91,3.58.65,5.2-.19.24-.41.46-.65.65,0,.64-.04,1.23-.09,1.86-.08,1.23-1.1,1.57-1.86.64-1.99-2.42-4.24-3.9-7.25-4.79-.76-.21-.76-1.02,0-1.23,3.01-.89,5.26-2.37,7.25-4.79.76-.93,1.82-.59,1.86.64,0,.64.04,1.23.09,1.86v-.04ZM163.82,159.7c.3,2.37-1.74,4.41-4.11,4.11-.47.42-.93.85-1.36,1.27-.93.8-1.87.34-1.78-.89.3-3.14-.21-5.76-1.74-8.52-.38-.68.17-1.23.85-.85,2.76,1.48,5.38,2.04,8.52,1.74,1.23-.13,1.7.85.89,1.78-.42.47-.85.93-1.27,1.36M98.92,188.99c-1.26,1.62-3.58,1.91-5.2.65-.24-.19-.46-.41-.65-.65-.64,0-1.23-.04-1.86-.09-1.23-.09-1.57-1.1-.64-1.87,2.42-1.99,3.9-4.24,4.79-7.25.21-.76,1.02-.76,1.23,0,.89,3.01,2.37,5.26,4.79,7.25.93.76.59,1.82-.64,1.87-.64,0-1.23.04-1.86.09h.04ZM32.3,163.82c-2.37.3-4.41-1.74-4.11-4.11-.41-.46-.84-.91-1.27-1.36-.81-.93-.34-1.87.89-1.78,3.14.3,5.76-.21,8.52-1.74.68-.38,1.23.17.85.85-1.48,2.76-2.03,5.38-1.74,8.52.13,1.23-.85,1.7-1.78.89-.47-.42-.93-.85-1.36-1.27M3.01,98.93c-1.62-1.26-1.91-3.58-.65-5.2.19-.24.41-.46.65-.65,0-.64.04-1.23.08-1.86.04-1.23,1.1-1.57,1.87-.64,1.99,2.42,4.24,3.9,7.25,4.79.76.21.76,1.02,0,1.23-3.01.89-5.26,2.37-7.25,4.79-.76.93-1.82.59-1.87-.64,0-.64-.04-1.23-.08-1.86v.04ZM28.19,32.3c-.3-2.37,1.74-4.41,4.11-4.11.47-.42.93-.85,1.36-1.27.93-.81,1.87-.34,1.78.89-.3,3.14.21,5.76,1.74,8.52.38.68-.17,1.23-.85.85-2.76-1.48-5.38-2.03-8.52-1.74-1.23.13-1.69-.85-.89-1.78.42-.47.85-.93,1.27-1.36M93.08,3.01c1.26-1.62,3.58-1.91,5.2-.65.24.19.46.41.65.65.64,0,1.23.04,1.86.08,1.23.04,1.57,1.1.64,1.87-2.42,1.99-3.9,4.24-4.79,7.25-.21.76-1.02.76-1.23,0-.89-3.01-2.37-5.26-4.79-7.25-.93-.76-.59-1.82.64-1.87.64,0,1.23-.04,1.86-.09h-.04ZM157.37,135.12s-.25,0-.17-.13c1.31-1.65,2.84-2.84,4.79-3.69,4.96-2.16,4.79-9.28-.3-11.19-.85-.34-1.36,0-1.44.89-.38,4.36-1.87,7.42-5.13,10.38-2.5,2.25-3.9,4.7-4.62,8.01-3.82,13.1,13.6,21.49,21.45,10.34,2.71-3.82,3.9-7.54,3.9-12.25,0-5.13-1.19-9.41-3.81-13.78-2.5-4.15-3.65-8.22-3.65-13.1s3.94-8.22,8.56-7.8c3.65.34,2.2,5.89-1.14,4.45-.89-.38-1.65-.85-2.37-1.53-.38-.34-.68-.3-.93.08-1.87,2.63-2.12,4.83-.93,7.84.09.21.21.3.38.38,4.24,1.4,6.74.47,9.11-3.35.17-.25.55-.04.38.21-1.7,3.26-3.73,4.54-7.38,4.58-1.36,0-1.91.59-1.87,1.95,0,1.31.09,2.63.26,3.9,0,.3.13.51.38.68.77.65,1.65,1.16,2.59,1.53.3.13.51.13.81,0,4.58-1.91,6.99-4.58,8.39-9.32.04-.21.34-.13.3.08-1.06,4.15-3.01,6.82-6.61,9.15-2.08,1.31-2.71,2.75-2.29,5.17.47,2.8,1.65,4.58,3.98,6.19.51.34.93.17.98-.47.42-4.41,1.78-8.1,4.28-11.78,2.54-3.73,3.69-7.42,3.69-11.95,0-7.01-5.67-12.71-12.68-12.72,0,0-.02,0-.03,0-7.01,0-12.71,5.67-12.71,12.68,0,.01,0,.02,0,.03,0,4.83,1.1,8.9,3.6,13.01,2.67,4.45,3.86,8.82,3.86,13.99,0,3.14-.68,5.85-2.12,8.65-1.1,2.12-2.5,3.26-4.83,3.86-3.05.81-4.83.04-6.32-2.76-2.33-4.32,5.76-5.64,4.92-.8-.17.98.3,1.44,1.27,1.23,2.97-.72,4.83-3.73,4.07-6.7-.04-.21-.13-.34-.34-.42-3.01-1.48-5.43-1.53-8.48-.13-.25.13-.42-.21-.17-.34,2.71-1.44,5.04-1.65,7.97-.81.25.09.38,0,.51-.21.84-1.49,1.37-3.13,1.57-4.83,0-.26,0-.51-.17-.72-.55-.85-1.14-1.57-1.91-2.2-.19-.16-.43-.25-.68-.25-3.86-.09-6.44,1.06-8.94,3.94h.04ZM157.37,56.88s-.25,0-.17.13c1.31,1.65,2.84,2.84,4.79,3.69,4.96,2.16,4.79,9.28-.3,11.19-.85.34-1.36,0-1.44-.89-.38-4.37-1.87-7.42-5.13-10.39-2.5-2.25-3.9-4.7-4.62-8.01-3.82-13.1,13.6-21.49,21.45-10.34,2.71,3.81,3.9,7.54,3.9,12.25,0,5.13-1.19,9.41-3.81,13.77-2.5,4.15-3.65,8.22-3.65,13.1s3.94,8.22,8.56,7.8c3.65-.34,2.2-5.89-1.14-4.45-.89.38-1.65.85-2.37,1.53-.38.34-.68.3-.93-.08-1.87-2.63-2.12-4.83-.93-7.84.09-.21.21-.3.38-.38,4.24-1.4,6.74-.47,9.11,3.35.17.25.55.04.38-.21-1.7-3.26-3.73-4.54-7.38-4.58-1.36,0-1.91-.59-1.87-1.95,0-1.31.09-2.63.26-3.9,0-.3.13-.51.38-.68.77-.65,1.65-1.16,2.59-1.53.3-.13.51-.13.81,0,4.58,1.91,6.99,4.58,8.39,9.32.04.21.34.13.3-.08-1.06-4.15-3.01-6.82-6.61-9.15-2.08-1.31-2.71-2.75-2.29-5.17.47-2.8,1.65-4.58,3.98-6.19.51-.34.93-.17.98.47.42,4.41,1.78,8.1,4.28,11.78,2.54,3.73,3.69,7.42,3.69,11.95,0,7.01-5.67,12.71-12.68,12.71-.01,0-.02,0-.03,0-7.01,0-12.71-5.67-12.71-12.68,0-.01,0-.02,0-.03,0-4.83,1.1-8.9,3.6-13.01,2.67-4.45,3.86-8.82,3.86-13.99,0-3.14-.68-5.85-2.12-8.65-1.1-2.12-2.5-3.26-4.83-3.86-3.05-.81-4.83-.04-6.32,2.76-2.33,4.32,5.76,5.64,4.92.81-.17-.97.3-1.44,1.27-1.23,2.97.72,4.83,3.73,4.07,6.7-.04.21-.13.34-.34.42-3.01,1.48-5.43,1.53-8.48.13-.25-.13-.42.21-.17.34,2.71,1.44,5.04,1.65,7.97.81.25-.08.38,0,.51.21.84,1.49,1.37,3.13,1.57,4.83,0,.26,0,.51-.17.72-.55.85-1.14,1.57-1.91,2.2-.19.16-.43.25-.68.25-3.86.08-6.44-1.06-8.94-3.94h.04ZM56.88,157.37s0-.25.13-.17c1.65,1.31,2.84,2.84,3.69,4.79,2.16,4.96,9.28,4.79,11.19-.3.34-.85,0-1.36-.89-1.44-4.37-.38-7.42-1.86-10.38-5.13-2.25-2.5-4.7-3.9-8.01-4.62-13.1-3.81-21.49,13.6-10.34,21.45,3.81,2.71,7.54,3.9,12.25,3.9,5.13,0,9.41-1.19,13.77-3.82,4.15-2.5,8.22-3.65,13.1-3.65s8.22,3.94,7.8,8.56c-.34,3.65-5.89,2.2-4.45-1.15.38-.89.85-1.65,1.53-2.37.34-.38.3-.68-.08-.93-2.63-1.86-4.83-2.12-7.84-.93-.21.09-.3.21-.38.38-1.4,4.24-.47,6.74,3.35,9.11.25.17.04.55-.21.38-3.26-1.7-4.54-3.73-4.58-7.37,0-1.36-.59-1.91-1.95-1.87-1.31,0-2.63.09-3.9.25-.3,0-.51.13-.68.38-.65.77-1.16,1.65-1.53,2.59-.13.3-.13.51,0,.8,1.91,4.58,4.58,6.99,9.32,8.39.21.04.13.34-.08.3-4.15-1.06-6.82-3.01-9.15-6.61-1.31-2.08-2.75-2.71-5.17-2.29-2.8.47-4.58,1.65-6.19,3.98-.34.51-.17.93.47.98,4.41.42,8.09,1.78,11.78,4.28,3.73,2.54,7.42,3.69,11.95,3.69,7.01,0,12.71-5.67,12.71-12.68,0-.01,0-.02,0-.03,0-7.04-5.68-12.71-12.71-12.71-4.83,0-8.9,1.1-13.01,3.6-4.45,2.67-8.82,3.86-13.99,3.86-3.14,0-5.85-.68-8.65-2.12-2.12-1.1-3.26-2.5-3.86-4.83-.81-3.05-.04-4.83,2.76-6.32,4.32-2.33,5.64,5.76.81,4.92-.97-.17-1.44.3-1.23,1.27.72,2.97,3.73,4.83,6.7,4.07.21-.04.34-.13.42-.34,1.48-3.01,1.53-5.43.13-8.48-.13-.25.21-.42.34-.17,1.44,2.71,1.65,5.04.81,7.97-.08.25,0,.38.21.51,1.49.84,3.13,1.37,4.83,1.57.25,0,.51,0,.72-.17.85-.55,1.57-1.14,2.2-1.91.16-.19.25-.43.26-.68.08-3.86-1.06-6.44-3.94-8.94v.04ZM135.12,157.37s0-.25-.13-.17c-1.65,1.31-2.84,2.84-3.69,4.79-2.16,4.96-9.28,4.79-11.19-.3-.34-.85,0-1.36.89-1.44,4.36-.38,7.42-1.86,10.38-5.13,2.25-2.5,4.7-3.9,8.01-4.62,13.1-3.81,21.49,13.6,10.34,21.45-3.82,2.71-7.54,3.9-12.25,3.9-5.13,0-9.41-1.19-13.78-3.82-4.15-2.5-8.22-3.65-13.1-3.65s-8.22,3.94-7.8,8.56c.34,3.65,5.89,2.2,4.45-1.15-.38-.89-.85-1.65-1.53-2.37-.34-.38-.3-.68.08-.93,2.63-1.86,4.83-2.12,7.84-.93.21.09.3.21.38.38,1.4,4.24.47,6.74-3.35,9.11-.25.17-.04.55.21.38,3.26-1.7,4.54-3.73,4.58-7.37,0-1.36.59-1.91,1.95-1.87,1.31,0,2.63.09,3.9.25.3,0,.51.13.68.38.65.77,1.16,1.65,1.53,2.59.13.3.13.51,0,.8-1.91,4.58-4.58,6.99-9.32,8.39-.21.04-.13.34.08.3,4.15-1.06,6.82-3.01,9.15-6.61,1.31-2.08,2.75-2.71,5.17-2.29,2.8.47,4.58,1.65,6.19,3.98.34.51.17.93-.47.98-4.41.42-8.1,1.78-11.78,4.28-3.73,2.54-7.42,3.69-11.95,3.69-7.01,0-12.71-5.67-12.72-12.68,0,0,0-.02,0-.03,0-7.04,5.68-12.71,12.71-12.71,4.83,0,8.9,1.1,13.01,3.6,4.45,2.67,8.82,3.86,13.99,3.86,3.14,0,5.85-.68,8.65-2.12,2.12-1.1,3.26-2.5,3.86-4.83.81-3.05.04-4.83-2.76-6.32-4.32-2.33-5.64,5.76-.8,4.92.98-.17,1.44.3,1.23,1.27-.72,2.97-3.73,4.83-6.7,4.07-.21-.04-.34-.13-.42-.34-1.48-3.01-1.53-5.43-.13-8.48.13-.25-.21-.42-.34-.17-1.44,2.71-1.65,5.04-.81,7.97.09.25,0,.38-.21.51-1.49.84-3.13,1.37-4.83,1.57-.26,0-.51,0-.72-.17-.85-.55-1.57-1.14-2.2-1.91-.16-.19-.25-.43-.25-.68-.09-3.86,1.06-6.44,3.94-8.94v.04ZM34.63,56.88s.25,0,.17.13c-1.31,1.65-2.84,2.84-4.79,3.69-4.96,2.16-4.79,9.28.3,11.19.85.34,1.36,0,1.44-.89.38-4.37,1.87-7.42,5.13-10.39,2.5-2.25,3.9-4.7,4.62-8.01,3.81-13.1-13.61-21.49-21.45-10.34-2.71,3.81-3.9,7.54-3.9,12.25,0,5.13,1.19,9.41,3.82,13.77,2.5,4.15,3.65,8.22,3.65,13.1s-3.94,8.22-8.56,7.8c-3.65-.34-2.2-5.89,1.14-4.45.89.38,1.65.85,2.37,1.53.38.34.68.3.93-.08,1.86-2.63,2.12-4.83.93-7.84-.08-.21-.21-.3-.38-.38-4.24-1.4-6.74-.47-9.11,3.35-.17.25-.55.04-.38-.21,1.69-3.26,3.73-4.54,7.38-4.58,1.36,0,1.91-.59,1.86-1.95,0-1.3-.09-2.61-.25-3.9,0-.3-.13-.51-.38-.68-.77-.65-1.65-1.16-2.59-1.53-.3-.13-.51-.13-.81,0-4.58,1.91-6.99,4.58-8.39,9.32-.04.21-.34.13-.3-.08,1.06-4.15,3.01-6.82,6.61-9.15,2.08-1.31,2.71-2.75,2.29-5.17-.47-2.8-1.65-4.58-3.98-6.19-.51-.34-.93-.17-.98.47-.42,4.41-1.78,8.1-4.28,11.78-2.54,3.73-3.69,7.42-3.69,11.95,0,7.04,5.68,12.71,12.71,12.71s12.72-5.68,12.72-12.72c0-4.83-1.1-8.9-3.6-13.01-2.67-4.45-3.86-8.82-3.86-13.99,0-3.14.68-5.85,2.12-8.65,1.1-2.12,2.5-3.26,4.83-3.86,3.05-.81,4.83-.04,6.31,2.76,2.33,4.32-5.76,5.64-4.92.81.17-.97-.3-1.44-1.27-1.23-2.97.72-4.83,3.73-4.07,6.7.04.21.13.34.34.42,3.01,1.48,5.42,1.53,8.48.13.25-.13.42.21.17.34-2.71,1.44-5.04,1.65-7.97.81-.25-.08-.38,0-.51.21-.84,1.49-1.37,3.13-1.57,4.83,0,.26,0,.51.17.72.55.85,1.14,1.57,1.91,2.2.21.17.42.25.68.25,3.86.08,6.44-1.06,8.94-3.94h-.04ZM34.63,135.12s.25,0,.17-.13c-1.31-1.65-2.84-2.84-4.79-3.69-4.96-2.16-4.79-9.28.3-11.19.85-.34,1.36,0,1.44.89.38,4.36,1.87,7.42,5.13,10.38,2.5,2.25,3.9,4.7,4.62,8.01,3.81,13.1-13.61,21.49-21.45,10.34-2.71-3.82-3.9-7.54-3.9-12.25,0-5.13,1.19-9.41,3.82-13.78,2.5-4.15,3.65-8.22,3.65-13.1s-3.94-8.22-8.56-7.8c-3.65.34-2.2,5.89,1.14,4.45.89-.38,1.65-.85,2.37-1.53.38-.34.68-.3.93.08,1.86,2.63,2.12,4.83.93,7.84-.08.21-.21.3-.38.38-4.24,1.4-6.74.47-9.11-3.35-.17-.25-.55-.04-.38.21,1.69,3.26,3.73,4.54,7.38,4.58,1.36,0,1.91.59,1.86,1.95,0,1.31-.08,2.63-.25,3.9,0,.3-.13.51-.38.68-.77.65-1.65,1.16-2.59,1.53-.3.13-.51.13-.81,0-4.58-1.91-6.99-4.58-8.39-9.32-.04-.21-.34-.13-.3.08,1.06,4.15,3.01,6.82,6.61,9.15,2.08,1.31,2.71,2.75,2.29,5.17-.47,2.8-1.65,4.58-3.98,6.19-.51.34-.93.17-.98-.47-.42-4.41-1.78-8.1-4.28-11.78-2.54-3.73-3.69-7.42-3.69-11.95,0-7.03,5.68-12.72,12.71-12.72s12.72,5.68,12.72,12.71c0,4.83-1.1,8.9-3.6,13.01-2.67,4.45-3.86,8.82-3.86,13.99,0,3.14.68,5.85,2.12,8.65,1.1,2.12,2.5,3.26,4.83,3.86,3.05.81,4.83.04,6.31-2.76,2.33-4.32-5.76-5.64-4.92-.8.17.98-.3,1.44-1.27,1.23-2.97-.72-4.83-3.73-4.07-6.7.04-.21.13-.34.34-.42,3.01-1.48,5.42-1.53,8.48-.13.25.13.42-.21.17-.34-2.71-1.44-5.04-1.65-7.97-.81-.25.09-.38,0-.51-.21-.84-1.49-1.37-3.13-1.57-4.83,0-.26,0-.51.17-.72.55-.85,1.14-1.57,1.91-2.2.21-.17.42-.25.68-.25,3.86-.09,6.44,1.06,8.94,3.94h-.04ZM56.88,34.63s0,.25.13.17c1.65-1.31,2.84-2.84,3.69-4.79,2.16-4.96,9.28-4.79,11.19.3.34.85,0,1.36-.89,1.44-4.37.38-7.42,1.87-10.38,5.13-2.25,2.5-4.7,3.9-8.01,4.62-13.1,3.81-21.49-13.6-10.34-21.45,3.81-2.71,7.54-3.9,12.25-3.9,5.13,0,9.41,1.19,13.77,3.82,4.15,2.5,8.22,3.65,13.1,3.65s8.22-3.94,7.8-8.56c-.34-3.65-5.89-2.2-4.45,1.15.38.89.85,1.65,1.53,2.37.34.38.3.68-.08.93-2.63,1.86-4.83,2.12-7.84.93-.21-.08-.3-.21-.38-.38-1.4-4.24-.47-6.74,3.35-9.11.25-.17.04-.55-.21-.38-3.26,1.69-4.54,3.73-4.58,7.37,0,1.36-.59,1.91-1.95,1.86-1.3,0-2.61-.08-3.9-.25-.3,0-.51-.13-.68-.38-.65-.77-1.16-1.65-1.53-2.59-.13-.3-.13-.51,0-.81,1.91-4.58,4.58-6.99,9.32-8.39.21-.04.13-.34-.08-.3-4.15,1.06-6.82,3.01-9.15,6.61-1.31,2.08-2.75,2.71-5.17,2.29-2.8-.47-4.58-1.65-6.19-3.98-.34-.51-.17-.93.47-.98,4.41-.42,8.09-1.78,11.78-4.28,3.73-2.54,7.42-3.69,11.95-3.69,7.04,0,12.71,5.68,12.71,12.71s-5.68,12.71-12.71,12.71c-4.83,0-8.9-1.1-13.01-3.6-4.45-2.67-8.82-3.86-13.99-3.86-3.14,0-5.85.68-8.65,2.12-2.12,1.1-3.26,2.5-3.86,4.83-.81,3.05-.04,4.83,2.76,6.31,4.32,2.33,5.64-5.76.81-4.92-.97.17-1.44-.3-1.23-1.27.72-2.97,3.73-4.83,6.7-4.07.21.04.34.13.42.34,1.48,3.01,1.53,5.42.13,8.48-.13.25.21.42.34.17,1.44-2.71,1.65-5.04.81-7.97-.08-.25,0-.38.21-.51,1.49-.84,3.13-1.37,4.83-1.57.25,0,.51,0,.72.17.85.55,1.57,1.14,2.2,1.91.17.21.26.42.26.68.08,3.86-1.06,6.44-3.94,8.94v-.04ZM135.12,34.63s0,.25-.13.17c-1.65-1.31-2.84-2.84-3.69-4.79-2.16-4.96-9.28-4.79-11.19.3-.34.85,0,1.36.89,1.44,4.36.38,7.42,1.87,10.38,5.13,2.25,2.5,4.7,3.9,8.01,4.62,13.1,3.81,21.49-13.6,10.34-21.45-3.82-2.71-7.54-3.9-12.25-3.9-5.13,0-9.41,1.19-13.78,3.82-4.15,2.5-8.22,3.65-13.1,3.65s-8.22-3.94-7.8-8.56c.34-3.65,5.89-2.2,4.45,1.15-.38.89-.85,1.65-1.53,2.37-.34.38-.3.68.08.93,2.63,1.86,4.83,2.12,7.84.93.21-.08.3-.21.38-.38,1.4-4.24.47-6.74-3.35-9.11-.25-.17-.04-.55.21-.38,3.26,1.69,4.54,3.73,4.58,7.37,0,1.36.59,1.91,1.95,1.86,1.31,0,2.63-.08,3.9-.25.3,0,.51-.13.68-.38.65-.77,1.16-1.65,1.53-2.59.13-.3.13-.51,0-.81-1.91-4.58-4.58-6.99-9.32-8.39-.21-.04-.13-.34.08-.3,4.15,1.06,6.82,3.01,9.15,6.61,1.31,2.08,2.75,2.71,5.17,2.29,2.8-.47,4.58-1.65,6.19-3.98.34-.51.17-.93-.47-.98-4.41-.42-8.1-1.78-11.78-4.28-3.73-2.54-7.42-3.69-11.95-3.69-7.01,0-12.71,5.67-12.72,12.68,0,.01,0,.02,0,.03,0,7.04,5.68,12.71,12.71,12.71,4.83,0,8.9-1.1,13.01-3.6,4.45-2.67,8.82-3.86,13.99-3.86,3.14,0,5.85.68,8.65,2.12,2.12,1.1,3.26,2.5,3.86,4.83.81,3.05.04,4.83-2.76,6.31-4.32,2.33-5.64-5.76-.8-4.92.98.17,1.44-.3,1.23-1.27-.72-2.97-3.73-4.83-6.7-4.07-.21.04-.34.13-.42.34-1.48,3.01-1.53,5.42-.13,8.48.13.25-.21.42-.34.17-1.44-2.71-1.65-5.04-.81-7.97.09-.25,0-.38-.21-.51-1.49-.84-3.13-1.37-4.83-1.57-.26,0-.51,0-.72.17-.85.55-1.57,1.14-2.2,1.91-.16.19-.25.43-.25.68-.09,3.86,1.06,6.44,3.94,8.94v-.04ZM135.12,34.58c.12,0,.21.09.21.21s-.09.21-.21.21-.21-.09-.21-.21.09-.21.21-.21ZM96,191.79c52.9,0,95.79-42.89,95.79-95.79S148.9.21,96,.21.21,43.1.21,96s42.89,95.79,95.79,95.79M147.54,47.43c1.06-1.06,1.06-1.95,0-3.01-1.06-1.06-1.95-1.06-3.01,0s-1.06,1.95,0,3.01,1.95,1.06,3.01,0M166.78,98.12c1.48,0,2.12-.64,2.12-2.12s-.64-2.12-2.12-2.12-2.12.64-2.12,2.12.64,2.12,2.12,2.12M144.57,147.54c1.06,1.06,1.95,1.06,3.01,0,1.06-1.06,1.06-1.95,0-3.01-1.06-1.06-1.95-1.06-3.01,0-1.06,1.06-1.06,1.95,0,3.01M93.88,166.78c0,1.48.64,2.12,2.12,2.12s2.12-.64,2.12-2.12-.64-2.12-2.12-2.12-2.12.64-2.12,2.12M44.46,144.57c-1.06,1.06-1.06,1.95,0,3.01,1.06,1.06,1.95,1.06,3.01,0,1.06-1.06,1.06-1.95,0-3.01s-1.95-1.06-3.01,0M25.22,93.88c-1.48,0-2.12.64-2.12,2.12s.64,2.12,2.12,2.12,2.12-.64,2.12-2.12-.64-2.12-2.12-2.12M47.43,44.46c-1.06-1.06-1.95-1.06-3.01,0s-1.06,1.95,0,3.01c1.06,1.06,1.95,1.06,3.01,0,1.06-1.06,1.06-1.95,0-3.01M98.12,25.22c0-1.48-.64-2.12-2.12-2.12s-2.12.64-2.12,2.12.64,2.12,2.12,2.12,2.12-.64,2.12-2.12M96,162.12c36.52,0,66.12-29.6,66.12-66.12S132.52,29.88,96,29.88,29.88,59.48,29.88,96s29.6,66.12,66.12,66.12M86.12,75.44v45.22c2.16.3,4.28.76,6.36,1.36v-50.95l-6.36,4.32v.04ZM64,90.57c4.75,2.08,8.39,4.96,11.53,9.11v-16.95c-3.86,2.63-7.67,5.25-11.53,7.88v-.04ZM94.81,69.51l5.68-3.9,14.92,19.16-20.6,13.61v-28.86ZM130.46,127.53l-6.06-16.91c-3.09-8.65-7.84-14.11-15.94-18.44,5.69-3.78,11.38-7.55,17.08-11.32-6.02-7.71-12-15.39-18.01-23.1-7.12,4.88-14.28,9.75-21.4,14.62.13-8.05-6.36-14.62-14.41-14.62-6.95,0-11.78,2.12-16.53,7.21.55.47,1.14.97,1.69,1.44,6.99-6.74,18.65-1.74,18.65,7.97v5.25c-3.56,2.42-7.12,4.87-10.68,7.29-3.03,2.06-6.27,3.79-9.66,5.17v2.12c12.89,1.65,21.91,13.52,20.13,26.36-10.26,1.4-17.04,5.38-23.23,13.69.47.51.93.98,1.44,1.48,4.92-4.58,9.92-6.7,16.62-6.99,10.47-.47,19.24,1.7,28.31,6.99,4.54-3.81,9.03-7.63,13.56-11.44-.51-.58-1-1.18-1.48-1.78l-5.98,5.04c-3.01-1.98-6.26-3.57-9.66-4.75v-21.62c1.19-.81,2.37-1.57,3.56-2.37,8.86,2.25,13.56,6.53,16.66,15.13,2.58,7.25,5.21,14.49,7.8,21.79,5.43-3.69,10.85-7.33,16.27-11.02-.47-.68-.93-1.4-1.4-2.08-2.41,1.61-4.83,3.26-7.21,4.87h-.13Z"
  />
</svg>
